<?xml version="1.0" encoding="utf-8"?>
<!-- Generator: Adobe Illustrator 15.0.0, SVG Export Plug-In . SVG Version: 6.00 Build 0)  -->
<!DOCTYPE svg PUBLIC "-//W3C//DTD SVG 1.1//EN" "http://www.w3.org/Graphics/SVG/1.1/DTD/svg11.dtd">
<svg version="1.1" id="Ebene_1" xmlns="http://www.w3.org/2000/svg" xmlns:xlink="http://www.w3.org/1999/xlink" x="0px" y="0px"
	 width="150px" height="60px" viewBox="0 0 150 60" enable-background="new 0 0 150 60" xml:space="preserve">
<path fill="#FFFFFF" d="M17.37,36.508c-0.364,0.502-1.452,1.725-2.175,2.227c-0.91,0.633-2.132,0.953-3.267,0.953H8.617
	c-0.953,0-1.902-0.502-2.673-1.048v8.206H1.407V23.899L1,19.862h4.489l0.182,1c0.815-0.636,1.859-1.226,2.946-1.226h3.311
	c1.135,0,2.401,0.364,3.267,0.997c0.68,0.502,1.812,1.681,2.175,2.227c0.589,0.858,0.815,1.812,0.815,2.812v8.028
	C18.185,34.696,17.959,35.693,17.37,36.508z M13.652,25.762c0-0.182-0.043-0.277-0.043-0.277c-0.32-0.542-0.953-1.131-1.452-1.448
	c-0.091-0.047-0.182-0.091-0.273-0.091H8.752c-0.499,0-2.219,1.36-2.808,2.041v7.391c0.589,0.677,2.266,2.001,2.808,2.001h3.132
	c0.135,0,0.179,0,0.27-0.051c0.502-0.312,1.135-0.953,1.451-1.491c0,0,0.044-0.095,0.044-0.233v-7.842H13.652z"/>
<path fill="#FFFFFF" d="M35.46,25.715c0-0.135-0.044-0.229-0.044-0.229c-0.316-0.542-0.953-1.178-1.451-1.495
	c-0.044-0.043-0.135-0.043-0.273-0.043h-3.125c-0.593,0-2.227,1.36-2.769,2.041v13.466h-4.536V12.335h4.536v8.388
	c0.771-0.542,1.725-1.087,2.677-1.087h3.263c1.088,0,2.404,0.364,3.263,0.997c0.728,0.502,1.815,1.724,2.179,2.227
	c0.589,0.858,0.815,1.768,0.815,2.765v13.83H35.46V25.715z"/>
<path fill="#FFFFFF" d="M61.353,36.508c-0.364,0.546-1.495,1.725-2.175,2.227c-0.906,0.633-2.179,0.953-3.311,0.953h-4.263
	c-1.135,0-2.357-0.32-3.267-0.953c-0.68-0.502-1.859-1.681-2.223-2.227c-0.633-0.866-0.768-1.855-0.768-2.765V25.58
	c0-0.909,0.135-1.91,0.768-2.768c0.364-0.546,1.542-1.677,2.223-2.179c0.909-0.633,2.132-0.997,3.267-0.997h4.263
	c1.131,0,2.405,0.364,3.311,0.997c0.68,0.502,1.812,1.633,2.175,2.179c0.633,0.862,0.771,1.859,0.771,2.768v8.163
	C62.124,34.652,61.986,35.642,61.353,36.508z M49.88,33.969c0,0.363,0.953,1.048,1.495,1.36c0,0,0.091,0.051,0.272,0.051h4.173
	c0.091,0,0.182-0.051,0.272-0.095c0.408-0.226,1.452-0.953,1.495-1.316v-8.254c0-0.044,0-0.135-0.043-0.273
	c-0.273-0.455-0.953-1.135-1.499-1.452c-0.087-0.043-0.134-0.043-0.225-0.043h-4.173c-0.091,0-0.134,0-0.226,0.043
	c-0.545,0.32-1.178,0.91-1.495,1.452c-0.047,0.091-0.047,0.273-0.047,0.273V33.969z"/>
<path fill="#FFFFFF" d="M73.277,33.379c0,0,0,0.183,0.044,0.27c0.272,0.502,1.135,1.499,1.771,1.499h3.311v4.307h-3.358
	c-1.135,0-2.357-0.312-3.263-0.945c-0.728-0.502-1.815-1.731-2.179-2.227c-0.589-0.858-0.862-1.862-0.862-2.859v-9.25h-3.038v-4.311
	h3.038v-7.526h4.536v7.526h5.62v4.311h-5.62V33.379L73.277,33.379z"/>
<path fill="#FFFFFF" d="M99.167,36.508c-0.356,0.546-1.491,1.725-2.176,2.227c-0.909,0.633-2.175,0.953-3.31,0.953h-4.257
	c-1.135,0-2.356-0.32-3.267-0.953c-0.684-0.502-1.855-1.681-2.219-2.227c-0.641-0.866-0.771-1.855-0.771-2.765V25.58
	c0-0.909,0.131-1.91,0.771-2.768c0.356-0.546,1.535-1.677,2.219-2.179c0.91-0.633,2.132-0.997,3.267-0.997h4.264
	c1.128,0,2.401,0.364,3.303,0.997c0.685,0.502,1.819,1.633,2.183,2.179c0.633,0.862,0.771,1.859,0.771,2.768v8.163
	C99.945,34.652,99.8,35.642,99.167,36.508z M87.693,33.969c0,0.363,0.961,1.048,1.499,1.36c0,0,0.087,0.051,0.276,0.051h4.169
	c0.095,0,0.182-0.051,0.269-0.095c0.408-0.226,1.455-0.953,1.499-1.316v-8.254c0-0.044,0-0.135-0.044-0.273
	c-0.276-0.455-0.952-1.135-1.498-1.452c-0.088-0.043-0.131-0.043-0.226-0.043h-4.169c-0.095,0-0.139,0-0.232,0.043
	c-0.539,0.32-1.179,0.91-1.499,1.452c-0.044,0.091-0.044,0.273-0.044,0.273V33.969z"/>
<path fill="#FFFFFF" d="M123.794,35.919c-1.179,1.586-3.223,3.769-5.762,3.769h-5.668c-0.997,0-2.088-0.364-2.815-0.815
	c-0.945-0.553-2.765-2.408-3.303-3.23c-0.553-0.814-0.728-1.717-0.728-2.579V18.774c0-0.862,0.175-1.724,0.728-2.539
	c0.538-0.775,2.357-2.721,3.303-3.267c0.728-0.407,1.818-0.815,2.815-0.815h5.668c2.539,0,4.583,2.223,5.762,3.765
	c0.364,0.499,0.538,0.858,0.953,1.586l-4.627,1.317c0,0-1.36-1.677-2.045-2.084c-0.043-0.047-0.131-0.047-0.174-0.047h-5.355
	c-0.087,0-0.182,0.047-0.182,0.047c-0.589,0.316-1.593,1.266-2.044,1.994c-0.044,0.091-0.044,0.407-0.044,0.498
	c0,0.047,0,13.791,0,13.791c0,0.542,1.411,1.721,2.088,2.084c0.051,0.044,0.27,0.044,0.32,0.044h5.165c0.052,0,0.139,0,0.226-0.044
	c0.961-0.451,2.045-2.132,2.045-2.132l4.627,1.229C124.376,35.017,124.158,35.424,123.794,35.919z"/>
<path fill="#FFFFFF" d="M145.242,39.454v-11.2h-9.888v11.2h-4.766V12.335h4.766v11.382h9.888V12.335H150v27.119H145.242z"/>
</svg>
