<?xml version="1.0" encoding="utf-8"?>
<!DOCTYPE svg PUBLIC "-//W3C//DTD SVG 1.1//EN" "http://www.w3.org/Graphics/SVG/1.1/DTD/svg11.dtd">
<svg version="1.1" id="Ebene_1" xmlns="http://www.w3.org/2000/svg" xmlns:xlink="http://www.w3.org/1999/xlink"
	 viewBox="0 0 146 34" xml:space="preserve">
<path fill="#4B585C" d="M16.04,23.867c-0.356,0.488-1.422,1.688-2.133,2.178c-0.889,0.622-2.088,0.933-3.2,0.933H7.464
	c-0.933,0-1.865-0.489-2.621-1.022V34H0.4V11.512L0,7.556h4.398l0.178,0.977c0.799-0.622,1.821-1.2,2.887-1.2h3.244
	c1.111,0,2.355,0.356,3.2,0.978c0.667,0.49,1.777,1.645,2.133,2.179c0.578,0.844,0.799,1.778,0.799,2.755v7.867
	C16.839,22.089,16.618,23.066,16.04,23.867z M12.396,13.334c0-0.176-0.043-0.268-0.043-0.268c-0.312-0.532-0.933-1.11-1.422-1.421
	c-0.089-0.044-0.178-0.089-0.267-0.089H7.597c-0.488,0-2.177,1.333-2.754,2v7.245c0.577,0.666,2.221,1.955,2.754,1.955h3.066
	c0.133,0,0.177,0,0.267-0.044c0.489-0.312,1.111-0.935,1.422-1.468c0,0,0.043-0.088,0.043-0.223V13.334z"/>
<path fill="#4B585C" d="M33.767,13.29c0-0.132-0.043-0.224-0.043-0.224c-0.312-0.532-0.933-1.155-1.422-1.465
	c-0.042-0.045-0.133-0.045-0.267-0.045H28.97c-0.578,0-2.178,1.333-2.71,2v13.199h-4.444V0.18h4.444V8.4
	c0.754-0.534,1.688-1.067,2.622-1.067h3.199c1.066,0,2.355,0.356,3.198,0.978C35.989,8.8,37.056,10,37.412,10.49
	c0.577,0.844,0.799,1.732,0.799,2.709v13.556h-4.444V13.29z"/>
<path fill="#4B585C" d="M59.138,23.867c-0.355,0.532-1.466,1.688-2.133,2.178c-0.888,0.622-2.132,0.933-3.243,0.933h-4.177
	c-1.111,0-2.311-0.311-3.2-0.933c-0.667-0.49-1.821-1.646-2.177-2.178c-0.622-0.845-0.755-1.822-0.755-2.711v-7.999
	c0-0.89,0.133-1.87,0.755-2.713c0.355-0.533,1.51-1.644,2.177-2.134c0.889-0.621,2.089-0.978,3.2-0.978h4.177
	c1.111,0,2.355,0.356,3.243,0.978c0.667,0.49,1.778,1.601,2.133,2.134c0.621,0.844,0.754,1.823,0.754,2.713v7.999
	C59.892,22.045,59.759,23.022,59.138,23.867z M47.896,21.377c0,0.355,0.933,1.023,1.466,1.335c0,0,0.088,0.044,0.266,0.044h4.087
	c0.089,0,0.178-0.044,0.268-0.09c0.4-0.222,1.422-0.934,1.466-1.289V13.29c0-0.045,0-0.132-0.044-0.268
	c-0.267-0.444-0.934-1.111-1.466-1.421c-0.089-0.045-0.135-0.045-0.224-0.045h-4.087c-0.089,0-0.133,0-0.222,0.045
	c-0.533,0.311-1.154,0.889-1.463,1.421c-0.047,0.089-0.047,0.268-0.047,0.268V21.377z"/>
<path fill="#4B585C" d="M70.823,20.801c0,0,0,0.178,0.043,0.266c0.267,0.488,1.112,1.467,1.733,1.467h3.244v4.222h-3.288
	c-1.111,0-2.311-0.312-3.199-0.933c-0.711-0.488-1.777-1.689-2.134-2.179c-0.577-0.844-0.843-1.821-0.843-2.8v-9.066h-2.978V7.556
	h2.978V0.18h4.443v7.376h5.508v4.222h-5.508V20.801z"/>
<path fill="#4B585C" d="M96.192,23.867c-0.356,0.532-1.465,1.688-2.134,2.178c-0.889,0.622-2.132,0.933-3.241,0.933H86.64
	c-1.112,0-2.31-0.311-3.198-0.933c-0.668-0.49-1.821-1.646-2.177-2.178c-0.622-0.845-0.756-1.822-0.756-2.711v-7.999
	c0-0.89,0.134-1.87,0.756-2.713c0.355-0.533,1.509-1.644,2.177-2.134c0.889-0.621,2.086-0.978,3.198-0.978h4.178
	c1.109,0,2.353,0.356,3.241,0.978c0.669,0.49,1.777,1.601,2.134,2.134c0.623,0.844,0.756,1.823,0.756,2.713v7.999
	C96.948,22.045,96.815,23.022,96.192,23.867z M84.953,21.377c0,0.355,0.931,1.023,1.463,1.335c0,0,0.091,0.044,0.27,0.044h4.087
	c0.088,0,0.178-0.044,0.267-0.09c0.399-0.222,1.422-0.934,1.465-1.289V13.29c0-0.045,0-0.132-0.043-0.268
	c-0.268-0.444-0.934-1.111-1.468-1.421c-0.087-0.045-0.133-0.045-0.221-0.045h-4.087c-0.092,0-0.133,0-0.225,0.045
	c-0.532,0.311-1.154,0.889-1.465,1.421c-0.043,0.089-0.043,0.268-0.043,0.268V21.377z"/>
<path fill="#4B585C" d="M120.318,23.289c-1.153,1.555-3.154,3.688-5.643,3.688h-5.554c-0.974,0-2.044-0.355-2.755-0.8
	c-0.934-0.533-2.711-2.355-3.244-3.155s-0.709-1.689-0.709-2.534V6.489c0-0.844,0.176-1.689,0.709-2.489
	c0.533-0.757,2.311-2.667,3.244-3.199C107.078,0.4,108.148,0,109.122,0h5.554c2.488,0,4.489,2.178,5.643,3.689
	c0.355,0.489,0.532,0.844,0.935,1.556l-4.533,1.29c0,0-1.334-1.645-2-2.044c-0.044-0.045-0.133-0.045-0.178-0.045h-5.241
	c-0.091,0-0.179,0.045-0.179,0.045c-0.577,0.31-1.557,1.243-1.999,1.954c-0.045,0.09-0.045,0.401-0.045,0.49
	c0,0.044,0,13.511,0,13.511c0,0.534,1.376,1.688,2.044,2.044c0.046,0.045,0.266,0.045,0.312,0.045h5.064
	c0.044,0,0.135,0,0.222-0.045c0.935-0.443,2-2.088,2-2.088l4.533,1.199C120.896,22.4,120.674,22.8,120.318,23.289z"/>
<path fill="#4B585C" d="M141.335,26.755V15.778h-9.687v10.977h-4.666V0.18h4.666v11.154h9.687V0.18H146v26.575H141.335z"/>
</svg>
