<?xml version="1.0" encoding="utf-8"?>
<!DOCTYPE svg PUBLIC "-//W3C//DTD SVG 1.1//EN" "http://www.w3.org/Graphics/SVG/1.1/DTD/svg11.dtd">
<svg version="1.1" id="logo-fotoch-de" xmlns="http://www.w3.org/2000/svg" xmlns:xlink="http://www.w3.org/1999/xlink" viewBox="405 263 150 34" xml:space="preserve">
<path fill="#4B585C" d="M416.604,268.322c-0.056,0-0.449,0-0.505,0.056c-0.504,0.279-1.682,1.176-1.738,1.679
	c0,0.169,0,0.618,0,2.466h6.11v5.322h-6.11v18.875h-5.605v-18.875H405v-5.323h3.756v-2.127c0-1.176,0.224-2.409,1.009-3.474
	c0.448-0.616,1.794-2.073,2.691-2.689c1.121-0.784,2.691-1.232,4.092-1.232h5.27v5.322H416.604z"/>
<path fill="#4B585C" d="M445.417,293.079c-0.448,0.673-1.85,2.128-2.691,2.744c-1.122,0.782-2.691,1.177-4.093,1.177h-5.27
	c-1.401,0-2.915-0.395-4.036-1.177c-0.841-0.616-2.299-2.071-2.748-2.744c-0.785-1.063-0.953-2.297-0.953-3.416v-10.084
	c0-1.12,0.168-2.353,0.953-3.417c0.449-0.671,1.906-2.071,2.748-2.688c1.121-0.783,2.634-1.231,4.036-1.231h5.27
	c1.401,0,2.971,0.448,4.092,1.231c0.841,0.617,2.243,2.018,2.691,2.688c0.785,1.064,0.953,2.297,0.953,3.417v10.084
	C446.369,290.782,446.202,292.016,445.417,293.079z M431.233,289.941c0,0.447,1.178,1.289,1.85,1.682c0,0,0.112,0.057,0.336,0.057
	h5.157c0.112,0,0.224-0.057,0.336-0.113c0.505-0.278,1.794-1.176,1.85-1.623v-10.196c0-0.055,0-0.168-0.056-0.335
	c-0.336-0.561-1.177-1.4-1.85-1.793c-0.112-0.056-0.168-0.056-0.281-0.056h-5.155c-0.112,0-0.168,0-0.28,0.056
	c-0.673,0.393-1.458,1.121-1.85,1.793c-0.056,0.111-0.056,0.335-0.056,0.335L431.233,289.941L431.233,289.941z"/>
<path fill="#4B585C" d="M460.157,289.214c0,0,0,0.224,0.056,0.336c0.336,0.617,1.401,1.851,2.187,1.851h4.092v5.319h-4.148
	c-1.401,0-2.915-0.392-4.036-1.177c-0.897-0.615-2.243-2.127-2.691-2.744c-0.729-1.064-1.065-2.297-1.065-3.529v-11.425h-3.756
	v-5.323h3.756v-9.297h5.605v9.298h6.952v5.322h-6.952V289.214L460.157,289.214z"/>
<path fill="#4B585C" d="M492.164,293.079c-0.448,0.673-1.85,2.128-2.69,2.744c-1.121,0.782-2.69,1.177-4.093,1.177h-5.269
	c-1.402,0-2.915-0.395-4.036-1.177c-0.841-0.616-2.298-2.071-2.747-2.744c-0.785-1.063-0.953-2.297-0.953-3.416v-10.084
	c0-1.12,0.168-2.353,0.953-3.417c0.449-0.671,1.906-2.071,2.747-2.688c1.121-0.783,2.634-1.231,4.036-1.231h5.269
	c1.402,0,2.972,0.448,4.093,1.231c0.841,0.617,2.242,2.018,2.69,2.688c0.785,1.064,0.953,2.297,0.953,3.417v10.084
	C493.117,290.782,492.949,292.016,492.164,293.079z M477.981,289.941c0,0.447,1.178,1.289,1.85,1.682c0,0,0.112,0.057,0.336,0.057
	h5.158c0.112,0,0.224-0.057,0.336-0.113c0.504-0.278,1.794-1.176,1.85-1.623v-10.196c0-0.055,0-0.168-0.056-0.335
	c-0.336-0.561-1.178-1.4-1.85-1.793c-0.112-0.056-0.168-0.056-0.28-0.056h-5.158c-0.112,0-0.168,0-0.28,0.056
	c-0.673,0.393-1.458,1.121-1.851,1.793c-0.056,0.111-0.056,0.335-0.056,0.335L477.981,289.941L477.981,289.941z"/>
<path fill="#4B585C" d="M522.602,292.352c-1.458,1.961-3.98,4.648-7.119,4.648h-7.008c-1.232,0-2.578-0.448-3.476-1.008
	c-1.177-0.674-3.419-2.971-4.092-3.979s-0.897-2.128-0.897-3.191v-17.645c0-1.064,0.225-2.128,0.897-3.137
	c0.672-0.951,2.915-3.36,4.092-4.033c0.897-0.503,2.243-1.008,3.476-1.008h7.008c3.139,0,5.661,2.745,7.119,4.649
	c0.448,0.616,0.672,1.063,1.178,1.961l-5.719,1.623c0,0-1.682-2.072-2.522-2.576c-0.056-0.057-0.168-0.057-0.224-0.057h-6.615
	c-0.112,0-0.225,0.057-0.225,0.057c-0.729,0.393-1.962,1.568-2.521,2.464c-0.056,0.112-0.056,0.505-0.056,0.618
	c0,0.055,0,17.027,0,17.027c0,0.672,1.736,2.129,2.578,2.576c0.057,0.057,0.336,0.057,0.393,0.057h6.391c0.056,0,0.168,0,0.28-0.057
	c1.178-0.561,2.523-2.632,2.523-2.632l5.718,1.513C523.331,291.23,523.05,291.734,522.602,292.352z"/>
<path fill="#4B585C" d="M549.114,296.72v-13.833h-12.222v13.833h-5.886v-33.495h5.886v14.059h12.222v-14.059H555v33.495H549.114z"/>
</svg>
