<?xml version="1.0" encoding="UTF-8" standalone="no"?>
<!-- Created with Inkscape (http://www.inkscape.org/) -->

<svg
   xmlns:dc="http://purl.org/dc/elements/1.1/"
   xmlns:cc="http://creativecommons.org/ns#"
   xmlns:rdf="http://www.w3.org/1999/02/22-rdf-syntax-ns#"
   xmlns:svg="http://www.w3.org/2000/svg"
   xmlns="http://www.w3.org/2000/svg"
   xmlns:xlink="http://www.w3.org/1999/xlink"
   xmlns:sodipodi="http://sodipodi.sourceforge.net/DTD/sodipodi-0.dtd"
   xmlns:inkscape="http://www.inkscape.org/namespaces/inkscape"
   id="svg3215"
   version="1.1"
   inkscape:version="0.48.4 r9939"
   width="546"
   height="775"
   sodipodi:docname="Amerika_lines.svg">
  <metadata
     id="metadata3221">
    <rdf:RDF>
      <cc:Work
         rdf:about="">
        <dc:format>image/svg+xml</dc:format>
        <dc:type
           rdf:resource="http://purl.org/dc/dcmitype/StillImage" />
        <dc:title></dc:title>
      </cc:Work>
    </rdf:RDF>
  </metadata>
  <defs
     id="defs3219" />
  <sodipodi:namedview
     pagecolor="#ffffff"
     bordercolor="#666666"
     borderopacity="1"
     objecttolerance="10"
     gridtolerance="10"
     guidetolerance="10"
     inkscape:pageopacity="0"
     inkscape:pageshadow="2"
     inkscape:window-width="1920"
     inkscape:window-height="1025"
     id="namedview3217"
     showgrid="false"
     inkscape:zoom="9.7445161"
     inkscape:cx="265.08115"
     inkscape:cy="372.05875"
     inkscape:window-x="-3"
     inkscape:window-y="-3"
     inkscape:window-maximized="1"
     inkscape:current-layer="svg3215" />
  <image
     width="546"
     height="775"
     xlink:href="file:///home/beni/Dokumente/FotoCH/new/newscans/Amerika_lines.png"
     id="image3223"
     x="0"
     y="0" />
  <path
     style="fill:#000000"
     d="M 0,387.5 0,0 273,0 546,0 546,387.5 546,775 273,775 0,775 0,387.5 z m 545,0 L 545,1 273,1 1,1 1,387.5 1,774 l 272,0 272,0 0,-386.5 z m -246,120 c 0,-1.04762 1.05556,-1.5 3.5,-1.5 2.44444,0 3.5,0.45238 3.5,1.5 0,1.04762 -1.05556,1.5 -3.5,1.5 -2.44444,0 -3.5,-0.45238 -3.5,-1.5 z m -12.55385,-0.58713 c -1.0611,-1.7169 1.04432,-3.0997 4.17348,-2.74105 1.76417,0.20221 2.99066,0.99994 3.19514,2.07818 0.26506,1.39765 -0.37571,1.75 -3.18243,1.75 -1.93287,0 -3.81665,-0.48921 -4.18619,-1.08713 z m 24.23307,-0.30642 c -0.80458,-2.09671 4.02544,-6.30179 5.52078,-4.80645 0.89802,0.89802 0.61922,1.76353 -1.18756,3.68676 -2.69309,2.86667 -3.57536,3.09464 -4.33322,1.11969 z m -36.19824,-0.63722 c -1.09324,-1.76891 0.96981,-3.1605 4.1472,-2.79741 4.02007,0.4594 3.80271,3.23782 -0.28433,3.63454 -1.73588,0.1685 -3.47417,-0.20821 -3.86287,-0.83713 z M 263.75,504.32824 c -1.75351,-0.47584 -2.40845,-2.84831 -1,-3.62242 1.45753,-0.80108 7.38311,1.39496 6.98961,2.59038 -0.43055,1.30794 -3.20882,1.78665 -5.98961,1.03204 z m -12.5,-2.99052 C 249.21256,500.5156 249.82738,498 252.06574,498 c 2.79808,0 6.12697,1.87918 5.40325,3.05017 -0.61377,0.99311 -4.07394,1.1531 -6.21899,0.28755 z m 66.13542,-7.5148 c 0.77039,-3.85196 1.10209,-4.23356 3.03522,-3.49175 1.22355,0.46952 1.30728,1.15087 0.4453,3.62354 -1.4859,4.26246 -4.33778,4.15447 -3.48052,-0.13179 z M 320,480.91667 c 0,-1.75453 0.46329,-2.92891 1.075,-2.725 0.59125,0.19708 1.04125,0.68458 1,1.08333 C 322.0338,479.67375 322,480.9 322,482 c 0,1.1 -0.45,2 -1,2 -0.55,0 -1,-1.3875 -1,-3.08333 z m 4.48273,-6.94461 c -0.58785,-0.95116 3.14173,-4.86337 4.70825,-4.93879 1.70062,-0.0819 1.84749,2.26674 0.25199,4.02974 -1.92593,2.12814 -3.97474,2.50362 -4.96024,0.90905 z M 381,470.17431 c 0,-0.45412 1.13096,-1.88816 2.51324,-3.18675 1.91049,-1.79481 2.79221,-2.08211 3.67638,-1.19794 0.88416,0.88416 0.7239,1.64846 -0.66824,3.18675 C 384.71445,470.97301 381,471.77891 381,470.17431 z m -8.25,-2.39259 c -2.56371,-0.88414 -3.52442,-2.67396 -2.16499,-4.0334 0.99241,-0.99241 6.41499,1.36638 6.41499,2.79049 0,1.97017 -1.15865,2.30902 -4.25,1.24291 z m -38.08333,-0.44839 c -1.18949,-1.18949 -0.71487,-1.99034 1.88038,-3.17281 3.37383,-1.53722 4.45295,-1.46348 4.45295,0.3043 0,2.28358 -4.76162,4.44023 -6.33333,2.86851 z m 25.52488,-3.04672 c -3.25859,-0.62255 -2.47388,-3.87866 0.84944,-3.52473 3.93758,0.41936 4.96488,1.05924 4.33516,2.70027 -0.59632,1.55399 -1.01639,1.62079 -5.1846,0.82446 z m -14.02013,-1.96678 c 0.23515,-1.24054 1.40452,-1.92164 3.67354,-2.13966 2.76514,-0.26569 3.27019,-0.0118 2.98362,1.5 -0.23515,1.24054 -1.40452,1.92164 -3.67354,2.13966 -2.76514,0.26569 -3.27019,0.0118 -2.98362,-1.5 z m 39.25761,-3.74655 c -0.79241,-3.15722 0.14047,-5.88345 1.8215,-5.3231 1.60593,0.53531 1.6371,6.95394 0.0363,7.48753 -0.66721,0.2224 -1.50324,-0.75159 -1.85785,-2.16443 z m -2.49459,-12.24573 C 381.86909,443.52548 382.30182,441 383.84729,441 c 1.28553,0 3.48004,5.66135 2.69001,6.93964 -1.11951,1.81141 -2.5435,1.17425 -3.60286,-1.61209 z m -5.40707,-10.59194 C 376.68731,434.53627 376,432.98012 376,432.27749 c 0,-2.14717 2.67467,-1.42295 4.38499,1.18733 1.97602,3.01578 1.98205,3.18036 0.14238,3.88631 -0.85137,0.32669 -2.117,-0.35486 -3,-1.61552 z m -7.44035,-10.83177 c -1.97485,-2.67114 -2.01732,-2.99336 -0.47266,-3.5861 1.59694,-0.6128 5.38564,2.68375 5.38564,4.68606 0,2.17386 -2.98696,1.50511 -4.91298,-1.09996 z M 294.75,421.32824 c -0.9625,-0.26119 -1.75,-1.14406 -1.75,-1.96193 0,-1.10687 0.95872,-1.40769 3.75,-1.17668 2.52873,0.20929 3.75,0.79888 3.75,1.81037 0,1.54587 -2.67281,2.16329 -5.75,1.32824 z m 10.78101,-1.27807 C 304.87679,418.99162 308.03985,417 310.37524,417 c 2.1411,0 3.14053,2.05922 1.50288,3.09649 -1.83999,1.16543 -5.61524,1.13788 -6.34711,-0.0463 z M 283.75,418.83772 c -3.06258,-1.11855 -3.56097,-2.58929 -1.18623,-3.50056 2.37865,-0.91278 6.50753,1.31346 5.80953,3.13242 -0.66585,1.73519 -0.84195,1.74921 -4.6233,0.36814 z M 317.92349,418.25 c -0.0421,-0.4125 -0.23238,-1.57233 -0.42288,-2.57739 -0.23273,-1.22788 0.10994,-1.6523 1.04449,-1.29368 0.76497,0.29355 1.65682,0.10338 1.98189,-0.4226 0.91752,-1.48457 3.47301,-1.12625 3.47301,0.48697 0,2.24085 -5.86164,5.91295 -6.07651,3.8067 z m 44.1528,-1.19246 c -2.9295,-2.20972 -2.29289,-5.77901 0.74112,-4.15526 3.20627,1.71594 4.3842,3.68551 2.9273,4.89463 -0.93001,0.77184 -1.93296,0.5697 -3.66842,-0.73937 z M 271.26665,414.975 c -3.28934,-1.32294 -1.88388,-4.34298 1.61889,-3.47863 3.25479,0.80316 4.54232,2.00231 3.66831,3.4165 -0.79051,1.27908 -2.21963,1.29587 -5.2872,0.0621 z m -12.28671,-4.49917 c -0.69572,-0.83829 -1.03823,-1.75088 -0.76113,-2.02797 0.79338,-0.79339 5.78119,1.38716 5.78119,2.52739 0,1.57337 -3.59676,1.21555 -5.02006,-0.49942 z m 92.76619,-0.10086 c -2.81637,-1.47565 -3.45519,-2.81871 -1.82107,-3.82866 1.34353,-0.83034 6.07494,1.54916 6.07494,3.05519 0,2.06876 -1.3227,2.30926 -4.25387,0.77347 z M 321,405.55902 c 0,-2.90863 1.86708,-4.37814 3.09649,-2.43714 C 325.6591,405.58894 325.11715,408 323,408 c -1.45377,0 -2,-0.66667 -2,-2.44098 z m 18.08048,0.35905 c -1.68644,-0.6824 -2.10208,-1.29647 -1.37182,-2.02673 1.53479,-1.53479 6.79134,-0.68728 6.79134,1.09496 0,1.84009 -2.22807,2.22316 -5.41952,0.93177 z M 325.5,404 c -0.96244,-1.55725 0.39685,-3.00155 2.80902,-2.98469 2.92309,0.0204 5.11107,1.49595 4.26008,2.87289 -0.85502,1.38344 -6.23064,1.46846 -7.0691,0.1118 z m -72.68388,-2.50423 c -1.5881,-3.4855 -0.0798,-4.48708 2.23004,-1.48083 2.32359,3.02417 2.42785,3.98506 0.4324,3.98506 -0.83679,0 -2.03489,-1.1269 -2.66244,-2.50423 z M 243,396.71152 c 0,-1.92857 3.633,-5.05637 4.93699,-4.25046 1.71779,1.06165 1.25099,1.99668 -1.93699,3.87987 -2.39673,1.41578 -3,1.4903 -3,0.37059 z m -4.33333,-1.37819 C 237.64486,394.31153 237.87492,389 238.94098,389 c 1.16868,0 1.60609,0.76195 2.43981,4.25 0.63426,2.65354 -0.93747,3.85998 -2.71412,2.08333 z m -20,-6 C 217.23309,387.89976 218.13285,387 221,387 c 2,0 3,0.5 3,1.5 0,1.51356 -4.02431,2.14236 -5.33333,0.83333 z M 209.25,385.72313 C 207.36601,384.86172 205.98473,382 207.45295,382 c 1.2221,0 5.54705,2.41819 5.54705,3.1015 0,1.42069 -1.46958,1.6643 -3.75,0.62163 z m 19.75,0.26156 c -1.27957,-0.83999 -1.29269,-1.11817 -0.0893,-1.89302 1.62573,-1.04679 5.30385,0.0519 5.87114,1.75383 0.47055,1.41163 -3.69088,1.51181 -5.78183,0.13919 z m -58.33333,-2.65136 C 168.88615,381.55282 170.20605,380 173.5,380 c 2.83333,0 3.5,0.38095 3.5,2 0,1.52941 -0.66667,2 -2.83333,2 -1.55834,0 -3.13334,-0.3 -3.5,-0.66667 z M 182,382.55902 c 0,-2.11371 1.66062,-2.79247 5.0244,-2.05366 C 191.57396,381.50461 190.84248,384 186,384 c -2.81608,0 -4,-0.4265 -4,-1.44098 z M 195.24368,382.75 C 195.72397,381.28693 202,380.42305 202,381.82001 c 0,0.93494 -3.24441,2.13982 -5.83333,2.16634 -0.73334,0.008 -1.14868,-0.54885 -0.92299,-1.23635 z m -49.79753,-0.83713 c -1.0611,-1.7169 1.04432,-3.0997 4.17348,-2.74105 1.76417,0.20221 2.99066,0.99994 3.19514,2.07818 0.26506,1.39765 -0.37571,1.75 -3.18243,1.75 -1.93287,0 -3.81665,-0.48921 -4.18619,-1.08713 z M 158,381.5 c 0,-1.04762 1.05556,-1.5 3.5,-1.5 2.44444,0 3.5,0.45238 3.5,1.5 0,1.04762 -1.05556,1.5 -3.5,1.5 -2.44444,0 -3.5,-0.45238 -3.5,-1.5 z M 382.53964,275.65264 c -1.16915,-0.8549 -1.45243,-1.58851 -0.77505,-2.00715 1.4913,-0.92167 6.49256,1.12941 5.73657,2.35264 -0.8566,1.386 -2.77639,1.25232 -4.96152,-0.34549 z m 10.6785,-1.8257 c 0.23985,-0.72982 1.68794,-1.47406 3.21796,-1.65388 1.96067,-0.23043 2.65312,0.0648 2.34576,1 -0.23985,0.72982 -1.68794,1.47406 -3.21796,1.65388 -1.96067,0.23043 -2.65312,-0.0648 -2.34576,-1 z m -72.67543,-0.75784 c -0.77456,-1.25326 0.45124,-1.87326 3.37446,-1.70677 3.6687,0.20895 3.87604,2.63767 0.22518,2.63767 -1.66337,0 -3.28321,-0.41891 -3.59964,-0.9309 z M 405,272 c 0,-1.61905 0.66667,-2 3.5,-2 3.67892,0 4.9413,2.23295 1.91821,3.39301 C 407.22625,274.61788 405,274.04552 405,272 z m 12.18487,-1.75 C 417.61414,267.98392 424,267.12154 424,269.32965 424,270.92901 421.93246,272 418.84489,272 c -1.35633,0 -1.8858,-0.55817 -1.66002,-1.75 z m 12.1463,-1.82936 c -0.74181,-1.93313 -0.36021,-2.26483 3.49175,-3.03522 4.28626,-0.85726 4.39425,1.99462 0.13179,3.48052 -2.47267,0.86198 -3.15402,0.77825 -3.62354,-0.4453 z m -51.84496,-2.48342 c -0.37209,-1.69413 -0.43865,-3.31812 -0.1479,-3.60886 1.05929,-1.0593 2.66169,0.8501 2.66169,3.17164 0,3.62003 -1.74795,3.92405 -2.51379,0.43722 z m -47.877,1.23949 C 328.75762,265.7988 331.05547,262 332.74055,262 c 1.71963,0 1.54989,1.06444 -0.6197,3.88603 -1.16324,1.51283 -2.08242,1.98517 -2.51164,1.29068 z m -13.21025,-3.72328 c -0.35154,-1.40061 -0.33564,-2.85008 0.0353,-3.22104 0.8689,-0.8689 2.53055,1.74867 2.55041,4.01761 0.0233,2.66666 -1.86232,2.08576 -2.58573,-0.79657 z M 441,264.11663 c 0,-1.73786 2.46311,-3.06707 5.75,-3.10298 2.28781,-0.025 1.28915,3.02097 -1.3151,4.0111 -3.64998,1.38772 -4.4349,1.227 -4.4349,-0.90812 z m 11.71989,-3.73008 c -1.3153,-1.31529 -0.7499,-2.13148 2.37247,-3.42481 2.57813,-1.06789 3.23637,-1.04788 3.95836,0.12032 0.4763,0.77067 0.54724,1.71064 0.15764,2.08882 -1.17046,1.13615 -5.71629,1.98785 -6.48847,1.21567 z m -78.75179,-5.97047 c -1.27981,-3.36614 -0.12074,-5.34531 1.68454,-2.87644 1.58968,2.17401 1.78384,5.46036 0.32261,5.46036 -0.56361,0 -1.46683,-1.16276 -2.00715,-2.58392 z M 333.77939,254.25 c -0.6474,-2.49615 0.14119,-4.25 1.91093,-4.25 0.97853,0 1.30649,0.56592 0.91667,1.58179 -0.33385,0.86998 -0.60699,2.21998 -0.60699,3 0,2.01276 -1.67754,1.76211 -2.22061,-0.33179 z m 129.88728,1.08333 C 463.3,254.96667 463,254.30322 463,253.85901 c 0,-1.13687 5.61259,-3.91309 6.37322,-3.15246 1.31815,1.31815 0.52879,3.01707 -1.92027,4.13293 -2.98695,1.36095 -2.92701,1.35313 -3.78628,0.49385 z M 312.18195,251.5 c -0.92861,-2.03808 -0.87238,-2.5 0.30431,-2.5 1.26302,0 3.51374,2.84036 3.51374,4.43426 0,1.65317 -2.83877,0.21502 -3.81805,-1.93426 z m 162.45517,-2.19621 c -1.20508,-1.20509 -0.56959,-2.80719 1.79517,-4.5257 1.99197,-1.44759 2.55115,-1.50297 3.51002,-0.3476 0.89738,1.08127 0.5213,1.81526 -1.76375,3.44236 -1.59737,1.13743 -3.19102,1.78136 -3.54144,1.43094 z m -107.92067,-3.94437 c -1.52668,-0.79991 -2.51088,-1.88302 -2.1871,-2.4069 0.86218,-1.39505 1.97168,-1.17715 4.5222,0.88814 2.91678,2.36186 1.29153,3.41894 -2.3351,1.51876 z m -63.27375,-1.77766 c -1.06675,-0.78003 -1.66091,-1.69688 -1.32035,-2.03744 0.78165,-0.78166 5.87765,1.48661 5.87765,2.6162 0,1.29884 -2.40768,0.99308 -4.5573,-0.57876 z m 30.90064,-1.73089 c 0.34614,-1.29298 0.6355,-2.68837 0.64301,-3.10087 0.008,-0.4125 0.59101,-0.75 1.29667,-0.75 2.06945,0 1.36039,5.43842 -0.76283,5.85087 -1.45795,0.28321 -1.68486,-0.10241 -1.17685,-2 z m 19.35132,0.44915 c -1.67217,-0.43346 -2.04495,-2.54315 -0.41966,-2.37502 0.39875,0.0412 1.85,0.075 3.225,0.075 1.55556,0 2.5,0.56667 2.5,1.5 0,1.47149 -1.71646,1.73033 -5.30534,0.80002 z m 129.96286,-0.97583 C 482.77378,240.44044 486.95785,236 488.67431,236 c 1.90989,0 1.63036,2.4143 -0.50305,4.34501 -1.94599,1.7611 -3.41348,2.07944 -4.51374,0.97918 z m -191.11788,-3.67155 c -1.25173,-0.91529 -1.47999,-1.57147 -0.7118,-2.04624 1.31042,-0.80988 5.17216,1.00355 5.17216,2.42878 0,1.38631 -2.31256,1.18798 -4.46036,-0.38254 z m 50.90306,-1.07088 c -1.06675,-0.78003 -1.60466,-1.75313 -1.19535,-2.16244 0.94419,-0.94419 5.75265,1.195 5.75265,2.55924 0,1.46012 -2.29056,1.26068 -4.5573,-0.3968 z M 493,232.67431 c 0,-0.72912 1.11326,-2.37153 2.4739,-3.64979 2.20689,-2.07327 2.54378,-2.14203 3.12128,-0.63707 0.37987,0.98991 -0.0866,2.49811 -1.12889,3.6498 C 495.43252,234.28454 493,234.63151 493,232.67431 z m -210.427,-1.19578 c -1.05985,-0.80183 -1.62425,-1.76061 -1.25423,-2.13064 1.00532,-1.00531 5.89235,1.5015 5.1786,2.65636 -0.81869,1.32467 -1.62051,1.21726 -3.92437,-0.52572 z m -168.9525,-6.93497 c -1.94433,-2.96741 -0.20374,-4.68933 1.91423,-1.8937 1.65416,2.18343 1.78359,3.03537 0.57465,3.78254 -0.48983,0.30273 -1.60983,-0.54724 -2.48888,-1.88884 z M 272.5,225.82211 c -2.76923,-1.54671 -2.77963,-1.56065 -2.04799,-2.74446 0.71798,-1.16171 5.54799,1.48259 5.54799,3.03736 0,1.16328 -1.05022,1.07539 -3.5,-0.2929 z m 229.01746,-1.79386 C 500.82452,222.90705 503.7785,218 505.14639,218 c 1.84766,0 2.0464,3.12948 0.3199,5.03725 -1.97025,2.1771 -3.04854,2.44771 -3.94883,0.991 z M 83,220.86024 c 0,-1.16355 2.89452,-3.77096 4.25,-3.82844 1.569694,-0.0666 0.663089,2.94435 -1.184259,3.93302 C 83.592267,222.28858 83,222.26838 83,220.86024 z m 178.59265,-1.79946 c -1.88431,-1.23609 -2.39833,-2.06284 -1.59227,-2.56102 1.25418,-0.77512 5.99962,1.28944 5.99962,2.6102 0,1.70142 -1.7688,1.68168 -4.40735,-0.0492 z M 74.25,217.72313 C 72.366008,216.86172 70.984735,214 72.452947,214 73.675048,214 78,216.41819 78,217.1015 c 0,1.42069 -1.469584,1.6643 -3.75,0.62163 z m 30.88824,-1.33886 c -1.48434,-1.03967 -1.96224,-1.96027 -1.34041,-2.5821 1.18101,-1.18101 5.20217,1.09029 5.20217,2.93838 0,1.68678 -1.08823,1.58638 -3.86176,-0.35628 z m 403.55797,-2.02139 c -0.35042,-0.35042 0.29351,-1.94407 1.43094,-3.54144 1.62003,-2.27512 2.36385,-2.65883 3.43342,-1.77117 1.14733,0.9522 1.11338,1.51772 -0.21262,3.54144 -1.54145,2.35255 -3.37299,3.04992 -4.65174,1.77117 z M 92,212.60699 C 92,211.48811 92.91123,211 95,211 c 1.65,0 3,0.45 3,1 0,0.55 -0.638196,1 -1.418213,1 -0.780016,0 -2.130016,0.27314 -3,0.60699 C 92.543804,214.0053 92,213.66151 92,212.60699 z m 159.13824,-0.22272 c -1.48434,-1.03967 -1.96224,-1.96027 -1.34041,-2.5821 1.18101,-1.18101 5.20217,1.09029 5.20217,2.93838 0,1.68678 -1.08823,1.58638 -3.86176,-0.35628 z M 63.972042,209.97578 c -1.747941,-1.32069 -2.160601,-2.18041 -1.408798,-2.93503 0.752771,-0.7556 1.723749,-0.36416 3.325205,1.34051 2.806577,2.98746 1.436215,4.12765 -1.916407,1.59452 z m 176.888738,-4.90149 c -2.14022,-1.74579 -2.19609,-1.98981 -0.59805,-2.61187 1.98249,-0.77171 4.73727,1.06589 4.73727,3.16002 0,1.90276 -1.35447,1.72339 -4.13922,-0.54815 z m 274.84577,-0.70107 c -0.8028,-0.8028 2.04666,-6.37322 3.26011,-6.37322 1.69837,0 2.0656,1.83509 0.88553,4.42506 -1.12699,2.47347 -2.82322,3.27058 -4.14564,1.94816 z M 55.833949,200.64176 c -2.546936,-3.50902 -0.650334,-5.49508 2.01354,-2.10852 1.168893,1.48601 1.879835,3.09894 1.579869,3.5843 -0.857061,1.38675 -1.795431,1.00137 -3.593409,-1.47578 z M 231.09911,197.6055 c -1.23724,-1.31698 -1.83901,-2.64821 -1.33728,-2.9583 1.2788,-0.79034 5.23817,2.16473 5.23817,3.9095 0,2.10044 -1.34128,1.77337 -3.90089,-0.9512 z m 291.15213,-3.75426 c -0.865,-0.865 -0.78456,-1.85302 0.32568,-4 1.51791,-2.9353 2.85509,-3.57929 3.90493,-1.88061 0.50495,0.81703 -1.97626,7.02937 -2.80753,7.02937 -0.15088,0 -0.79126,-0.51694 -1.42308,-1.14876 z m -300.59625,-3.67998 c -1.71348,-1.89337 -2.21711,-4.1962 -0.90499,-4.13799 1.29184,0.0573 5.25,3.73426 5.25,4.87702 0,1.70652 -2.51967,1.27795 -4.34501,-0.73903 z M 52,187.91667 c 0,-3.82597 2.355544,-3.48268 2.816422,0.41045 C 55.040671,190.22139 54.676545,191 53.566422,191 52.483212,191 52,190.04885 52,187.91667 z m 160.65499,-5.74541 C 210.64884,179.95449 210.55554,179 212.34501,179 c 1.70891,0 4.87994,3.44172 3.99051,4.33115 -1.06369,1.06369 -1.90942,0.79716 -3.68053,-1.15989 z m 315.01168,1.16207 c -1.10734,-1.10733 -0.75281,-3.83436 0.76601,-5.8922 1.07184,-1.45223 1.72293,-1.65524 2.5851,-0.80603 0.86891,0.85585 0.75615,1.90139 -0.45836,4.25 -1.72852,3.34259 -1.87469,3.4663 -2.89275,2.44823 z M 52.369714,176.75 c 0.331637,-1.2375 0.609121,-2.5875 0.616631,-3 C 52.993855,173.3375 53.45,173 54,173 c 0.55,0 1,1.35 1,3 0,2.09619 -0.487041,3 -1.616631,3 -1.1885,0 -1.456946,-0.59587 -1.013655,-2.25 z m 151.484446,-2.68438 c -1.67149,-1.36582 -2.04584,-2.23806 -1.29092,-3.00788 0.76028,-0.77528 1.7078,-0.39814 3.32521,1.32352 2.80569,2.98653 1.19321,4.32164 -2.03429,1.68436 z M 532,170.04705 C 532,168.34938 534.29579,164 535.1919,164 c 1.52336,0 2.00166,2.76981 0.84992,4.92186 C 534.92366,171.01117 532,171.82508 532,170.04705 z M 56,166.69113 c 0,-2.13776 2.606108,-5.0526 3.837181,-4.29176 0.819813,0.50667 0.689515,1.39335 -0.463306,3.15278 C 57.627486,168.21747 56,168.76689 56,166.69113 z m 68.25,-0.35341 c -0.6875,-0.27741 -1.25,-1.10297 -1.25,-1.83457 0,-1.66325 5.16867,-0.49713 5.76817,1.30137 0.39717,1.1915 -2.14364,1.49134 -4.51817,0.5332 z M 135,165.53031 c 0,-1.61423 4.5271,-3.94061 5.95321,-3.05923 0.823,0.50865 0.84119,1.07173 0.0648,2.00721 C 139.5431,166.25546 135,167.04965 135,165.53031 z m 59.58984,-0.43103 c -1.19947,-1.32541 -1.37865,-2.11177 -0.59197,-2.59796 1.14598,-0.70826 5.00213,2.10836 5.00213,3.65367 0,1.52129 -2.65267,0.88628 -4.41016,-1.05571 z M 114.25,161.72313 C 112.36601,160.86172 110.98473,158 112.45295,158 c 1.2221,0 5.54705,2.41819 5.54705,3.1015 0,1.42069 -1.46958,1.6643 -3.75,0.62163 z m 31.29271,-1.65403 c -0.7433,-1.20268 0.35681,-1.73974 3.36958,-1.64498 3.66577,0.11531 3.88553,2.57588 0.23006,2.57588 -1.66337,0 -3.28321,-0.41891 -3.59964,-0.9309 z M 158,160 c 0,-0.55 1.35,-1 3,-1 1.65,0 3,0.45 3,1 0,0.55 -1.35,1 -3,1 -1.65,0 -3,-0.45 -3,-1 z m 12,0 c 0,-0.55 1.575,-1 3.5,-1 1.925,0 3.5,0.45 3.5,1 0,0.55 -1.575,1 -3.5,1 -1.925,0 -3.5,-0.45 -3.5,-1 z m 13,0 c 0,-0.55 1.35,-1 3,-1 1.65,0 3,0.45 3,1 0,0.55 -1.35,1 -3,1 -1.65,0 -3,-0.45 -3,-1 z M 64.59977,158.26644 c -1.120593,-1.1206 -0.604949,-1.94305 1.947283,-3.10592 C 69.763962,153.69479 70,153.70703 70,155.33948 c 0,1.47532 -4.443478,3.88371 -5.40023,2.92696 z M 100,156.43358 c 0,-1.11013 0.77861,-1.47425 2.67288,-1.25 C 106.56601,155.64446 106.9093,158 103.08333,158 100.95115,158 100,157.51679 100,156.43358 z m -12,-2.05021 c 0,-1.1885 0.595866,-1.45695 2.25,-1.01366 1.2375,0.33164 2.5875,0.60913 3,0.61664 0.4125,0.008 0.75,0.46365 0.75,1.01365 0,0.55 -1.35,1 -3,1 -2.096193,0 -3,-0.48704 -3,-1.61663 z m -12.306147,-0.0229 C 74.483647,153.15031 76.123538,152 79.059017,152 81.006557,152 82,152.50669 82,153.5 c 0,1.51241 -4.975336,2.19133 -6.306147,0.86052 z"
     id="path3227"
     inkscape:connector-curvature="0" />
</svg>
