<?xml version="1.0" encoding="utf-8"?>
<!-- Generator: Adobe Illustrator 15.0.0, SVG Export Plug-In  -->
<!DOCTYPE svg PUBLIC "-//W3C//DTD SVG 1.1//EN" "http://www.w3.org/Graphics/SVG/1.1/DTD/svg11.dtd" [
	<!ENTITY ns_flows "http://ns.adobe.com/Flows/1.0/">
]>
<svg version="1.1"
	 xmlns="http://www.w3.org/2000/svg" xmlns:xlink="http://www.w3.org/1999/xlink" xmlns:a="http://ns.adobe.com/AdobeSVGViewerExtensions/3.0/"
	 x="0px" y="0px" width="65px" height="15px" viewBox="-1.021 0 65 15" overflow="visible" enable-background="new -1.021 0 65 15"
	 xml:space="preserve">
<defs>
</defs>
<path fill="#FFFFFF" d="M4.89,2.242c-0.02,0-0.188,0-0.212,0.025C4.465,2.386,3.971,2.761,3.947,2.974c0,0.074,0,0.262,0,1.042H6.52
	v2.243H3.947v7.958H1.585V6.258H0V4.016h1.585V3.117c0-0.494,0.094-1.013,0.425-1.462C2.198,1.393,2.766,0.78,3.142,0.519
	C3.616,0.188,4.277,0,4.87,0h2.218v2.242H4.89L4.89,2.242z"/>
<path fill="#FFFFFF" d="M17.037,12.68c-0.188,0.282-0.78,0.899-1.131,1.156c-0.474,0.331-1.136,0.499-1.729,0.499h-2.218
	c-0.593,0-1.23-0.168-1.705-0.499c-0.355-0.257-0.968-0.874-1.156-1.156c-0.331-0.449-0.405-0.968-0.405-1.442V6.989
	c0-0.474,0.074-0.993,0.405-1.442c0.188-0.281,0.8-0.869,1.156-1.131c0.475-0.331,1.112-0.519,1.705-0.519h2.218
	c0.593,0,1.255,0.188,1.724,0.519c0.355,0.262,0.948,0.85,1.136,1.131c0.331,0.45,0.4,0.968,0.4,1.442v4.248
	C17.437,11.712,17.368,12.23,17.037,12.68z M11.06,11.356c0,0.188,0.494,0.543,0.781,0.711c0,0,0.044,0.024,0.138,0.024h2.173
	c0.049,0,0.099-0.024,0.144-0.049c0.212-0.119,0.756-0.494,0.78-0.687V7.059c0-0.02,0-0.069-0.024-0.139
	c-0.144-0.237-0.494-0.592-0.781-0.755C14.226,6.14,14.201,6.14,14.152,6.14h-2.173c-0.044,0-0.069,0-0.114,0.025
	c-0.286,0.163-0.617,0.469-0.78,0.755C11.06,6.965,11.06,7.059,11.06,7.059V11.356L11.06,11.356z"/>
<path fill="#FFFFFF" d="M23.251,11.05c0,0,0,0.094,0.024,0.144c0.139,0.257,0.588,0.78,0.919,0.78h1.729v2.242h-1.749
	c-0.593,0-1.23-0.168-1.705-0.499c-0.375-0.257-0.943-0.894-1.131-1.155c-0.312-0.449-0.45-0.969-0.45-1.487V6.258h-1.585V4.016
	h1.585V0.094h2.361v3.922h2.929v2.243h-2.929V11.05L23.251,11.05z"/>
<path fill="#FFFFFF" d="M36.741,12.68c-0.188,0.282-0.78,0.899-1.131,1.156c-0.475,0.331-1.137,0.499-1.729,0.499h-2.218
	c-0.593,0-1.23-0.168-1.704-0.499c-0.351-0.257-0.968-0.874-1.156-1.156c-0.331-0.449-0.4-0.968-0.4-1.442V6.989
	c0-0.474,0.069-0.993,0.4-1.442c0.188-0.281,0.805-0.869,1.156-1.131c0.474-0.331,1.111-0.519,1.704-0.519h2.218
	c0.593,0,1.255,0.188,1.729,0.519c0.351,0.262,0.943,0.85,1.131,1.131c0.331,0.45,0.405,0.968,0.405,1.442v4.248
	C37.146,11.712,37.072,12.23,36.741,12.68z M30.764,11.356c0,0.188,0.494,0.543,0.78,0.711c0,0,0.044,0.024,0.139,0.024h2.178
	c0.045,0,0.094-0.024,0.139-0.049c0.212-0.119,0.756-0.494,0.78-0.687V7.059c0-0.02,0-0.069-0.024-0.139
	c-0.139-0.237-0.494-0.592-0.776-0.755C33.931,6.14,33.906,6.14,33.861,6.14h-2.178c-0.044,0-0.069,0-0.114,0.025
	c-0.287,0.163-0.618,0.469-0.78,0.755c-0.025,0.045-0.025,0.139-0.025,0.139V11.356L30.764,11.356z"/>
<path fill="#FFFFFF" d="M49.574,12.374c-0.617,0.824-1.68,1.961-3.003,1.961h-2.954c-0.519,0-1.087-0.193-1.467-0.425
	c-0.494-0.287-1.438-1.255-1.725-1.68c-0.281-0.425-0.375-0.899-0.375-1.344V3.448c0-0.45,0.094-0.899,0.375-1.324
	c0.287-0.4,1.23-1.413,1.725-1.699C42.53,0.212,43.099,0,43.617,0h2.954c1.323,0,2.386,1.156,3.003,1.961
	c0.188,0.257,0.282,0.449,0.494,0.825l-2.41,0.687c0,0-0.707-0.874-1.062-1.086c-0.024-0.025-0.069-0.025-0.094-0.025h-2.791
	c-0.044,0-0.094,0.025-0.094,0.025c-0.307,0.163-0.825,0.662-1.062,1.037C42.53,3.472,42.53,3.635,42.53,3.685
	c0,0.025,0,7.178,0,7.178c0,0.281,0.731,0.894,1.087,1.087c0.024,0.02,0.144,0.02,0.168,0.02h2.692c0.024,0,0.069,0,0.118-0.02
	c0.499-0.237,1.062-1.111,1.062-1.111l2.41,0.637C49.881,11.899,49.762,12.112,49.574,12.374z"/>
<path fill="#FFFFFF" d="M60.748,14.216V8.383h-5.152v5.833h-2.479V0.094h2.479v5.928h5.152V0.094h2.479v14.122H60.748z"/>
</svg>
