<?xml version="1.0" encoding="utf-8"?>
<!-- Generator: Adobe Illustrator 15.0.0, SVG Export Plug-In . SVG Version: 6.00 Build 0)  -->
<!DOCTYPE svg PUBLIC "-//W3C//DTD SVG 1.1//EN" "http://www.w3.org/Graphics/SVG/1.1/DTD/svg11.dtd">
<svg version="1.1" id="Ebene_1" xmlns="http://www.w3.org/2000/svg" xmlns:xlink="http://www.w3.org/1999/xlink" x="0px" y="0px"
	 width="25px" height="25px" viewBox="0 0 25 25" enable-background="new 0 0 25 25" xml:space="preserve">
<path fill="#B1B1B1" d="M20.834,8.333C20.834,3.723,17.111,0,12.5,0S4.167,3.723,4.167,8.333c0,4.362,3.361,7.946,7.639,8.306v3.499
	H8.333v1.39h3.473V25h1.389v-3.472h3.472v-1.39h-3.472V16.64C17.473,16.279,20.834,12.695,20.834,8.333z M5.556,8.333
	c0-3.833,3.111-6.944,6.944-6.944c3.833,0,6.945,3.111,6.945,6.944s-3.112,6.945-6.945,6.945C8.667,15.278,5.556,12.167,5.556,8.333
	z"/>
</svg>
