<?xml version="1.0" encoding="UTF-8" standalone="no"?>
<!-- Created with Inkscape (http://www.inkscape.org/) -->

<svg
   xmlns:dc="http://purl.org/dc/elements/1.1/"
   xmlns:cc="http://creativecommons.org/ns#"
   xmlns:rdf="http://www.w3.org/1999/02/22-rdf-syntax-ns#"
   xmlns:svg="http://www.w3.org/2000/svg"
   xmlns="http://www.w3.org/2000/svg"
   xmlns:sodipodi="http://sodipodi.sourceforge.net/DTD/sodipodi-0.dtd"
   xmlns:inkscape="http://www.inkscape.org/namespaces/inkscape"
   id="svg3295"
   version="1.1"
   inkscape:version="0.48.4 r9939"
   width="698.5"
   height="832"
   sodipodi:docname="Afrika_lxn.svg">
  <metadata
     id="metadata3301">
    <rdf:RDF>
      <cc:Work
         rdf:about="">
        <dc:format>image/svg+xml</dc:format>
        <dc:type
           rdf:resource="http://purl.org/dc/dcmitype/StillImage" />
        <dc:title></dc:title>
      </cc:Work>
    </rdf:RDF>
  </metadata>
  <defs
     id="defs3299" />
  <sodipodi:namedview
     pagecolor="#ffffff"
     bordercolor="#666666"
     borderopacity="1"
     objecttolerance="10"
     gridtolerance="10"
     guidetolerance="10"
     inkscape:pageopacity="0"
     inkscape:pageshadow="2"
     inkscape:window-width="1362"
     inkscape:window-height="1048"
     id="namedview3297"
     showgrid="false"
     inkscape:zoom="0.93147721"
     inkscape:cx="599.29995"
     inkscape:cy="231.92096"
     inkscape:window-x="0"
     inkscape:window-y="0"
     inkscape:window-maximized="0"
     inkscape:current-layer="svg3295" />
  <path
     id="path3954"
     style="fill:#ff0000"
     d="m 389.6488,664.393 c -0.7918,-1.351 -0.7996,-1.5332 -0.086,-1.9981 0.7894,-0.5146 6.9394,-3.1449 7.3531,-3.1449 0.5442,0 1.5004,2.181 1.1793,2.69 -0.1456,0.2308 -1.4086,0.9408 -2.8068,1.5779 -1.3981,0.637 -2.7469,1.3435 -2.9972,1.5701 -0.2504,0.2266 -0.8013,0.412 -1.2243,0.412 -0.6453,0 -0.8735,-0.1782 -1.4178,-1.107 z m -12.0439,-0.5434 C 374.723,662.3254 373.9638,662 373.29,662 c -0.7975,0 -1.3012,-0.4798 -1.7843,-1.7 -0.4152,-1.0484 0.024,-2.05 0.8993,-2.05 2.0348,0 7.2013,2.4242 8.0112,3.7591 0.3529,0.5816 0.3401,0.7016 -0.1666,1.5605 -0.6511,1.1034 -1.0148,1.142 -2.6447,0.28 z m 63.6887,-1.9282 c -0.6051,-0.6441 -0.7072,-1.6225 -0.2311,-2.2143 0.1719,-0.2136 1.2125,-0.8745 2.3125,-1.4686 1.1,-0.5941 2.547,-1.4533 3.2156,-1.9093 0.6685,-0.4561 1.4126,-0.8292 1.6535,-0.8292 0.5689,0 1.8187,1.7954 1.6165,2.3223 -0.3521,0.9176 -6.4719,4.6777 -7.6132,4.6777 -0.2256,0 -0.6548,-0.2604 -0.9538,-0.5786 z m -81.1686,-0.8442 c -0.4125,-0.2216 -1.2456,-0.8373 -1.8514,-1.3683 -0.7131,-0.625 -1.4503,-1.0212 -2.0911,-1.1237 -0.8571,-0.137 -1.052,-0.2956 -1.4556,-1.1842 -0.5242,-1.1544 -0.6065,-2.0414 -0.2118,-2.2853 0.1458,-0.09 0.8274,-0.1941 1.5146,-0.2312 0.9538,-0.051 1.4385,0.063 2.0474,0.4814 3.3478,2.3023 4.37,3.0322 4.8652,3.4741 l 0.5674,0.5062 -1.0569,1.0769 c -1.1771,1.1994 -1.2659,1.2244 -2.3278,0.6541 z m 162.1814,-2.9034 c -0.925,-0.801 -2.1552,-1.5683 -3.1064,-1.9375 -1.5195,-0.5897 -1.5778,-0.645 -1.6536,-1.5662 -0.096,-1.1651 0.1604,-1.5031 1.4278,-1.8828 0.6962,-0.2086 1.1329,-0.5524 1.5071,-1.1868 0.5075,-0.8601 0.566,-0.8866 1.5853,-0.7185 1.5323,0.2527 1.7188,0.481 1.5336,1.8772 -0.1575,1.1871 -0.1527,1.197 1.3709,2.8347 1.7453,1.8761 1.9859,2.7992 0.9127,3.5024 -1.1062,0.7248 -1.9166,0.5158 -3.5774,-0.9225 z m -183.4708,0.6403 c -2.7691,-0.1 -3.0211,-0.2882 -2.6879,-2.0127 l 0.2273,-1.1764 2.125,-0.069 c 1.1688,-0.038 3.0813,0.018 4.25,0.125 l 2.125,0.1944 0.077,1.3514 c 0.052,0.9118 -0.029,1.4187 -0.25,1.5586 -0.3165,0.2008 -0.9904,0.2041 -5.8663,0.029 z M 321.25,658.2676 c -1.7187,-0.078 -3.2656,-0.2336 -3.4375,-0.3448 -0.18,-0.1166 -0.3125,-0.7221 -0.3125,-1.4288 0,-1.7321 0.2406,-1.8164 4.5775,-1.6035 1.9511,0.096 3.7444,0.276 3.985,0.4006 0.3238,0.1676 0.4375,0.5362 0.4375,1.4177 0,1.3988 -0.319,1.8077 -1.3625,1.7463 -0.4194,-0.025 -2.1687,-0.1091 -3.8875,-0.1875 z m 104.5019,-0.1641 c -1.7734,-0.3168 -1.9709,-0.4687 -2.1652,-1.666 -0.1302,-0.8026 -0.07,-0.9335 0.5902,-1.2747 0.5936,-0.3069 1.3827,-0.3546 4.0918,-0.2471 4.4624,0.177 5.1408,0.3544 5.2919,1.3837 0.095,0.6486 -0.024,0.9239 -0.6477,1.4934 -0.7389,0.6748 -0.8457,0.6962 -3.2028,0.6401 -1.3411,-0.032 -3.1223,-0.1801 -3.9583,-0.3294 z M 286.25,657.5677 c -1.5331,-0.098 -2,-0.479 -2,-1.6319 0,-1.5049 0.2938,-1.6858 2.7384,-1.6858 1.2214,0 2.3987,0.068 2.6162,0.1518 0.5003,0.192 0.5736,2.8082 0.083,2.9616 -0.6471,0.2023 -2.1092,0.2891 -3.4375,0.2043 z m 18.75,-0.125 c -0.3437,-0.1573 -1.4121,-0.6586 -2.3741,-1.1143 -0.962,-0.4556 -1.8876,-0.8284 -2.0568,-0.8284 -0.4114,0 -0.974,-0.9385 -1.1554,-1.9278 -0.3145,-1.714 1.283,-2.0507 3.7113,-0.7824 0.825,0.431 2.175,1.0252 3,1.3205 l 1.5,0.5369 0,1.4889 0,1.4889 -1,0.052 c -0.55,0.029 -1.2812,-0.077 -1.625,-0.234 z m 101.7347,-0.794 c -0.2679,-0.6058 -0.4261,-1.2604 -0.3515,-1.4548 0.074,-0.1943 0.6406,-0.5988 1.2579,-0.8987 0.8953,-0.4349 1.5633,-0.544 3.3031,-0.5392 2.3935,0.01 4.0274,0.2935 4.3143,0.7578 0.2507,0.4056 -0.016,2.3112 -0.3585,2.5643 -0.1512,0.1117 -1.325,0.1423 -2.6083,0.068 -1.7442,-0.1011 -2.5566,-0.042 -3.218,0.2344 -1.4418,0.6025 -1.7981,0.491 -2.339,-0.7317 z m 51.2172,-4.2182 c -0.4403,-0.3593 -1.3057,-1.6253 -1.5222,-2.227 -0.2392,-0.6647 0.6805,-1.5918 2.3384,-2.3572 1.0861,-0.5014 1.7112,-0.9869 2.1917,-1.7023 0.4288,-0.6386 1.0227,-1.1343 1.6408,-1.3695 0.9279,-0.3532 0.9881,-0.3445 1.434,0.2061 0.6341,0.7831 0.5736,1.643 -0.2301,3.2694 -0.7073,1.4313 -1.8828,2.4821 -4.2573,3.8055 -0.9891,0.5513 -1.2919,0.6225 -1.5953,0.375 z m 51.3639,-5.5995 c -2.906,-1.1597 -5.7402,-5.0366 -4.3991,-6.0175 1.1507,-0.8416 1.559,-0.7149 3.2603,1.0117 1.1225,1.1391 1.9708,1.7633 2.7632,2.0333 1.6028,0.5462 2.0598,1.0313 2.0598,2.1864 0,0.8085 -0.1054,1.0076 -0.6413,1.2113 -0.8895,0.3382 -1.2595,0.2865 -3.0429,-0.4252 z m -22.4825,-3.8673 c -0.1604,-0.2001 -0.1891,-0.5432 -0.07,-0.8387 0.1109,-0.275 0.2095,-1.0191 0.2191,-1.6535 l 0.017,-1.1535 1.1599,-0.159 c 0.638,-0.087 2.5991,-0.159 4.3582,-0.159 3.5327,0 3.2686,-0.1322 3.5939,1.799 0.2018,1.1982 -0.052,1.3312 -3.5282,1.8505 -4.2711,0.6379 -5.4398,0.7018 -5.7505,0.3142 z m 36.0624,-1.5423 c -0.3391,-0.2482 -0.4691,-0.6246 -0.4442,-1.2864 0.036,-0.9663 0.9739,-6.3997 1.2109,-7.0173 0.2057,-0.536 0.961,-0.6711 2.0753,-0.371 0.8755,0.2358 1.0123,0.3667 1.0123,0.9689 0,1.0599 -0.702,5.5149 -1.069,6.7844 -0.3087,1.0676 -0.3758,1.1287 -1.3156,1.1986 -0.5671,0.042 -1.1953,-0.076 -1.4697,-0.2772 z m -49.2262,-0.9124 c -0.938,-0.4001 -2.3183,-0.8041 -3.0675,-0.8977 -1.0482,-0.131 -1.4793,-0.3192 -1.8711,-0.8174 -0.5748,-0.7307 -0.4797,-1.7028 0.2203,-2.2506 0.7748,-0.6063 3.4062,-0.2427 6.1368,0.8479 2.9411,1.1748 3.4462,1.7592 2.6507,3.0673 -0.4051,0.6662 -0.6304,0.7904 -1.4225,0.7847 -0.5177,0 -1.7086,-0.3341 -2.6467,-0.7342 z m 50.2977,-17.3104 c -0.2243,-0.1779 -0.4823,-0.824 -0.5734,-1.4357 -0.091,-0.6117 -0.4639,-2.1089 -0.8286,-3.3272 -0.6224,-2.0789 -0.6385,-2.2557 -0.2627,-2.8751 0.2663,-0.4389 0.8462,-0.8052 1.7319,-1.0939 0.7323,-0.2387 1.3389,-0.4133 1.3479,-0.3879 0.01,0.025 0.1517,0.3609 0.3171,0.7455 0.1653,0.3846 0.3059,1.1158 0.3123,1.625 0.01,0.5091 0.2117,2.1377 0.456,3.6191 0.3135,1.9005 0.3653,2.757 0.1758,2.9092 -0.5185,0.4168 -2.2495,0.5598 -2.6763,0.2211 z M 522.6875,604.73 c -0.3878,-0.2259 -0.4375,-0.7088 -0.4375,-4.2486 0,-3.9127 0.012,-3.998 0.5625,-4.2042 2.213,-0.8279 2.4339,-0.5749 2.4485,2.8032 0.01,1.493 0.1526,2.9419 0.3537,3.5059 0.2507,0.7033 0.2748,1.1561 0.089,1.6875 -0.2311,0.6631 -0.3543,0.7256 -1.4162,0.7186 -0.6396,0 -1.3599,-0.1223 -1.6005,-0.2624 z M 519.08,587.0547 c -0.1622,-0.1031 -0.5401,-0.9733 -0.8396,-1.9336 -0.2995,-0.9604 -0.8743,-2.5974 -1.2772,-3.6379 -0.4029,-1.0405 -0.668,-2.06 -0.5892,-2.2654 0.1685,-0.4391 1.5054,-0.9678 2.4473,-0.9678 0.6309,0 0.7121,0.162 1.7947,3.5834 0.6237,1.9709 1.134,3.7627 1.134,3.9818 0,0.8934 -1.8581,1.7559 -2.67,1.2395 z m -3.9187,-18.1791 c -0.2258,-0.2258 -0.4796,-0.7121 -0.5639,-1.0806 -0.084,-0.3685 -0.5374,-1.9594 -1.0068,-3.5354 -0.4694,-1.576 -0.7998,-3.0053 -0.7342,-3.1762 0.175,-0.456 2.0533,-1.3523 2.486,-1.1863 0.5754,0.2208 2.6576,6.5212 2.6576,8.0416 0,0.9004 -2.1617,1.6139 -2.8387,0.9369 z m -28.075,-5.1881 c -0.7658,-0.8168 -3.8687,-5.4678 -4.1431,-6.2102 -0.081,-0.2187 -0.053,-0.5497 0.062,-0.7355 0.252,-0.4077 2.1644,-1.007 2.636,-0.826 0.1851,0.071 0.6702,0.7203 1.078,1.443 0.7882,1.3965 1.9344,2.6847 3.1459,3.5355 l 0.7394,0.5192 -0.7397,1.54 c -0.8937,1.8606 -1.5577,2.036 -2.7784,0.734 z m 11.4396,-2.0712 c -0.4267,-0.486 -0.7759,-1.0392 -0.7759,-1.2293 0,-0.4703 3.2683,-3.3909 4.9037,-4.3821 0.7297,-0.4422 1.6953,-0.8211 2.1457,-0.842 0.7436,-0.034 0.84,0.045 1.0456,0.8653 0.3437,1.371 0.058,2.0448 -1.1496,2.7131 -0.5887,0.3258 -1.6891,1.1158 -2.4454,1.7557 -1.5038,1.2724 -2.5178,2.003 -2.7797,2.003 -0.093,0 -0.5176,-0.3977 -0.9444,-0.8837 z m -21.3945,-14.3539 c -0.2097,-0.4056 -0.3818,-0.94 -0.3823,-1.1875 0,-0.2474 -0.2067,-0.7874 -0.4583,-1.1999 -0.4405,-0.7226 -1.5408,-3.8357 -1.5408,-4.3597 0,-0.4059 1.9779,-1.306 2.5033,-1.1392 0.573,0.1818 2.2457,2.7782 2.2492,3.4911 0,0.2793 0.2825,1.1096 0.625,1.8451 0.3424,0.7356 0.6225,1.6046 0.6225,1.9311 0,0.7296 -1.089,1.3566 -2.3562,1.3566 -0.7227,0 -0.9495,-0.1325 -1.2624,-0.7376 z m -3.9775,-17.7981 c -0.071,-0.4616 -0.1948,-2.4252 -0.2754,-4.3636 -0.1641,-3.9429 -0.1671,-3.9348 1.5277,-4.2141 0.9295,-0.1532 1.0855,-0.101 1.5808,0.5287 0.3607,0.4585 0.5073,0.9153 0.4268,1.3291 -0.068,0.3469 0.047,1.626 0.255,2.8425 0.3865,2.263 0.3052,3.6682 -0.2379,4.1139 -0.1682,0.138 -0.9454,0.3301 -1.727,0.4269 l -1.4212,0.1758 -0.1288,-0.8392 z m -1.4003,-18.2076 c -0.1452,-0.2713 -0.3722,-1.064 -0.5045,-1.7616 -0.1323,-0.6975 -0.7071,-2.0537 -1.2774,-3.0135 -1.0219,-1.7202 -1.0301,-1.7527 -0.5674,-2.264 0.2583,-0.2853 0.7678,-0.673 1.1324,-0.8615 0.5894,-0.3049 0.7315,-0.2887 1.2839,0.1458 1.1541,0.9078 2.2528,2.9654 2.7111,5.0774 0.4986,2.2977 0.3705,2.7778 -0.8041,3.0127 -1.2829,0.2566 -1.6947,0.1866 -1.974,-0.3353 z m -1.1087,-16.2244 c -0.074,-0.1197 -0.4653,-0.2839 -0.8696,-0.3647 -1.3798,-0.276 -1.2259,-1.6225 0.4182,-3.6596 2.0676,-2.5618 3.6669,-4.258 4.0148,-4.258 0.5781,0 2.0417,1.2271 2.0417,1.7118 0,0.24 -0.6868,1.3311 -1.5262,2.4248 -0.8394,1.0936 -1.7976,2.5228 -2.1292,3.1759 -0.4694,0.9243 -0.7374,1.1875 -1.209,1.1875 -0.3334,0 -0.6666,-0.098 -0.7407,-0.2177 z m 4.6051,-16.9437 c -0.4812,-0.3403 -0.9055,-0.7034 -0.9428,-0.8071 -0.037,-0.1037 0.3989,-1.1938 0.9693,-2.4225 0.5704,-1.2287 1.2281,-2.7895 1.4614,-3.4685 0.2334,-0.6789 0.6023,-1.3467 0.8199,-1.484 0.5207,-0.3285 2.4132,0.2271 2.6214,0.7695 0.2666,0.6948 -1.8706,6.5883 -2.7152,7.4874 -0.683,0.727 -1.0998,0.7129 -2.214,-0.075 z m 6.6095,-15.998 C 481.3868,461.5745 481,460.9992 481,460.8121 c 0,-0.4357 1.1922,-1.535 3.25,-2.9969 0.8938,-0.635 1.943,-1.4156 2.3317,-1.7348 0.958,-0.7868 1.3981,-0.707 2.3758,0.4308 1.0397,1.2101 0.9203,1.7033 -0.6575,2.7141 -0.6462,0.4141 -1.85,1.2597 -2.675,1.879 -0.825,0.6194 -1.8164,1.3058 -2.203,1.5254 -0.6919,0.3929 -0.7168,0.3843 -1.5625,-0.5391 z m 14.9133,-10.7528 c -0.3262,-0.2284 -0.9428,-0.4866 -1.3704,-0.5738 -0.682,-0.139 -0.8442,-0.3453 -1.3218,-1.6816 -0.789,-2.2072 -0.9446,-4.6487 -0.3958,-6.2074 0.4153,-1.1794 0.4945,-1.2545 1.4022,-1.329 0.6476,-0.053 1.1175,0.062 1.4375,0.3512 0.5512,0.4988 0.5849,0.9368 0.1865,2.4262 -0.2619,0.9791 -0.2135,1.3094 0.5152,3.5182 1.078,3.2677 0.9233,4.4605 -0.4534,3.4962 z m 0.6067,-17.6786 c -0.5905,-0.4318 -1.0456,-1.9031 -1.5119,-4.8874 -0.495,-3.169 -0.4718,-3.5868 0.237,-4.2526 0.47,-0.4415 0.7721,-0.5311 1.3577,-0.4025 1.083,0.2379 1.2628,0.573 1.5542,2.8967 0.1435,1.1442 0.407,2.7778 0.5857,3.6301 0.2818,1.3442 0.2738,1.634 -0.06,2.1842 -0.2117,0.3489 -0.6506,0.7554 -0.9753,0.9033 -0.7252,0.3304 -0.6294,0.3362 -1.1874,-0.072 z m -244.7914,-8.6575 c -0.6618,-0.267 -0.9939,-0.7517 -0.5151,-0.7517 0.5945,0 1.927,0.5355 1.927,0.7744 0,0.2782 -0.6939,0.267 -1.4119,-0.023 z m 3.8494,-9.5532 c -0.5156,-0.3007 -0.9375,-0.7352 -0.9375,-0.9655 0,-0.2303 0.543,-1.5863 1.2067,-3.0134 0.6636,-1.427 1.3931,-3.0165 1.6209,-3.5321 0.4862,-1.1001 1.0593,-1.2027 2.3304,-0.4171 0.5442,0.3363 0.842,0.7154 0.842,1.0718 0,0.7988 -3.3056,7.2717 -3.75,7.343 -0.2062,0.033 -0.7969,-0.1859 -1.3125,-0.4867 z m 239.6948,-0.2934 c -0.7809,-0.781 -0.7812,-1.1399 0,-3.0301 0.7351,-1.7847 0.7429,-1.9145 0.2043,-3.4172 -0.3932,-1.0972 -0.3924,-1.2066 0.014,-1.8261 0.3695,-0.5639 0.5813,-0.648 1.4673,-0.5828 1.4298,0.1051 1.9888,1.0772 2.1124,3.6735 0.084,1.7666 0.032,2.0092 -0.7309,3.3934 -0.4955,0.8994 -1.1408,1.6754 -1.6265,1.9562 l -0.8052,0.4654 -0.6323,-0.6323 z m -7.6978,-14.1737 c -1.1647,-0.6148 -2.4692,-2.3617 -3.3018,-4.4215 -0.766,-1.8951 -0.7895,-2.5432 -0.1225,-3.3911 0.445,-0.5657 0.5968,-0.6157 1.1871,-0.3913 1.0511,0.3996 1.4969,0.9254 1.9556,2.3064 0.2936,0.8839 0.8336,1.6852 1.7603,2.6119 1.5192,1.5192 1.7151,2.3616 0.7582,3.2606 -0.7036,0.6611 -1.0252,0.6647 -2.2369,0.025 z m -223.747,-2.0102 C 264.3094,398.6891 264,398.2213 264,397.9317 c 0,-0.7198 3.0867,-5.9801 3.9873,-6.7952 0.4596,-0.416 0.5281,-0.4099 1.4945,0.1333 0.557,0.3131 1.0718,0.7553 1.144,0.9827 0.1325,0.4176 -1.7909,3.9695 -3.3081,6.109 -0.9135,1.2881 -1.5295,1.4309 -2.6302,0.6097 z m 217.354,-14.4825 c -0.9224,-0.561 -0.9701,-0.9794 -0.4121,-3.6136 0.2038,-0.9624 0.3706,-2.5526 0.3706,-3.5337 0,-1.6201 0.057,-1.8209 0.6162,-2.1876 0.8162,-0.5348 1.1817,-0.5097 2.0044,0.1374 l 0.6881,0.5412 -0.1253,2.8963 c -0.1539,3.5582 -0.6622,5.3683 -1.6511,5.8796 -0.6311,0.3264 -0.7766,0.3147 -1.4908,-0.1196 z m -207.229,-1.1346 C 274.3656,383.0019 274,382.5043 274,382.2483 c 0,-0.5767 2.6016,-4.4929 3.9551,-5.9536 l 1.0009,-1.0803 0.7697,0.398 c 0.4233,0.2189 0.9562,0.6828 1.1843,1.0309 0.3954,0.6035 0.3871,0.6701 -0.1779,1.4323 -0.326,0.4397 -1.2045,1.6994 -1.9524,2.7994 -2.3417,3.4445 -2.5651,3.5841 -3.9672,2.4791 z m 215.2194,-11.4339 c -0.4379,-0.4744 -0.5513,-0.8088 -0.4335,-1.2782 0.2828,-1.1267 0.9848,-1.3378 5.0266,-1.512 3.5035,-0.151 3.8034,-0.1279 4.5625,0.3505 0.6629,0.4178 0.8125,0.6724 0.8125,1.382 0,0.5996 -0.148,0.9491 -0.4762,1.1248 -0.262,0.1402 -2.3713,0.327 -4.6875,0.4151 l -4.2113,0.1603 -0.5931,-0.6425 z M 285.8125,368.3541 C 285.3656,368.0019 285,367.5219 285,367.2874 c 0,-0.7595 4.9568,-6.5374 5.6084,-6.5374 0.4261,0 1.5785,0.9149 1.8934,1.5033 0.2067,0.3862 -0.177,0.9935 -2.278,3.6056 -2.771,3.445 -3.0244,3.5883 -4.4113,2.4952 z m 215.7448,-6.2714 c -0.1748,-0.07 -0.478,-0.4377 -0.6739,-0.8164 -0.3298,-0.6379 -0.2993,-0.7972 0.4152,-2.1649 1.6366,-3.133 3.6959,-5.6014 4.673,-5.6014 0.9097,0 1.4473,0.4584 1.6416,1.4 0.1338,0.6479 0.013,0.9506 -0.7358,1.8472 -0.4928,0.5897 -1.3537,1.8561 -1.9132,2.8141 -1.4929,2.5562 -2.1365,3.0325 -3.4069,2.5214 z M 297.8759,354.142 c -0.8447,-0.7966 -0.8862,-0.9024 -0.5803,-1.4794 0.437,-0.8244 5.3613,-5.9126 5.7222,-5.9126 0.4215,0 1.9822,1.6416 1.9822,2.085 0,0.4761 -5.431,6.165 -5.8854,6.165 -0.181,0 -0.7384,-0.3861 -1.2387,-0.858 z m 54.8741,-6.8746 c -1.1687,-0.084 -2.2656,-0.242 -2.4375,-0.3502 -0.6271,-0.3947 -0.2989,-2.7971 0.4074,-2.9818 0.233,-0.061 2.1436,-0.036 4.2458,0.055 2.9136,0.1265 3.8761,0.2514 4.0494,0.5252 0.3298,0.5212 0.2859,2.3333 -0.065,2.6842 -0.3177,0.3177 -2.4175,0.3405 -6.2,0.067 z m 16.4375,-0.2874 c -0.3239,-0.1887 -0.4375,-0.5778 -0.4375,-1.4986 0,-1.5581 0,-1.5589 4.6827,-1.9803 2.6925,-0.2424 3.6422,-0.2501 3.9054,-0.032 0.3902,0.3238 0.7083,1.8687 0.4978,2.4173 -0.191,0.4979 -1.4866,0.7922 -4.8359,1.0986 -3.4272,0.3135 -3.2647,0.3137 -3.8125,-0.01 z m 138.8994,-1.0925 c -1.8903,-0.8224 -3.9299,-7.4105 -2.7744,-8.9613 0.1719,-0.2307 0.6627,-0.4882 1.0906,-0.5722 0.6653,-0.1306 0.8556,-0.044 1.3125,0.5977 0.2939,0.4128 0.5344,1.0221 0.5344,1.354 0,0.8631 0.6391,2.8667 1.3713,4.2992 0.7831,1.5319 0.7971,2.3997 0.05,3.1015 -0.6726,0.6319 -0.5744,0.6206 -1.5845,0.1811 z M 338,345.733 c -0.6187,-0.1143 -2.2158,-0.3916 -3.549,-0.6161 -1.338,-0.2253 -2.5566,-0.568 -2.7199,-0.7647 -0.3691,-0.4448 -0.1368,-2.0536 0.3696,-2.5601 0.3168,-0.3168 0.6885,-0.3239 2.6959,-0.051 3.4146,0.4634 5.5023,0.9381 5.7529,1.3081 0.2856,0.4215 0.084,2.1138 -0.3076,2.586 -0.3309,0.3987 -0.5613,0.4087 -2.2419,0.098 z m 49.6864,-1.3322 c -0.4799,-0.4798 -0.779,-1.7149 -0.5728,-2.3646 0.1638,-0.5162 0.7625,-0.7113 4.6946,-1.5297 2.6509,-0.5517 3.8343,-0.6326 4.054,-0.2771 0.078,0.1261 0.2108,0.7335 0.2953,1.3499 0.1935,1.4121 0.066,1.4887 -3.8542,2.3169 -1.6105,0.3403 -3.2192,0.682 -3.5749,0.7594 -0.4132,0.09 -0.7893,0 -1.042,-0.2548 z m -69.0337,-2.5597 c -1.5076,-0.5439 -4.1891,-0.7435 -5.967,-0.444 -1.381,0.2326 -2.0003,-0.3124 -3.2167,-2.8314 1.99205,-1.27754 5.17428,-1.5684 9.94982,-0.25528 0.5012,0 1.54658,0.41708 2.09118,0.69488 0.8135,0.415 0.99,0.6358 0.99,1.2382 0,0.4033 -0.1305,1.0197 -0.2901,1.3699 -0.253,0.5554 -0.4369,0.6331 -1.4375,0.6077 -0.6311,-0.016 -1.5849,-0.1871 -2.1197,-0.38 z m 87.086,-1.9795 c -0.1774,-0.2138 -0.3318,-0.8437 -0.3431,-1.3998 -0.02,-0.9794 0.017,-1.026 1.1671,-1.4822 0.6532,-0.2592 2.1658,-1.0918 3.3613,-1.8503 1.1956,-0.7585 2.2526,-1.3791 2.349,-1.3791 0.3079,0 1.727,1.7533 1.727,2.1337 0,0.5353 -0.6752,1.1283 -2.7732,2.436 -2.9009,1.808 -4.8197,2.347 -5.4881,1.5417 z m 16.0529,-8.6863 c -0.3589,-0.4324 -0.6101,-2.225 -0.3628,-2.5888 0.2428,-0.3571 5.7419,-1.4249 7.4462,-1.4459 l 1.25,-0.015 0.2312,1.1973 c 0.1816,0.9402 0.1547,1.2696 -0.125,1.5335 -0.3108,0.2933 -6.6965,1.6442 -7.772,1.6442 -0.2189,0 -0.5193,-0.1462 -0.6676,-0.3249 z m 81.2216,-2.8401 c -0.2877,-0.3658 -0.7548,-1.4626 -1.0381,-2.4375 -0.2832,-0.9749 -0.6841,-2.3438 -0.8908,-3.0421 -0.2067,-0.6983 -0.3383,-1.5983 -0.2926,-2 0.08,-0.6982 0.154,-0.7391 1.6858,-0.9278 0.898,-0.1107 1.6999,-0.1002 1.824,0.024 0.1217,0.1217 0.3221,1.1987 0.4454,2.3932 0.1425,1.3817 0.4503,2.6661 0.8458,3.53 0.5208,1.1376 0.5821,1.5016 0.3778,2.2417 -0.2319,0.8399 -0.2982,0.8836 -1.3391,0.8836 -0.8879,0 -1.1941,-0.1258 -1.6182,-0.665 z m -63.2411,-1.7401 c -0.5683,-2.0468 -0.6216,-2.0049 4.2962,-3.3813 2.4323,-0.6808 3.5822,-0.8999 3.7952,-0.7231 0.1681,0.1395 0.4453,0.72 0.6161,1.29 0.2621,0.8747 0.2526,1.0945 -0.061,1.4077 -0.4486,0.4486 -5.5802,2.04 -7.2108,2.2362 l -1.1668,0.1404 -0.2693,-0.9699 z m 17.8817,-5.4611 c -0.4804,-0.7331 -0.5296,-1.9778 -0.091,-2.308 0.4734,-0.3567 6.8396,-2.8258 7.286,-2.8258 0.8358,0 1.7586,2.4149 1.1106,2.9064 -0.5466,0.4145 -6.876,2.8436 -7.4096,2.8436 -0.2706,0 -0.6737,-0.2773 -0.8957,-0.6162 z m 17.4806,-6.4594 c -0.6426,-0.9807 -0.7333,-2.0093 -0.2168,-2.4601 0.6536,-0.5704 6.6807,-2.5148 7.4994,-2.4193 0.5776,0.067 0.7446,0.2691 1.0558,1.2749 0.4794,1.55 0.3818,1.6373 -2.9728,2.659 -1.4437,0.4398 -3.0788,0.9619 -3.6333,1.1603 -1.2949,0.4633 -1.2874,0.4643 -1.7323,-0.2148 z m 26.7,-4.7994 c -0.6551,-0.6187 -1.3076,-1.1241 -1.4502,-1.123 -0.1425,0 -1.6067,0.2823 -3.2536,0.625 -1.647,0.3427 -3.1996,0.623 -3.4503,0.623 -0.4801,0 -1.1803,-1.3247 -1.1803,-2.2332 0,-0.6768 0.6622,-0.9839 3.345,-1.5514 4.8414,-1.0242 5.0292,-1.0433 5.8882,-0.5991 0.79741,0.0468 0.82303,0.0534 1.81901,0.31477 1.40301,3.06501 0.93982,3.50269 -0.20831,5.06863 -0.1752,0 -0.8545,-0.5062 -1.5095,-1.125 z" />
</svg>
