<?xml version="1.0" encoding="UTF-8" standalone="no"?>
<!-- Created with Inkscape (http://www.inkscape.org/) -->

<svg
   xmlns:dc="http://purl.org/dc/elements/1.1/"
   xmlns:cc="http://creativecommons.org/ns#"
   xmlns:rdf="http://www.w3.org/1999/02/22-rdf-syntax-ns#"
   xmlns:svg="http://www.w3.org/2000/svg"
   xmlns="http://www.w3.org/2000/svg"
   xmlns:sodipodi="http://sodipodi.sourceforge.net/DTD/sodipodi-0.dtd"
   xmlns:inkscape="http://www.inkscape.org/namespaces/inkscape"
   id="svg3295"
   version="1.1"
   inkscape:version="0.48.4 r9939"
   width="698.5"
   height="832"
   sodipodi:docname="Afrika_lxn.svg">
  <metadata
     id="metadata3301">
    <rdf:RDF>
      <cc:Work
         rdf:about="">
        <dc:format>image/svg+xml</dc:format>
        <dc:type
           rdf:resource="http://purl.org/dc/dcmitype/StillImage" />
        <dc:title></dc:title>
      </cc:Work>
    </rdf:RDF>
  </metadata>
  <defs
     id="defs3299" />
  <sodipodi:namedview
     pagecolor="#ffffff"
     bordercolor="#666666"
     borderopacity="1"
     objecttolerance="10"
     gridtolerance="10"
     guidetolerance="10"
     inkscape:pageopacity="0"
     inkscape:pageshadow="2"
     inkscape:window-width="1362"
     inkscape:window-height="1048"
     id="namedview3297"
     showgrid="false"
     inkscape:zoom="0.32932693"
     inkscape:cx="1251.7476"
     inkscape:cy="-162.86945"
     inkscape:window-x="0"
     inkscape:window-y="0"
     inkscape:window-maximized="0"
     inkscape:current-layer="svg3295" />
  <path
     id="path3305"
     style="fill:#ff0000"
     d="m 537.5426,668.6875 c -0.5352,-0.7219 -1.72,-2.0062 -2.6328,-2.854 -1.4313,-1.3293 -1.6598,-1.6609 -1.6598,-2.409 0,-0.7486 0.1221,-0.9255 0.8905,-1.2901 0.8619,-0.409 0.928,-0.4039 2.0604,0.159 0.7707,0.3831 1.8318,1.3359 3.1095,2.792 2.3209,2.6449 2.4715,3.2852 1.0066,4.2806 -0.5132,0.3487 -1.1284,0.634 -1.3671,0.634 -0.2388,0 -0.872,-0.5906 -1.4073,-1.3125 z m -15.2362,-10.5137 c -0.925,-0.801 -2.1552,-1.5683 -3.1064,-1.9375 -0.30585,-1.08371 -0.64522,-1.82981 -0.2258,-3.449 0.6962,-0.2086 1.1329,-0.5524 1.5071,-1.1868 0.5075,-0.8601 0.566,-0.8866 1.5853,-0.7185 1.5323,0.2527 1.7188,0.481 1.5336,1.8772 -0.1575,1.1871 -0.1527,1.197 1.3709,2.8347 1.7453,1.8761 1.9859,2.7992 0.9127,3.5024 -1.1062,0.7248 -1.9166,0.5158 -3.5774,-0.9225 z m 0.5893,-16.7524 c -0.3391,-0.2482 -0.4691,-0.6246 -0.4442,-1.2864 0.036,-0.9663 0.9739,-6.3997 1.2109,-7.0173 0.2057,-0.536 0.961,-0.6711 2.0753,-0.371 0.8755,0.2358 1.0123,0.3667 1.0123,0.9689 0,1.0599 -0.702,5.5149 -1.069,6.7844 -0.3087,1.0676 -0.3758,1.1287 -1.3156,1.1986 -0.5671,0.042 -1.1953,-0.076 -1.4697,-0.2772 z m 1.0715,-18.2228 c -0.2243,-0.1779 -0.4823,-0.824 -0.5734,-1.4357 -0.091,-0.6117 -0.4639,-2.1089 -0.8286,-3.3272 -0.6224,-2.0789 -0.6385,-2.2557 -0.2627,-2.8751 0.2663,-0.4389 0.8462,-0.8052 1.7319,-1.0939 0.7323,-0.2387 1.3389,-0.4133 1.3479,-0.3879 0.01,0.025 0.1517,0.3609 0.3171,0.7455 0.1653,0.3846 0.3059,1.1158 0.3123,1.625 0.01,0.5091 0.2117,2.1377 0.456,3.6191 0.3135,1.9005 0.3653,2.757 0.1758,2.9092 -0.5185,0.4168 -2.2495,0.5598 -2.6763,0.2211 z M 522.6875,604.73 c -0.3878,-0.2259 -0.4375,-0.7088 -0.4375,-4.2486 0,-3.9127 0.012,-3.998 0.5625,-4.2042 2.213,-0.8279 2.4339,-0.5749 2.4485,2.8032 0.01,1.493 0.1526,2.9419 0.3537,3.5059 0.2507,0.7033 0.2748,1.1561 0.089,1.6875 -0.2311,0.6631 -0.3543,0.7256 -1.4162,0.7186 -0.6396,0 -1.3599,-0.1223 -1.6005,-0.2624 z M 519.08,587.0547 c -0.1622,-0.1031 -0.5401,-0.9733 -0.8396,-1.9336 -0.2995,-0.9604 -0.8743,-2.5974 -1.2772,-3.6379 -0.4029,-1.0405 -0.668,-2.06 -0.5892,-2.2654 0.1685,-0.4391 1.5054,-0.9678 2.4473,-0.9678 0.6309,0 0.7121,0.162 1.7947,3.5834 0.6237,1.9709 1.134,3.7627 1.134,3.9818 0,0.8934 -1.8581,1.7559 -2.67,1.2395 z m -3.9187,-18.1791 c -0.2258,-0.2258 -0.4796,-0.7121 -0.5639,-1.0806 -0.084,-0.3685 -0.5374,-1.9594 -1.0068,-3.5354 -0.4694,-1.576 -0.7998,-3.0053 -0.7342,-3.1762 0.175,-0.456 2.0533,-1.3523 2.486,-1.1863 0.5754,0.2208 2.6576,6.5212 2.6576,8.0416 0,0.9004 -2.1617,1.6139 -2.8387,0.9369 z m -28.075,-5.1881 c -0.7658,-0.8168 -3.8687,-5.4678 -4.1431,-6.2102 -0.081,-0.2187 -0.053,-0.5497 0.062,-0.7355 0.252,-0.4077 2.1644,-1.007 2.636,-0.826 0.1851,0.071 0.6702,0.7203 1.078,1.443 0.7882,1.3965 1.9344,2.6847 3.1459,3.5355 l 0.7394,0.5192 -0.7397,1.54 c -0.8937,1.8606 -1.5577,2.036 -2.7784,0.734 z m 11.4396,-2.0712 c -0.4267,-0.486 -0.7759,-1.0392 -0.7759,-1.2293 0,-0.4703 3.2683,-3.3909 4.9037,-4.3821 0.7297,-0.4422 1.6953,-0.8211 2.1457,-0.842 0.7436,-0.034 0.84,0.045 1.0456,0.8653 0.3437,1.371 0.058,2.0448 -1.1496,2.7131 -0.5887,0.3258 -1.6891,1.1158 -2.4454,1.7557 -1.5038,1.2724 -2.5178,2.003 -2.7797,2.003 -0.093,0 -0.5176,-0.3977 -0.9444,-0.8837 z m -21.3945,-14.3539 c -0.2097,-0.4056 -0.3818,-0.94 -0.3823,-1.1875 0,-0.2474 -0.2067,-0.7874 -0.4583,-1.1999 -0.4405,-0.7226 -1.5408,-3.8357 -1.5408,-4.3597 0,-0.4059 1.9779,-1.306 2.5033,-1.1392 0.573,0.1818 2.2457,2.7782 2.2492,3.4911 0,0.2793 0.2825,1.1096 0.625,1.8451 0.3424,0.7356 0.6225,1.6046 0.6225,1.9311 0,0.7296 -1.089,1.3566 -2.3562,1.3566 -0.7227,0 -0.9495,-0.1325 -1.2624,-0.7376 z m -3.9775,-17.7981 c -0.071,-0.4616 -0.1948,-2.4252 -0.2754,-4.3636 -0.1641,-3.9429 -0.1671,-3.9348 1.5277,-4.2141 0.9295,-0.1532 1.0855,-0.101 1.5808,0.5287 0.3607,0.4585 0.5073,0.9153 0.4268,1.3291 -0.068,0.3469 0.047,1.626 0.255,2.8425 0.3865,2.263 0.3052,3.6682 -0.2379,4.1139 -0.1682,0.138 -0.9454,0.3301 -1.727,0.4269 l -1.4212,0.1758 -0.1288,-0.8392 z m -1.4003,-18.2076 c -0.1452,-0.2713 -0.3722,-1.064 -0.5045,-1.7616 -0.1323,-0.6975 -0.7071,-2.0537 -1.2774,-3.0135 -1.0219,-1.7202 -1.0301,-1.7527 -0.5674,-2.264 0.2583,-0.2853 0.7678,-0.673 1.1324,-0.8615 0.5894,-0.3049 0.7315,-0.2887 1.2839,0.1458 1.1541,0.9078 2.2528,2.9654 2.7111,5.0774 0.4986,2.2977 0.3705,2.7778 -0.8041,3.0127 -1.2829,0.2566 -1.6947,0.1866 -1.974,-0.3353 z m -1.1087,-16.2244 c -0.074,-0.1197 -0.4653,-0.2839 -0.8696,-0.3647 -1.3798,-0.276 -1.2259,-1.6225 0.4182,-3.6596 2.0676,-2.5618 3.6669,-4.258 4.0148,-4.258 0.5781,0 2.0417,1.2271 2.0417,1.7118 0,0.24 -0.6868,1.3311 -1.5262,2.4248 -0.8394,1.0936 -1.7976,2.5228 -2.1292,3.1759 -0.4694,0.9243 -0.7374,1.1875 -1.209,1.1875 -0.3334,0 -0.6666,-0.098 -0.7407,-0.2177 z m 4.6051,-16.9437 c -0.4812,-0.3403 -0.9055,-0.7034 -0.9428,-0.8071 -0.037,-0.1037 0.3989,-1.1938 0.9693,-2.4225 0.5704,-1.2287 1.2281,-2.7895 1.4614,-3.4685 0.2334,-0.6789 0.6023,-1.3467 0.8199,-1.484 0.5207,-0.3285 2.4132,0.2271 2.6214,0.7695 0.2666,0.6948 -1.8706,6.5883 -2.7152,7.4874 -0.683,0.727 -1.0998,0.7129 -2.214,-0.075 z m 6.6095,-15.998 C 481.3868,461.5745 481,460.9992 481,460.8121 c 0,-0.4357 1.1922,-1.535 3.25,-2.9969 0.8938,-0.635 1.943,-1.4156 2.3317,-1.7348 0.958,-0.7868 1.3981,-0.707 2.3758,0.4308 1.0397,1.2101 0.9203,1.7033 -0.6575,2.7141 -0.6462,0.4141 -1.85,1.2597 -2.675,1.879 -0.825,0.6194 -1.8164,1.3058 -2.203,1.5254 -0.6919,0.3929 -0.7168,0.3843 -1.5625,-0.5391 z m 14.9133,-10.7528 c -0.3262,-0.2284 -0.9428,-0.4866 -1.3704,-0.5738 -0.682,-0.139 -0.8442,-0.3453 -1.3218,-1.6816 -0.789,-2.2072 -0.9446,-4.6487 -0.3958,-6.2074 0.4153,-1.1794 0.4945,-1.2545 1.4022,-1.329 0.6476,-0.053 1.1175,0.062 1.4375,0.3512 0.5512,0.4988 0.5849,0.9368 0.1865,2.4262 -0.2619,0.9791 -0.2135,1.3094 0.5152,3.5182 1.078,3.2677 0.9233,4.4605 -0.4534,3.4962 z m 0.6067,-17.6786 c -0.5905,-0.4318 -1.0456,-1.9031 -1.5119,-4.8874 -0.495,-3.169 -0.4718,-3.5868 0.237,-4.2526 0.47,-0.4415 0.7721,-0.5311 1.3577,-0.4025 1.083,0.2379 1.2628,0.573 1.5542,2.8967 0.1435,1.1442 0.407,2.7778 0.5857,3.6301 0.2818,1.3442 0.2738,1.634 -0.06,2.1842 -0.2117,0.3489 -0.6506,0.7554 -0.9753,0.9033 -0.7252,0.3304 -0.6294,0.3362 -1.1874,-0.072 z m -1.2472,-18.5041 c -0.7809,-0.781 -0.7812,-1.1399 0,-3.0301 0.7351,-1.7847 0.7429,-1.9145 0.2043,-3.4172 -0.3932,-1.0972 -0.3924,-1.2066 0.014,-1.8261 0.3695,-0.5639 0.5813,-0.648 1.4673,-0.5828 1.4298,0.1051 1.9888,1.0772 2.1124,3.6735 0.084,1.7666 0.032,2.0092 -0.7309,3.3934 -0.4955,0.8994 -1.1408,1.6754 -1.6265,1.9562 l -0.8052,0.4654 -0.6323,-0.6323 z m -7.6978,-14.1737 c -1.1647,-0.6148 -2.4692,-2.3617 -3.3018,-4.4215 -0.766,-1.8951 -0.7895,-2.5432 -0.1225,-3.3911 0.445,-0.5657 0.5968,-0.6157 1.1871,-0.3913 1.0511,0.3996 1.4969,0.9254 1.9556,2.3064 0.2936,0.8839 0.8336,1.6852 1.7603,2.6119 1.5192,1.5192 1.7151,2.3616 0.7582,3.2606 -0.7036,0.6611 -1.0252,0.6647 -2.2369,0.025 z m -6.393,-16.4927 c -0.9224,-0.561 -0.9701,-0.9794 -0.4121,-3.6136 0.2038,-0.9624 0.3706,-2.5526 0.3706,-3.5337 0,-1.6201 0.057,-1.8209 0.6162,-2.1876 0.8162,-0.5348 1.1817,-0.5097 2.0044,0.1374 l 0.6881,0.5412 -0.1253,2.8963 c -0.1539,3.5582 -0.6622,5.3683 -1.6511,5.8796 -0.6311,0.3264 -0.7766,0.3147 -1.4908,-0.1196 z m 7.9904,-12.5685 c -0.4379,-0.4744 -0.5513,-0.8088 -0.4335,-1.2782 0.2828,-1.1267 0.9848,-1.3378 5.0266,-1.512 3.5035,-0.151 3.8034,-0.1279 4.5625,0.3505 0.6629,0.4178 0.8125,0.6724 0.8125,1.382 0,0.5996 -0.148,0.9491 -0.4762,1.1248 -0.262,0.1402 -2.3713,0.327 -4.6875,0.4151 l -4.2113,0.1603 -0.5931,-0.6425 z m 11.5254,-9.8375 c -0.1748,-0.07 -0.478,-0.4377 -0.6739,-0.8164 -0.3298,-0.6379 -0.2993,-0.7972 0.4152,-2.1649 1.6366,-3.133 3.6959,-5.6014 4.673,-5.6014 0.9097,0 1.4473,0.4584 1.6416,1.4 0.1338,0.6479 0.013,0.9506 -0.7358,1.8472 -0.4928,0.5897 -1.3537,1.8561 -1.9132,2.8141 -1.4929,2.5562 -2.1365,3.0325 -3.4069,2.5214 z m 6.5296,-16.1952 c -1.8903,-0.8224 -3.9299,-7.4105 -2.7744,-8.9613 0.1719,-0.2307 0.6627,-0.4882 1.0906,-0.5722 0.6653,-0.1306 0.8556,-0.044 1.3125,0.5977 0.2939,0.4128 0.5344,1.0221 0.5344,1.354 0,0.8631 0.6391,2.8667 1.3713,4.2992 0.7831,1.5319 0.7971,2.3997 0.05,3.1015 -0.6726,0.6319 -0.5744,0.6206 -1.5845,0.1811 z m -5.0737,-17.5523 c -0.2877,-0.3658 -0.7548,-1.4626 -1.0381,-2.4375 -0.2832,-0.9749 -0.6841,-2.3438 -0.8908,-3.0421 -0.2067,-0.6983 -0.3383,-1.5983 -0.2926,-2 0.08,-0.6982 0.154,-0.7391 1.6858,-0.9278 0.898,-0.1107 1.6999,-0.1002 1.824,0.024 0.1217,0.1217 0.3221,1.1987 0.4454,2.3932 0.1425,1.3817 0.4503,2.6661 0.8458,3.53 0.5208,1.1376 0.5821,1.5016 0.3778,2.2417 -0.2319,0.8399 -0.2982,0.8836 -1.3391,0.8836 -0.8879,0 -1.1941,-0.1258 -1.6182,-0.665 z m 0.7403,-23.3433 c 0.3361,-0.8116 0.5227,-0.8791 1.2922,-0.4672 0.282,0.1509 2.159,0.3803 4.1711,0.5098 2.7261,0.1754 3.7298,0.3297 3.9394,0.6056 0.2845,0.3745 0.1838,2.5679 -0.134,2.92 -0.092,0.1017 -1.1255,0.068 -2.2969,-0.076 -1.1715,-0.1433 -2.8546,-0.2265 -3.7401,-0.1849 -1.5657,0.074 -1.6218,0.1 -2.0315,0.9507 -0.4937,1.0251 -1.1605,1.75 -1.6098,1.75 -4.15318,-0.74813 0.19697,-4.85605 0.4096,-6.008 z m 39.6746,5.5315 c -1.8319,-0.16 -2.1678,-0.4074 -2.1743,-1.6021 -0.01,-1.4067 0.3435,-1.6711 2.2185,-1.6711 1.4718,0 1.7968,-0.085 2.3791,-0.625 0.4782,-0.4432 0.9563,-0.625 1.6436,-0.625 1.4925,0 1.7965,0.4671 1.6011,2.46 -0.09,0.9158 -0.2744,1.8056 -0.4103,1.9775 -0.2599,0.3288 -2.1249,0.3592 -5.2577,0.086 z m -17.3827,-1.0424 c -1.4358,-0.1102 -2.7501,-0.3395 -2.9641,-0.5171 -0.4691,-0.3893 -0.3205,-2.3989 0.204,-2.7585 0.1983,-0.1359 1.849,-0.1671 3.9647,-0.075 4.4552,0.1942 4.8707,0.3762 4.6819,2.0508 -0.07,0.6219 -0.2803,1.2276 -0.4672,1.346 -0.3892,0.2466 -1.7555,0.2349 -5.4193,-0.046 z m 20.9559,-13.3542 c -0.4977,-0.5997 0.085,-7.8885 0.6644,-8.3123 0.522,-0.3816 1.3216,-0.4018 2.2307,-0.056 l 0.6789,0.2581 -0.1659,3.3058 c -0.091,1.8182 -0.2823,3.727 -0.4244,4.2419 -0.2531,0.9166 -0.2836,0.9361 -1.4661,0.9361 -0.7662,0 -1.321,-0.1365 -1.5176,-0.3734 z M 548.75,277.92 c -0.4893,-0.2526 -0.6078,-0.4825 -0.5455,-1.0588 0.1125,-1.0426 0.3336,-1.1736 1.6473,-0.9766 1.2429,0.1864 1.7729,0.7368 1.4781,1.5348 -0.3276,0.8865 -1.4213,1.0987 -2.5799,0.5006 z" />
</svg>
