<?xml version="1.0" encoding="UTF-8" standalone="no"?>
<!-- Created with Inkscape (http://www.inkscape.org/) -->

<svg
   xmlns:dc="http://purl.org/dc/elements/1.1/"
   xmlns:cc="http://creativecommons.org/ns#"
   xmlns:rdf="http://www.w3.org/1999/02/22-rdf-syntax-ns#"
   xmlns:svg="http://www.w3.org/2000/svg"
   xmlns="http://www.w3.org/2000/svg"
   xmlns:sodipodi="http://sodipodi.sourceforge.net/DTD/sodipodi-0.dtd"
   xmlns:inkscape="http://www.inkscape.org/namespaces/inkscape"
   id="svg3295"
   version="1.1"
   inkscape:version="0.48.4 r9939"
   width="698.5"
   height="832"
   sodipodi:docname="Afrika_lxn.svg">
  <metadata
     id="metadata3301">
    <rdf:RDF>
      <cc:Work
         rdf:about="">
        <dc:format>image/svg+xml</dc:format>
        <dc:type
           rdf:resource="http://purl.org/dc/dcmitype/StillImage" />
        <dc:title></dc:title>
      </cc:Work>
    </rdf:RDF>
  </metadata>
  <defs
     id="defs3299" />
  <sodipodi:namedview
     pagecolor="#ffffff"
     bordercolor="#666666"
     borderopacity="1"
     objecttolerance="10"
     gridtolerance="10"
     guidetolerance="10"
     inkscape:pageopacity="0"
     inkscape:pageshadow="2"
     inkscape:window-width="1362"
     inkscape:window-height="1048"
     id="namedview3297"
     showgrid="false"
     inkscape:zoom="0.9314772"
     inkscape:cx="212.04592"
     inkscape:cy="639.62271"
     inkscape:window-x="0"
     inkscape:window-y="0"
     inkscape:window-maximized="0"
     inkscape:current-layer="svg3295" />
  <path
     id="path3670"
     style="fill:#ff0000"
     d="m 201.6875,349.7066 c -0.5156,-0.3052 -0.9375,-0.744 -0.9375,-0.9752 0,-0.7113 0.7251,-2.2009 1.1871,-2.4389 0.522,-0.2689 6.9208,0.111 7.7504,0.4601 0.476,0.2003 0.5625,0.4276 0.5625,1.4773 0,0.7179 -0.1317,1.3258 -0.3125,1.4429 -0.1719,0.1112 -1.4375,0.2166 -2.8125,0.2343 -1.375,0.018 -2.95,0.1045 -3.5,0.1932 -0.783,0.1262 -1.2034,0.041 -1.9375,-0.3937 z M 76.3793,348.7569 c -0.092,-0.1495 -1.2861,-0.8328 -2.6527,-1.5187 -2.599,-1.3042 -4.4824,-2.7604 -4.4683,-3.4548 0.01,-0.4201 0.557,-1.1588 1.2888,-1.7359 0.3572,-0.2817 0.7782,-0.1157 3.0123,1.1875 1.4284,0.8333 2.7744,1.515 2.9911,1.515 0.2168,0 0.6377,0.1972 0.9353,0.4383 0.4718,0.382 0.5315,0.6468 0.4652,2.0625 -0.072,1.5495 -0.1065,1.6277 -0.7399,1.701 -0.3651,0.042 -0.7395,-0.045 -0.8318,-0.1949 z M 352.75,347.2674 c -1.1687,-0.084 -2.2656,-0.242 -2.4375,-0.3502 -0.6271,-0.3947 -0.2989,-2.7971 0.4074,-2.9818 0.233,-0.061 2.1436,-0.036 4.2458,0.055 2.9136,0.1265 3.8761,0.2514 4.0494,0.5252 0.3298,0.5212 0.2859,2.3333 -0.065,2.6842 -0.3177,0.3177 -2.4175,0.3405 -6.2,0.067 z m 16.4375,-0.2874 c -0.3239,-0.1887 -0.4375,-0.5778 -0.4375,-1.4986 0,-1.5581 0,-1.5589 4.6827,-1.9803 2.6925,-0.2424 3.6422,-0.2501 3.9054,-0.032 0.3902,0.3238 0.7083,1.8687 0.4978,2.4173 -0.191,0.4979 -1.4866,0.7922 -4.8359,1.0986 -3.4272,0.3135 -3.2647,0.3137 -3.8125,-0.01 z M 86.9973,345.4375 c -0.8423,-1.3814 -0.6209,-1.812 1.7101,-3.3268 0.5953,-0.3869 1.2703,-1.0902 1.5,-1.5628 0.3183,-0.6552 0.7148,-0.9723 1.6676,-1.3341 1.7986,-0.6829 2.3515,-0.551 2.7712,0.6612 0.1905,0.55 0.348,1.1882 0.35,1.4182 0.01,0.8759 -5.7296,4.9568 -6.969,4.9568 -0.3348,0 -0.7197,-0.3036 -1.0299,-0.8125 z M 338,345.733 c -0.6187,-0.1143 -2.2158,-0.3916 -3.549,-0.6161 -1.338,-0.2253 -2.5566,-0.568 -2.7199,-0.7647 -0.3691,-0.4448 -0.1368,-2.0536 0.3696,-2.5601 0.3168,-0.3168 0.6885,-0.3239 2.6959,-0.051 3.4146,0.4634 5.5023,0.9381 5.7529,1.3081 0.2856,0.4215 0.084,2.1138 -0.3076,2.586 -0.3309,0.3987 -0.5613,0.4087 -2.2419,0.098 z m -147.6966,-1.3472 c -1.4953,-1.636 -2.0534,-3.1435 -2.0534,-5.546 0,-1.3896 0.079,-1.6424 0.6849,-2.2047 0.8236,-0.7636 0.9608,-0.773 2.0026,-0.1379 0.795,0.4848 0.8125,0.5341 0.8125,2.2867 0,1.3651 0.1419,2.0944 0.5967,3.0661 1.6395,3.5033 1.6413,3.5617 0.1171,3.809 -0.805,0.1307 -0.962,0.038 -2.1604,-1.2732 z m 197.383,0.015 c -0.4799,-0.4798 -0.779,-1.7149 -0.5728,-2.3646 0.1638,-0.5162 0.7625,-0.7113 4.6946,-1.5297 2.6509,-0.5517 3.8343,-0.6326 4.054,-0.2771 0.078,0.1261 0.2108,0.7335 0.2953,1.3499 0.1935,1.4121 0.066,1.4887 -3.8542,2.3169 -1.6105,0.3403 -3.2192,0.682 -3.5749,0.7594 -0.4132,0.09 -0.7893,0 -1.042,-0.2548 z m -152.5614,-0.8764 -1.5,-0.1493 -0.076,-1.0529 c -0.1461,-2.0136 -0.024,-2.0755 4.0227,-2.0471 1.9545,0.014 3.8287,0.1016 4.1649,0.1955 0.8002,0.2233 1.1688,1.5126 0.7079,2.4758 -0.323,0.675 -0.34,0.6789 -3.072,0.703 -1.5109,0.013 -3.4221,-0.043 -4.2471,-0.125 z m 17.2642,-0.5799 c -0.4983,-0.7113 -0.5012,-2.0402 -0.01,-2.4516 0.567,-0.4706 8.0037,-0.8973 8.4974,-0.4876 0.5415,0.4494 0.5018,2.6403 -0.052,2.8527 -0.4172,0.1601 -5.7214,0.6256 -7.2528,0.6365 -0.5459,0 -0.9214,-0.1701 -1.1875,-0.55 z m -36.9517,-1.3772 c -0.3781,-0.3957 -0.6875,-0.9002 -0.6875,-1.121 0,-0.9017 2.319,-2.1907 3.948,-2.1947 0.7699,0 4.2861,0.703 4.9895,1.0002 0.6356,0.2686 0.7219,0.9666 0.2771,2.2424 l -0.2853,0.8185 -1.9022,-0.2077 c -2.176,-0.2376 -3.8205,-0.2337 -4.9021,0.011 -0.6217,0.1411 -0.8676,0.047 -1.4375,-0.5493 z m 103.2152,0.2738 c -1.5076,-0.5439 -4.1891,-0.7435 -5.967,-0.444 -1.381,0.2326 -2.0003,-0.3124 -3.2167,-2.8314 -0.5818,-1.2048 -1.3842,-2.6543 -1.7829,-3.2212 -0.8178,-1.1624 -1.134,-2.7574 -0.7054,-3.5582 0.208,-0.3886 0.5235,-0.5361 1.1467,-0.5361 0.7025,0 0.9307,0.1372 1.2476,0.75 0.2133,0.4125 0.5341,0.75 0.7129,0.75 0.4776,0 1.271,0.9531 1.99,2.3907 0.3482,0.6962 0.7853,1.392 0.9712,1.5463 0.7184,0.5962 5.1208,1.813 6.5595,1.813 0.5012,0 1.3568,0.2273 1.9014,0.5051 0.8135,0.415 0.99,0.6358 0.99,1.2382 0,0.4033 -0.1305,1.0197 -0.2901,1.3699 -0.253,0.5554 -0.4369,0.6331 -1.4375,0.6077 -0.6311,-0.016 -1.5849,-0.1871 -2.1197,-0.38 z m -47.3402,-0.101 c -0.4882,-0.1942 -0.5625,-0.4057 -0.5625,-1.6021 0,-1.5771 -0.3199,-1.3934 3.5,-2.0093 2.6442,-0.4263 4.8924,-0.5694 5.135,-0.3268 0.088,0.088 0.267,0.6381 0.3984,1.2232 0.3693,1.6436 -0.011,1.8717 -3.9084,2.3445 -1.7875,0.2169 -3.4187,0.4393 -3.625,0.4943 -0.2063,0.055 -0.6281,0 -0.9375,-0.1238 z m 134.4262,-1.8785 c -0.1774,-0.2138 -0.3318,-0.8437 -0.3431,-1.3998 -0.02,-0.9794 0.017,-1.026 1.1671,-1.4822 0.6532,-0.2592 2.1658,-1.0918 3.3613,-1.8503 1.1956,-0.7585 2.2526,-1.3791 2.349,-1.3791 0.3079,0 1.727,1.7533 1.727,2.1337 0,0.5353 -0.6752,1.1283 -2.7732,2.436 -2.9009,1.808 -4.8197,2.347 -5.4881,1.5417 z m -116.1761,-1.161 c -0.4935,-0.5946 -0.6596,-2.3086 -0.2562,-2.6435 0.434,-0.3602 6.208,-1.5569 7.5119,-1.5569 0.7951,0 0.9845,0.1063 1.2001,0.6734 0.1408,0.3704 0.2224,1.0173 0.1813,1.4375 -0.084,0.8582 -0.4761,1.0313 -3.9497,1.7438 -3.1778,0.6518 -4.361,0.7391 -4.6874,0.3457 z M 61.7004,335.5627 c -1.1267,-1.3071 -3.9557,-6.0569 -3.9436,-6.6212 0.01,-0.3851 1.6526,-2.1913 1.995,-2.1913 0.329,0 1.6461,1.8314 2.4272,3.375 0.348,0.6875 1.0266,1.7905 1.5081,2.4511 0.4815,0.6606 0.8754,1.4975 0.8754,1.8599 0,1.3003 -2.0252,2.0975 -2.8621,1.1265 z m 39.3056,-1.6717 c -0.3489,-0.9176 -0.322,-2.0262 0.056,-2.332 0.6699,-0.5411 6.7268,-3.5585 7.1326,-3.5532 0.2364,0 0.6911,0.2065 1.0103,0.4521 0.4645,0.3573 0.5644,0.6405 0.5,1.417 -0.08,0.9701 -0.082,0.971 -3.3304,2.7045 -1.7875,0.9537 -3.6692,1.7905 -4.1815,1.8595 -0.8334,0.1123 -0.9584,0.055 -1.1875,-0.5479 z m 80.7286,-1.7353 c -0.5111,-0.3499 -1.2248,-1.2317 -1.6753,-2.07 -0.4317,-0.8033 -1.2487,-2.0172 -1.8156,-2.6976 -0.9161,-1.0995 -1.0122,-1.3358 -0.8643,-2.1244 0.2018,-1.0757 0.486,-1.2887 1.606,-1.2038 1.1641,0.088 2.8022,2.016 5.385,6.337 l 0.4955,0.8289 -0.5202,0.6997 c -0.6776,0.9115 -1.5088,0.9848 -2.6111,0.2302 z m 240.057,-0.9804 c -0.3589,-0.4324 -0.6101,-2.225 -0.3628,-2.5888 0.2428,-0.3571 5.7419,-1.4249 7.4462,-1.4459 l 1.25,-0.015 0.2312,1.1973 c 0.1816,0.9402 0.1547,1.2696 -0.125,1.5335 -0.3108,0.2933 -6.6965,1.6442 -7.772,1.6442 -0.2189,0 -0.5193,-0.1462 -0.6676,-0.3249 z m 17.9805,-4.5802 c -0.5683,-2.0468 -0.6216,-2.0049 4.2962,-3.3813 2.4323,-0.6808 3.5822,-0.8999 3.7952,-0.7231 0.1681,0.1395 0.4453,0.72 0.6161,1.29 0.2621,0.8747 0.2526,1.0945 -0.061,1.4077 -0.4486,0.4486 -5.5802,2.04 -7.2108,2.2362 l -1.1668,0.1404 -0.2693,-0.9699 z M 117.806,326.1877 c -0.2253,-0.2758 -0.4319,-2.0228 -0.3396,-2.8708 0.018,-0.1695 0.575,-0.5826 1.2368,-0.918 1.4519,-0.7357 1.748,-1.071 2.4169,-2.7364 0.567,-1.4117 0.2854,-1.3126 3.095,-1.0886 0.617,0.049 1.1784,0.2449 1.2936,0.4508 0.242,0.4324 -0.3468,3.4373 -0.8729,4.4546 -0.2163,0.4183 -0.6557,0.7814 -1.0646,0.8797 -0.3829,0.092 -1.1462,0.4815 -1.6962,0.8655 -0.55,0.384 -1.5279,0.8281 -2.1732,0.9869 -1.4677,0.3613 -1.5825,0.3599 -1.8958,-0.024 z m 339.8478,-5.0537 c -0.4804,-0.7331 -0.5296,-1.9778 -0.091,-2.308 0.4734,-0.3567 6.8396,-2.8258 7.286,-2.8258 0.8358,0 1.7586,2.4149 1.1106,2.9064 -0.5466,0.4145 -6.876,2.8436 -7.4096,2.8436 -0.2706,0 -0.6737,-0.2773 -0.8957,-0.6162 z M 51.7107,318.5433 c -0.7779,-0.505 -2.0998,-1.3351 -2.9375,-1.8448 -1.4477,-0.8807 -1.5232,-0.9753 -1.5232,-1.9069 0,-1.0214 0.2453,-1.3639 1.1829,-1.6512 0.7171,-0.2198 6.577,3.0704 7.3155,4.1075 0.7814,1.0974 0.656,1.6269 -0.4649,1.9627 -1.4652,0.439 -2.0313,0.3333 -3.5728,-0.6673 z m 120.3898,-1.0172 c -0.6606,-0.4029 -0.7973,-0.6648 -0.9295,-1.7809 -0.085,-0.7197 -0.3827,-1.7161 -0.6611,-2.2143 -1.8553,-3.3201 -1.8946,-3.4425 -1.4233,-4.4307 0.4059,-0.8513 0.4938,-0.9024 1.3214,-0.7681 0.4877,0.079 1.065,0.29 1.283,0.4685 0.4886,0.4002 2.4034,4.4434 2.7977,5.9076 0.368,1.3668 0.01,2.6004 -0.8827,3.0052 -0.7684,0.3501 -0.5872,0.3726 -1.5055,-0.1873 z m 303.0339,-2.8515 c -0.6426,-0.9807 -0.7333,-2.0093 -0.2168,-2.4601 0.6536,-0.5704 6.6807,-2.5148 7.4994,-2.4193 0.5776,0.067 0.7446,0.2691 1.0558,1.2749 0.4794,1.55 0.3818,1.6373 -2.9728,2.659 -1.4437,0.4398 -3.0788,0.9619 -3.6333,1.1603 -1.2949,0.4633 -1.2874,0.4643 -1.7323,-0.2148 z m 26.7,-4.7994 c -0.6551,-0.6187 -1.3076,-1.1241 -1.4502,-1.123 -0.1425,0 -1.6067,0.2823 -3.2536,0.625 -1.647,0.3427 -3.1996,0.623 -3.4503,0.623 -0.4801,0 -1.1803,-1.3247 -1.1803,-2.2332 0,-0.6768 0.6622,-0.9839 3.345,-1.5514 4.8414,-1.0242 5.0292,-1.0433 5.8882,-0.5991 0.9987,0.5165 1.6282,0.3218 2.0203,-0.6246 0.3361,-0.8116 0.5227,-0.8791 1.2922,-0.4672 0.282,0.1509 2.159,0.3803 4.1711,0.5098 2.7261,0.1754 3.7298,0.3297 3.9394,0.6056 0.2845,0.3745 0.1838,2.5679 -0.134,2.92 -0.092,0.1017 -1.1255,0.068 -2.2969,-0.076 -1.1715,-0.1433 -2.8546,-0.2265 -3.7401,-0.1849 -1.5657,0.074 -1.6218,0.1 -2.0315,0.9507 -0.4937,1.0251 -1.1605,1.75 -1.6098,1.75 -0.1752,0 -0.8545,-0.5062 -1.5095,-1.125 z m 41.5937,0.6482 c -1.8319,-0.16 -2.1678,-0.4074 -2.1743,-1.6021 -0.01,-1.4067 0.3435,-1.6711 2.2185,-1.6711 1.4718,0 1.7968,-0.085 2.3791,-0.625 0.4782,-0.4432 0.9563,-0.625 1.6436,-0.625 1.4925,0 1.7965,0.4671 1.6011,2.46 -0.09,0.9158 -0.2744,1.8056 -0.4103,1.9775 -0.2599,0.3288 -2.1249,0.3592 -5.2577,0.086 z m -418.0973,-0.8357 c -0.8349,-0.9274 -0.8663,-1.1105 -0.4488,-2.6164 0.8624,-3.1098 0.8938,-3.1332 4.5538,-3.4065 1.6738,-0.125 1.8676,-0.087 2.5625,0.4973 0.4134,0.3479 0.7517,0.8526 0.7517,1.1217 0,0.7601 -1.1124,1.7164 -1.9967,1.7164 -1.1587,0 -2.4305,0.6231 -2.6323,1.2897 -0.2366,0.7818 -1.3634,1.9603 -1.8742,1.9603 -0.2253,0 -0.6375,-0.2531 -0.916,-0.5625 z m 400.7146,-0.2067 c -1.4358,-0.1102 -2.7501,-0.3395 -2.9641,-0.5171 -0.4691,-0.3893 -0.3205,-2.3989 0.204,-2.7585 0.1983,-0.1359 1.849,-0.1671 3.9647,-0.075 4.4552,0.1942 4.8707,0.3762 4.6819,2.0508 -0.07,0.6219 -0.2803,1.2276 -0.4672,1.346 -0.3892,0.2466 -1.7555,0.2349 -5.4193,-0.046 z M 40.125,305.8532 c -1.2541,-1.1277 -2.5336,-1.7925 -3.8576,-2.0042 -1.1101,-0.1775 -1.2383,-0.2959 -1.678,-1.5497 -0.2559,-0.7296 -0.2288,-0.8827 0.2326,-1.3125 0.8078,-0.7526 2.7022,-0.6522 4.5955,0.2435 1.7394,0.8229 4.0854,2.9298 4.0769,3.6615 -0.01,0.7491 -0.7912,1.5849 -1.6194,1.7296 -0.6092,0.1064 -0.9378,-0.038 -1.75,-0.7682 z m 121.1368,-5.4963 c -1.2587,-0.9039 -2.6723,-1.8037 -3.1412,-1.9996 -1.4336,-0.599 -1.7924,-1.8737 -0.792,-2.8135 1.0379,-0.975 2.0041,-0.6648 5.5605,1.7853 2.6841,1.8491 2.9615,2.1815 2.7522,3.2974 -0.163,0.8684 -0.8094,1.3737 -1.7573,1.3737 -0.1835,0 -1.3634,-0.7395 -2.6222,-1.6433 z m -21.606,0.1077 c -0.659,-0.5675 -0.6723,-0.6264 -0.3576,-1.5838 0.3053,-0.929 0.4171,-1.0156 1.7018,-1.3182 0.7563,-0.1781 2.6212,-0.3933 4.1444,-0.4781 l 2.7693,-0.1543 0.8384,0.749 c 0.8025,0.7171 0.8243,0.7829 0.5106,1.5404 -0.1803,0.4353 -0.4538,0.8706 -0.6078,0.9674 -0.1539,0.097 -1.6299,0.2555 -3.2799,0.3525 -1.65,0.097 -3.4578,0.2524 -4.0173,0.3453 -0.8535,0.1419 -1.1277,0.074 -1.7019,-0.4202 z M 17.9795,299.5714 c -0.1445,-0.3801 -0.194,-1.0569 -0.1101,-1.5041 0.2026,-1.0803 0.6954,-1.1968 4.9574,-1.1721 3.3888,0.02 3.4638,0.032 4.1144,0.6826 l 0.6627,0.6626 -0.5383,0.9424 -0.5383,0.9424 -4.1425,0.069 -4.1426,0.068 -0.2627,-0.6909 z m 529.0218,-3.4446 c -0.4977,-0.5997 0.085,-7.8885 0.6644,-8.3123 0.522,-0.3816 1.3216,-0.4018 2.2307,-0.056 l 0.6789,0.2581 -0.1659,3.3058 c -0.091,1.8182 -0.2823,3.727 -0.4244,4.2419 -0.2531,0.9166 -0.2836,0.9361 -1.4661,0.9361 -0.7662,0 -1.321,-0.1365 -1.5176,-0.3734 z M 548.75,277.92 c -0.4893,-0.2526 -0.6078,-0.4825 -0.5455,-1.0588 0.1125,-1.0426 0.3336,-1.1736 1.6473,-0.9766 1.2429,0.1864 1.7729,0.7368 1.4781,1.5348 -0.3276,0.8865 -1.4213,1.0987 -2.5799,0.5006 z" />
</svg>
