<?xml version="1.0" encoding="UTF-8" standalone="no"?>
<!-- Created with Inkscape (http://www.inkscape.org/) -->

<svg
   xmlns:dc="http://purl.org/dc/elements/1.1/"
   xmlns:cc="http://creativecommons.org/ns#"
   xmlns:rdf="http://www.w3.org/1999/02/22-rdf-syntax-ns#"
   xmlns:svg="http://www.w3.org/2000/svg"
   xmlns="http://www.w3.org/2000/svg"
   xmlns:sodipodi="http://sodipodi.sourceforge.net/DTD/sodipodi-0.dtd"
   xmlns:inkscape="http://www.inkscape.org/namespaces/inkscape"
   id="svg3295"
   version="1.1"
   inkscape:version="0.48.4 r9939"
   width="698.5"
   height="832"
   sodipodi:docname="Afrika_lxn.svg">
  <metadata
     id="metadata3301">
    <rdf:RDF>
      <cc:Work
         rdf:about="">
        <dc:format>image/svg+xml</dc:format>
        <dc:type
           rdf:resource="http://purl.org/dc/dcmitype/StillImage" />
        <dc:title></dc:title>
      </cc:Work>
    </rdf:RDF>
  </metadata>
  <defs
     id="defs3299" />
  <sodipodi:namedview
     pagecolor="#ffffff"
     bordercolor="#666666"
     borderopacity="1"
     objecttolerance="10"
     gridtolerance="10"
     guidetolerance="10"
     inkscape:pageopacity="0"
     inkscape:pageshadow="2"
     inkscape:window-width="1362"
     inkscape:window-height="1048"
     id="namedview3297"
     showgrid="false"
     inkscape:zoom="2.6346154"
     inkscape:cx="175.11093"
     inkscape:cy="479.64187"
     inkscape:window-x="0"
     inkscape:window-y="0"
     inkscape:window-maximized="0"
     inkscape:current-layer="svg3295" />
  <path
     id="path3831"
     style="fill:#ff0000"
     d="m 252.5881,425.0017 c -0.6618,-0.267 -0.9939,-0.7517 -0.5151,-0.7517 0.5945,0 1.927,0.5355 1.927,0.7744 0,0.2782 -0.6939,0.267 -1.4119,-0.023 z m 3.8494,-9.5532 c -0.5156,-0.3007 -0.9375,-0.7352 -0.9375,-0.9655 0,-0.2303 0.543,-1.5863 1.2067,-3.0134 0.6636,-1.427 1.3931,-3.0165 1.6209,-3.5321 0.4862,-1.1001 1.0593,-1.2027 2.3304,-0.4171 0.5442,0.3363 0.842,0.7154 0.842,1.0718 0,0.7988 -3.3056,7.2717 -3.75,7.343 -0.2062,0.033 -0.7969,-0.1859 -1.3125,-0.4867 z m 8.25,-16.4773 C 264.3094,398.6891 264,398.2213 264,397.9317 c 0,-0.7198 3.0867,-5.9801 3.9873,-6.7952 0.4596,-0.416 0.5281,-0.4099 1.4945,0.1333 0.557,0.3131 1.0718,0.7553 1.144,0.9827 0.1325,0.4176 -1.7909,3.9695 -3.3081,6.109 -0.9135,1.2881 -1.5295,1.4309 -2.6302,0.6097 z m 10.125,-15.6171 C 274.3656,383.0019 274,382.5043 274,382.2483 c 0,-0.5767 2.6016,-4.4929 3.9551,-5.9536 l 1.0009,-1.0803 0.7697,0.398 c 0.4233,0.2189 0.9562,0.6828 1.1843,1.0309 0.3954,0.6035 0.3871,0.6701 -0.1779,1.4323 -0.326,0.4397 -1.2045,1.6994 -1.9524,2.7994 -2.3417,3.4445 -2.5651,3.5841 -3.9672,2.4791 z m 11,-15 C 285.3656,368.0019 285,367.5219 285,367.2874 c 0,-0.7595 4.9568,-6.5374 5.6084,-6.5374 0.4261,0 1.5785,0.9149 1.8934,1.5033 0.2067,0.3862 -0.177,0.9935 -2.278,3.6056 -2.771,3.445 -3.0244,3.5883 -4.4113,2.4952 z m 12.0634,-14.2121 c -0.8447,-0.7966 -0.8862,-0.9024 -0.5803,-1.4794 0.437,-0.8244 5.3613,-5.9126 5.7222,-5.9126 0.4215,0 1.9822,1.6416 1.9822,2.085 0,0.4761 -5.431,6.165 -5.8854,6.165 -0.181,0 -0.7384,-0.3861 -1.2387,-0.858 z m -96.1884,-4.4354 c -0.5156,-0.3052 -0.9375,-0.744 -0.9375,-0.9752 0,-0.7113 0.7251,-2.2009 1.1871,-2.4389 0.522,-0.2689 6.9208,0.111 7.7504,0.4601 0.476,0.2003 0.5625,0.4276 0.5625,1.4773 0,0.7179 -0.1317,1.3258 -0.3125,1.4429 -0.1719,0.1112 -1.4375,0.2166 -2.8125,0.2343 -1.375,0.018 -2.95,0.1045 -3.5,0.1932 -0.783,0.1262 -1.2034,0.041 -1.9375,-0.3937 z M 76.3793,348.7569 c -0.092,-0.1495 -1.2861,-0.8328 -2.6527,-1.5187 -2.599,-1.3042 -4.4824,-2.7604 -4.4683,-3.4548 0.01,-0.4201 0.557,-1.1588 1.2888,-1.7359 0.3572,-0.2817 0.7782,-0.1157 3.0123,1.1875 1.4284,0.8333 2.7744,1.515 2.9911,1.515 0.2168,0 0.6377,0.1972 0.9353,0.4383 0.4718,0.382 0.5315,0.6468 0.4652,2.0625 -0.072,1.5495 -0.1065,1.6277 -0.7399,1.701 -0.3651,0.042 -0.7395,-0.045 -0.8318,-0.1949 z m 10.618,-3.3194 c -0.8423,-1.3814 -0.6209,-1.812 1.7101,-3.3268 0.5953,-0.3869 1.2703,-1.0902 1.5,-1.5628 0.3183,-0.6552 0.7148,-0.9723 1.6676,-1.3341 1.7986,-0.6829 2.3515,-0.551 2.7712,0.6612 0.1905,0.55 0.348,1.1882 0.35,1.4182 0.01,0.8759 -5.7296,4.9568 -6.969,4.9568 -0.3348,0 -0.7197,-0.3036 -1.0299,-0.8125 z m 103.3061,-1.0517 c -1.4953,-1.636 -2.0534,-3.1435 -2.0534,-5.546 0,-1.3896 0.079,-1.6424 0.6849,-2.2047 0.8236,-0.7636 0.9608,-0.773 2.0026,-0.1379 0.795,0.4848 0.8125,0.5341 0.8125,2.2867 0,1.3651 0.1419,2.0944 0.5967,3.0661 1.6395,3.5033 1.6413,3.5617 0.1171,3.809 -0.805,0.1307 -0.962,0.038 -2.1604,-1.2732 z m 44.8216,-0.8614 -1.5,-0.1493 -0.076,-1.0529 c -0.1461,-2.0136 -0.024,-2.0755 4.0227,-2.0471 1.9545,0.014 3.8287,0.1016 4.1649,0.1955 0.8002,0.2233 1.1688,1.5126 0.7079,2.4758 -0.323,0.675 -0.34,0.6789 -3.072,0.703 -1.5109,0.013 -3.4221,-0.043 -4.2471,-0.125 z m 17.2642,-0.5799 c -0.4983,-0.7113 -0.5012,-2.0402 -0.01,-2.4516 0.567,-0.4706 8.0037,-0.8973 8.4974,-0.4876 0.5415,0.4494 0.5018,2.6403 -0.052,2.8527 -0.4172,0.1601 -5.7214,0.6256 -7.2528,0.6365 -0.5459,0 -0.9214,-0.1701 -1.1875,-0.55 z m -36.9517,-1.3772 c -0.3781,-0.3957 -0.6875,-0.9002 -0.6875,-1.121 0,-0.9017 2.319,-2.1907 3.948,-2.1947 0.7699,0 4.2861,0.703 4.9895,1.0002 0.6356,0.2686 0.7219,0.9666 0.2771,2.2424 l -0.2853,0.8185 -1.9022,-0.2077 c -2.176,-0.2376 -3.8205,-0.2337 -4.9021,0.011 -0.6217,0.1411 -0.8676,0.047 -1.4375,-0.5493 z m 97.2482,-0.1702 c -1.381,0.2326 -2.0003,-0.3124 -3.2167,-2.8314 -0.5818,-1.2048 -1.3842,-2.6543 -1.7829,-3.2212 -0.8178,-1.1624 -1.134,-2.7574 -0.7054,-3.5582 0.208,-0.3886 0.5235,-0.5361 1.1467,-0.5361 0.7025,0 0.9307,0.1372 1.2476,0.75 0.2133,0.4125 0.5341,0.75 0.7129,0.75 0.4776,0 1.271,0.9531 1.99,2.3907 0.3482,0.6962 0.9195,2.23072 1.1054,2.38502 0.27739,1.30664 0.31054,2.18883 -0.4976,3.87118 z m -41.3732,0.343 c -0.4882,-0.1942 -0.5625,-0.4057 -0.5625,-1.6021 0,-1.5771 -0.3199,-1.3934 3.5,-2.0093 2.6442,-0.4263 4.8924,-0.5694 5.135,-0.3268 0.088,0.088 0.267,0.6381 0.3984,1.2232 0.3693,1.6436 -0.011,1.8717 -3.9084,2.3445 -1.7875,0.2169 -3.4187,0.4393 -3.625,0.4943 -0.2063,0.055 -0.6281,0 -0.9375,-0.1238 z m 18.2501,-3.0395 c -0.4935,-0.5946 -0.6596,-2.3086 -0.2562,-2.6435 0.434,-0.3602 6.208,-1.5569 7.5119,-1.5569 0.7951,0 0.9845,0.1063 1.2001,0.6734 0.1408,0.3704 0.2224,1.0173 0.1813,1.4375 -0.084,0.8582 -0.4761,1.0313 -3.9497,1.7438 -3.1778,0.6518 -4.361,0.7391 -4.6874,0.3457 z M 61.7004,335.5627 c -1.1267,-1.3071 -3.9557,-6.0569 -3.9436,-6.6212 0.01,-0.3851 1.6526,-2.1913 1.995,-2.1913 0.329,0 1.6461,1.8314 2.4272,3.375 0.348,0.6875 1.0266,1.7905 1.5081,2.4511 0.4815,0.6606 0.8754,1.4975 0.8754,1.8599 0,1.3003 -2.0252,2.0975 -2.8621,1.1265 z m 39.3056,-1.6717 c -0.3489,-0.9176 -0.322,-2.0262 0.056,-2.332 0.6699,-0.5411 6.7268,-3.5585 7.1326,-3.5532 0.2364,0 0.6911,0.2065 1.0103,0.4521 0.4645,0.3573 0.5644,0.6405 0.5,1.417 -0.08,0.9701 -0.082,0.971 -3.3304,2.7045 -1.7875,0.9537 -3.6692,1.7905 -4.1815,1.8595 -0.8334,0.1123 -0.9584,0.055 -1.1875,-0.5479 z m 80.7286,-1.7353 c -0.5111,-0.3499 -1.2248,-1.2317 -1.6753,-2.07 -0.4317,-0.8033 -1.2487,-2.0172 -1.8156,-2.6976 -0.9161,-1.0995 -1.0122,-1.3358 -0.8643,-2.1244 0.2018,-1.0757 0.486,-1.2887 1.606,-1.2038 1.1641,0.088 2.8022,2.016 5.385,6.337 l 0.4955,0.8289 -0.5202,0.6997 c -0.6776,0.9115 -1.5088,0.9848 -2.6111,0.2302 z m -63.9286,-5.968 c -0.2253,-0.2758 -0.4319,-2.0228 -0.3396,-2.8708 0.018,-0.1695 0.575,-0.5826 1.2368,-0.918 1.4519,-0.7357 1.748,-1.071 2.4169,-2.7364 0.567,-1.4117 0.2854,-1.3126 3.095,-1.0886 0.617,0.049 1.1784,0.2449 1.2936,0.4508 0.242,0.4324 -0.3468,3.4373 -0.8729,4.4546 -0.2163,0.4183 -0.6557,0.7814 -1.0646,0.8797 -0.3829,0.092 -1.1462,0.4815 -1.6962,0.8655 -0.55,0.384 -1.5279,0.8281 -2.1732,0.9869 -1.4677,0.3613 -1.5825,0.3599 -1.8958,-0.024 z m -66.0953,-7.6444 c -0.7779,-0.505 -2.0998,-1.3351 -2.9375,-1.8448 -1.4477,-0.8807 -1.5232,-0.9753 -1.5232,-1.9069 0,-1.0214 0.2453,-1.3639 1.1829,-1.6512 0.7171,-0.2198 6.577,3.0704 7.3155,4.1075 0.7814,1.0974 0.656,1.6269 -0.4649,1.9627 -1.4652,0.439 -2.0313,0.3333 -3.5728,-0.6673 z m 120.3898,-1.0172 c -0.6606,-0.4029 -0.7973,-0.6648 -0.9295,-1.7809 -0.085,-0.7197 -0.3827,-1.7161 -0.6611,-2.2143 -1.8553,-3.3201 -1.8946,-3.4425 -1.4233,-4.4307 0.4059,-0.8513 0.4938,-0.9024 1.3214,-0.7681 0.4877,0.079 1.065,0.29 1.283,0.4685 0.4886,0.4002 2.4034,4.4434 2.7977,5.9076 0.368,1.3668 0.01,2.6004 -0.8827,3.0052 -0.7684,0.3501 -0.5872,0.3726 -1.5055,-0.1873 z m -46.7697,-7.8384 c -0.8349,-0.9274 -0.8663,-1.1105 -0.4488,-2.6164 0.8624,-3.1098 0.8938,-3.1332 4.5538,-3.4065 1.6738,-0.125 1.8676,-0.087 2.5625,0.4973 0.4134,0.3479 0.7517,0.8526 0.7517,1.1217 0,0.7601 -1.1124,1.7164 -1.9967,1.7164 -1.1587,0 -2.4305,0.6231 -2.6323,1.2897 -0.2366,0.7818 -1.3634,1.9603 -1.8742,1.9603 -0.2253,0 -0.6375,-0.2531 -0.916,-0.5625 z M 40.125,305.8532 c -1.2541,-1.1277 -2.5336,-1.7925 -3.8576,-2.0042 -1.1101,-0.1775 -1.2383,-0.2959 -1.678,-1.5497 -0.2559,-0.7296 -0.2288,-0.8827 0.2326,-1.3125 0.8078,-0.7526 2.7022,-0.6522 4.5955,0.2435 1.7394,0.8229 4.0854,2.9298 4.0769,3.6615 -0.01,0.7491 -0.7912,1.5849 -1.6194,1.7296 -0.6092,0.1064 -0.9378,-0.038 -1.75,-0.7682 z m 121.1368,-5.4963 c -1.2587,-0.9039 -2.6723,-1.8037 -3.1412,-1.9996 -1.4336,-0.599 -1.7924,-1.8737 -0.792,-2.8135 1.0379,-0.975 2.0041,-0.6648 5.5605,1.7853 2.6841,1.8491 2.9615,2.1815 2.7522,3.2974 -0.163,0.8684 -0.8094,1.3737 -1.7573,1.3737 -0.1835,0 -1.3634,-0.7395 -2.6222,-1.6433 z m -21.606,0.1077 c -0.659,-0.5675 -0.6723,-0.6264 -0.3576,-1.5838 0.3053,-0.929 0.4171,-1.0156 1.7018,-1.3182 0.7563,-0.1781 2.6212,-0.3933 4.1444,-0.4781 l 2.7693,-0.1543 0.8384,0.749 c 0.8025,0.7171 0.8243,0.7829 0.5106,1.5404 -0.1803,0.4353 -0.4538,0.8706 -0.6078,0.9674 -0.1539,0.097 -1.6299,0.2555 -3.2799,0.3525 -1.65,0.097 -3.4578,0.2524 -4.0173,0.3453 -0.8535,0.1419 -1.1277,0.074 -1.7019,-0.4202 z M 17.9795,299.5714 c -0.1445,-0.3801 -0.194,-1.0569 -0.1101,-1.5041 0.2026,-1.0803 0.6954,-1.1968 4.9574,-1.1721 3.3888,0.02 3.4638,0.032 4.1144,0.6826 l 0.6627,0.6626 -0.5383,0.9424 -0.5383,0.9424 -4.1425,0.069 -4.1426,0.068 -0.2627,-0.6909 z" />
</svg>
