<?xml version="1.0" encoding="UTF-8" standalone="no"?>
<!-- Created with Inkscape (http://www.inkscape.org/) -->
<svg id="svg3039" xmlns:rdf="http://www.w3.org/1999/02/22-rdf-syntax-ns#" xmlns="http://www.w3.org/2000/svg" height="3328" width="2794" version="1.1" xmlns:cc="http://creativecommons.org/ns#" xmlns:dc="http://purl.org/dc/elements/1.1/">
 <metadata id="metadata3045">
  <rdf:RDF>
   <cc:Work rdf:about="">
    <dc:format>image/svg+xml</dc:format>
    <dc:type rdf:resource="http://purl.org/dc/dcmitype/StillImage"/>
    <dc:title/>
   </cc:Work>
  </rdf:RDF>
 </metadata>
 <path id="path3049" fill="#000" d="m2150.2,2674.8c-2.1409-2.8875-6.8801-8.0247-10.532-11.416-5.7251-5.3173-6.639-6.6437-6.639-9.6361,0-2.9941,0.4884-3.7017,3.5619-5.1601,3.4475-1.636,3.7121-1.6156,8.2416,0.636,3.0828,1.5324,7.3274,5.3435,12.438,11.168,9.2836,10.58,9.8858,13.141,4.0262,17.122-2.0527,1.3949-4.5135,2.5361-5.4685,2.5361s-3.488-2.3625-5.6289-5.25zm-591.58-17.178c-3.1669-5.404-3.1984-6.1325-0.345-7.9924,3.1577-2.0584,27.758-12.58,29.412-12.58,2.1768,0,6.0014,8.7241,4.7171,10.76-0.5822,0.9231-5.6344,3.7631-11.227,6.3113-5.5925,2.5481-10.988,5.3744-11.989,6.2808-1.0015,0.9063-3.2052,1.6478-4.8971,1.6478-2.5812,0-3.4939-0.7127-5.6713-4.4281zm-48.176-2.1737c-11.528-6.0966-14.564-7.3982-17.26-7.3982-3.1901,0-5.2046-1.9193-7.1373-6.8002-1.6606-4.1936,0.097-8.1998,3.5972-8.1998,8.1394,0,28.805,9.6968,32.045,15.036,1.4116,2.3264,1.3603,2.8067-0.6666,6.2421-2.6043,4.4139-4.0592,4.568-10.579,1.1199zm254.75-7.7127c-2.4202-2.5762-2.8287-6.4898-0.9243-8.8571,0.6875-0.8546,4.85-3.4981,9.25-5.8744,4.4-2.3764,10.188-5.8131,12.862-7.6373,2.6742-1.8242,5.6505-3.3167,6.614-3.3167,2.2759,0,7.2751,7.1815,6.4663,9.2891-1.4084,3.6703-25.888,18.711-30.453,18.711-0.9025,0-2.6194-1.0415-3.8153-2.3145zm-324.7-3.4c-1.65-0.8862-4.9825-3.3491-7.4056-5.4731-2.8524-2.5002-5.8013-4.0849-8.3643-4.4948-3.4286-0.5482-4.2083-1.1825-5.8224-4.7369-2.0971-4.6176-2.4259-8.1656-0.8473-9.1412,0.5832-0.3605,3.3095-0.7765,6.0585-0.9246,3.8149-0.2055,5.7537,0.2503,8.1896,1.9255,13.391,9.209,17.48,12.129,19.461,13.896l2.2693,2.0249-4.2275,4.3076c-4.7085,4.7975-5.0637,4.8974-9.3111,2.6162zm648.73-11.614c-3.6998-3.204-8.6206-6.2732-12.426-7.75-6.0777-2.359-6.3109-2.5799-6.6143-6.265-0.3837-4.6601,0.6416-6.0122,5.7114-7.5312,2.7848-0.8343,4.5313-2.2095,6.0284-4.7469,2.03-3.4406,2.2638-3.5466,6.3412-2.8741,6.129,1.0107,6.8751,1.924,6.1342,7.5089-0.6299,4.7482-0.6107,4.7878,5.4836,11.339,6.9813,7.5043,7.9435,11.197,3.6509,14.009-4.4248,2.8992-7.6664,2.0634-14.31-3.6898zm-733.88,2.561c-11.076-0.3977-12.084-1.1527-10.752-8.0506l0.9093-4.7056,8.5-0.2775c4.675-0.1526,12.325,0.072,17,0.5l8.5,0.7775,0.3076,5.4054c0.2076,3.6472-0.1176,5.6751-1,6.2346-1.266,0.803-3.9618,0.8163-23.465,0.1162zm-70.3-2.2c-6.875-0.3138-13.062-0.9346-13.75-1.3795-0.7202-0.4661-1.25-2.8883-1.25-5.7148,0-6.9286,0.9622-7.2657,18.31-6.4143,7.8046,0.3831,14.978,1.1042,15.94,1.6025,1.2951,0.6704,1.75,2.1447,1.75,5.6708,0,5.5952-1.2762,7.2309-5.45,6.9853-1.6775-0.099-8.675-0.4363-15.55-0.75zm418.01-0.6564c-7.0935-1.2672-7.8834-1.875-8.6606-6.6643-0.5209-3.2103-0.2786-3.7337,2.3609-5.0987,2.3742-1.2277,5.5308-1.4183,16.367-0.9884,17.85,0.7083,20.564,1.4178,21.168,5.5348,0.3808,2.5946-0.097,3.6956-2.5907,5.9735-2.9555,2.6995-3.3829,2.7849-12.811,2.5608-5.3646-0.1275-12.489-0.7205-15.833-1.3177zm-558-2.1c-6.1323-0.3919-8-1.9158-8-6.5275,0-6.0195,1.1753-6.7431,10.953-6.7431,4.8857,0,9.5948,0.2731,10.465,0.607,2.0015,0.768,2.2946,11.233,0.3318,11.846-2.5886,0.8091-8.437,1.1566-13.75,0.8171zm75-0.5c-1.375-0.6288-5.6484-2.6344-9.4965-4.4569s-7.5502-3.3137-8.227-3.3137c-1.6459,0-3.896-3.754-4.6219-7.7113-1.2577-6.8559,5.1322-8.2029,14.845-3.1294,3.3,1.7237,8.7,4.1005,12,5.2818l6,2.1478v5.9555,5.9556l-4,0.2069c-2.2,0.1138-5.125-0.3075-6.5-0.9363zm406.94-3.176c-1.0717-2.4229-1.7046-5.0414-1.4062-5.8189,0.2983-0.7775,2.5626-2.3951,5.0317-3.5947,3.5814-1.74,6.2531-2.1762,13.212-2.1571,9.574,0.026,16.11,1.1741,17.257,3.0312,1.0028,1.6225-0.063,9.2447-1.4339,10.257-0.6051,0.4469-5.3,0.5689-10.433,0.2713-6.9768-0.4045-10.227-0.1678-12.872,0.9375-5.7673,2.4098-7.1925,1.9639-9.3559-2.9267zm204.87-16.873c-1.7612-1.437-5.2229-6.5013-6.0891-8.9081-0.9568-2.6585,2.7222-6.3669,9.3539-9.4285,4.3443-2.0056,6.8446-3.9477,8.7665-6.8093,1.7156-2.5545,4.091-4.5371,6.5632-5.478,3.7117-1.4127,3.9526-1.3781,5.7361,0.8245,2.5365,3.1324,2.2944,6.5719-0.9204,13.078-2.8292,5.7253-7.5311,9.9282-17.029,15.222-3.9566,2.2052-5.1678,2.4899-6.3812,1.5zm205.46-22.398c-11.624-4.6385-22.961-20.146-17.596-24.07,4.6027-3.3666,6.236-2.8598,13.041,4.0466,4.4899,4.5565,7.883,7.0534,11.053,8.1334,6.4113,2.1845,8.2394,4.125,8.2394,8.7456,0,3.2338-0.4215,4.0301-2.5651,4.8451-3.558,1.3527-5.038,1.1459-12.172-1.701zm-89.93-15.469c-0.6418-0.8008-0.7563-2.173-0.2799-3.355,0.4434-1.1,0.8378-4.0763,0.8764-6.6141l0.07-4.6141,4.6396-0.6359c2.5517-0.3497,10.396-0.6359,17.433-0.6359,14.131,0,13.075-0.5287,14.376,7.196,0.8072,4.793-0.2063,5.3246-14.113,7.4019-17.084,2.5519-21.759,2.8074-23.002,1.2571zm144.25-6.1695c-1.3563-0.9927-1.8762-2.4984-1.7767-5.1453,0.1453-3.8654,3.8957-25.599,4.8436-28.07,0.8228-2.1441,3.844-2.6842,8.3012-1.4839,3.5021,0.943,4.0492,1.4666,4.0492,3.8756,0,4.2396-2.8079,22.06-4.2761,27.138-1.2347,4.2704-1.5033,4.515-5.2625,4.7944-2.2683,0.1686-4.7809-0.3054-5.8787-1.1089zm-196.9-3.6496c-3.752-1.6005-9.2735-3.2163-12.27-3.5907-4.1931-0.5238-5.9173-1.277-7.4846-3.2696-2.2993-2.923-1.9186-6.8112,0.8812-9.0023,3.0992-2.4254,13.625-0.9711,24.547,3.3916,11.765,4.6991,13.785,7.0369,10.603,12.269-1.6203,2.6645-2.5214,3.1615-5.6899,3.1387-2.0706-0.015-6.8345-1.3365-10.587-2.937zm201.19-69.241c-0.8972-0.712-1.9293-3.2964-2.2936-5.743-0.3642-2.4466-1.8558-8.4356-3.3146-13.309-2.4893-8.3156-2.5539-9.0228-1.0508-11.5,1.0653-1.7557,3.3851-3.221,6.9278-4.3759,2.9294-0.9549,5.3557-1.6531,5.3918-1.5515,0.036,0.1016,0.6068,1.4435,1.2681,2.9819,0.6614,1.5383,1.2236,4.4633,1.2494,6.5,0.026,2.0366,0.8466,8.551,1.824,14.476,1.2539,7.6018,1.4609,11.028,0.7031,11.637-2.0739,1.6671-8.9981,2.239-10.705,0.8841zm-5.1188-73.875c-1.5511-0.9034-1.75-2.835-1.75-16.994,0-15.651,0.046-15.992,2.25-16.817,8.8519-3.3115,9.7356-2.2998,9.7939,11.213,0.026,5.9721,0.6105,11.768,1.4148,14.024,1.0031,2.8133,1.0993,4.6245,0.3583,6.75-0.9246,2.6523-1.4172,2.9023-5.6648,2.8745-2.5587-0.017-5.4397-0.4891-6.4022-1.0497zm-14.43-70.701c-0.649-0.4127-2.1603-3.8933-3.3584-7.7347-1.1981-3.8413-3.497-10.39-5.1087-14.552s-2.6723-8.2397-2.3569-9.0616c0.674-1.7564,6.0216-3.8711,9.7892-3.8711,2.5237,0,2.8483,0.648,7.179,14.334,2.4947,7.8835,4.5358,15.051,4.5358,15.927,0,3.5733-7.4322,7.0235-10.68,4.958zm-15.675-72.716c-0.9033-0.9032-1.9184-2.8483-2.2558-4.3223-0.3374-1.4741-2.1496-7.8379-4.0272-14.142-1.8776-6.3039-3.1992-12.021-2.9368-12.705,0.7-1.8241,8.2133-5.4093,9.9441-4.7452,2.3017,0.8833,10.63,26.085,10.63,32.166,0,3.6015-8.647,6.4555-11.355,3.7477zm-112.4-20.7c-3.0632-3.2672-15.475-21.871-16.572-24.841-0.3233-0.8749-0.212-2.1988,0.2474-2.9421,1.0079-1.6309,8.6576-4.028,10.544-3.3041,0.7403,0.2841,2.6808,2.8815,4.3121,5.772,3.1525,5.586,7.7374,10.739,12.583,14.142l2.9577,2.0771-2.9588,6.1598c-3.5747,7.4422-6.2307,8.1439-11.114,2.936zm45.758-8.2848c-1.707-1.9441-3.1036-4.1569-3.1036-4.9172,0-1.8811,13.073-13.564,19.615-17.528,2.9188-1.7689,6.7811-3.2845,8.583-3.368,2.9741-0.1377,3.3598,0.1815,4.1821,3.4611,1.3751,5.484,0.2331,8.1792-4.5982,10.852-2.3549,1.303-6.7566,4.4632-9.7816,7.0226-6.0153,5.0895-10.071,8.0121-11.119,8.0121-0.3707,0-2.0705-1.5907-3.7775-3.5348zm-85.578-57.416c-0.8391-1.6227-1.5274-3.7602-1.5294-4.75,0-0.9899-0.8269-3.1497-1.8329-4.7997-1.7622-2.8903-6.1634-15.343-6.1634-17.439,0-1.6235,7.9117-5.224,10.013-4.557,2.2919,0.7274,8.9828,11.113,8.9965,13.964,0.01,1.1172,1.1303,4.4385,2.5,7.3806,1.3696,2.9421,2.4902,6.4181,2.4902,7.7243,0,2.9184-4.356,5.4264-9.4247,5.4264-2.8909,0-3.798-0.53-5.0496-2.9503zm-15.91-71.193c-0.2833-1.8464-0.7792-9.7009-1.1019-17.454-0.6564-15.772-0.6682-15.739,6.1111-16.856,3.7179-0.6128,4.3418-0.4041,6.323,2.1147,1.4427,1.834,2.0294,3.6613,1.7072,5.3167-0.2701,1.3873,0.1889,6.5037,1.0199,11.37,1.546,9.0521,1.221,14.673-0.9515,16.456-0.6729,0.5523-3.7816,1.3207-6.9081,1.7076l-5.6846,0.7034-0.5151-3.357zm-5.6013-72.83c-0.5808-1.0852-1.4889-4.2561-2.0181-7.0464s-2.8284-8.2148-5.1094-12.054c-4.0878-6.8806-4.1204-7.0107-2.2695-9.0559,1.0328-1.1413,3.071-2.692,4.5292-3.4461,2.358-1.2194,2.9261-1.1548,5.1359,0.5834,4.6163,3.6311,9.011,11.862,10.844,20.31,1.9945,9.1909,1.482,11.111-3.2163,12.051-5.1317,1.0263-6.7788,0.7466-7.8961-1.341zm-4.4346-64.898c-0.296-0.479-1.8614-1.1355-3.4786-1.459-5.5191-1.1038-4.9036-6.4897,1.6728-14.638,8.2704-10.247,14.668-17.032,16.059-17.032,2.3125,0,8.1668,4.9083,8.1668,6.8471,0,0.9599-2.7472,5.3245-6.1048,9.6991-3.3577,4.3746-7.1903,10.091-8.5169,12.704-1.8773,3.697-2.9494,4.75-4.8361,4.75-1.3333,0-2.6664-0.3919-2.9624-0.8708zm18.4-67.8c-1.925-1.361-3.6221-2.8137-3.7713-3.2284-0.1493-0.4146,1.5955-4.7751,3.8773-9.6899,2.2817-4.9148,4.9123-11.158,5.8456-13.874,0.9334-2.7158,2.4092-5.3871,3.2796-5.9362,2.0829-1.3138,9.6529,0.9084,10.485,3.078,1.0665,2.7793-7.4822,26.353-10.861,29.95-2.732,2.908-4.3989,2.8517-8.8558-0.2992zm26.438-63.992c-1.8908-2.0643-3.4378-4.3657-3.4378-5.1142,0-1.7428,4.7686-6.14,13-11.988,3.575-2.5397,7.772-5.6623,9.3267-6.9391,3.8322-3.1472,5.5926-2.828,9.5033,1.7233,4.1589,4.8402,3.681,6.813-2.6299,10.856-2.5851,1.6563-7.4001,5.0385-10.7,7.5159-3.3,2.4775-7.2655,5.2232-8.8122,6.1015-2.7673,1.5715-2.867,1.5371-6.25-2.1563zm59.653-43.011c-1.3044-0.9137-3.771-1.9465-5.4813-2.2952-2.7283-0.5562-3.3768-1.3811-5.2875-6.7265-3.1557-8.8286-3.7783-18.595-1.5829-24.83,1.6612-4.7176,1.9781-5.0179,5.6088-5.3162,2.5902-0.2129,4.4698,0.2464,5.75,1.405,2.2047,1.9952,2.3393,3.7471,0.7459,9.7047-1.0475,3.9164-0.854,5.2378,2.0608,14.073,4.3121,13.071,3.6932,17.842-1.8138,13.985zm2.4271-70.714c-2.3621-1.7272-4.1826-7.6124-6.0476-19.55-1.9803-12.676-1.8872-14.347,0.9477-17.01,1.88-1.7662,3.0886-2.1245,5.4309-1.6101,4.3321,0.9515,5.0514,2.2921,6.2168,11.587,0.5739,4.5768,1.6282,11.111,2.3429,14.52,1.127,5.3765,1.0951,6.5358-0.2402,8.7365-0.8468,1.3956-2.6023,3.0216-3.9012,3.6134-2.9008,1.3217-2.5174,1.3449-4.7493-0.2871zm-979.17-34.63c-2.647-1.068-3.9756-3.0067-2.0605-3.0067,2.3783,0,7.7082,2.142,7.7082,3.0978,0,1.1125-2.7755,1.0678-5.6477-0.091zm15.398-38.213c-2.0625-1.203-3.75-2.9409-3.75-3.8621s2.172-6.3453,4.8266-12.054c2.6546-5.7082,5.5724-12.066,6.4838-14.128,1.9448-4.4006,4.237-4.8109,9.3216-1.6684,2.1768,1.3453,3.368,2.8616,3.368,4.2871,0,3.1953-13.223,29.087-15,29.372-0.825,0.1324-3.1875-0.7436-5.25-1.9466zm958.78-1.1738c-3.1237-3.1237-3.1249-4.5595-0.01-12.12,2.9407-7.1388,2.9718-7.6579,0.8175-13.669-1.5729-4.3888-1.5697-4.8266,0.054-7.3046,1.4778-2.2554,2.3252-2.592,5.869-2.3313,5.7194,0.4206,7.9553,4.3089,8.4497,14.694,0.3364,7.0664,0.1273,8.037-2.9235,13.574-1.9823,3.5977-4.5632,6.7016-6.5063,7.8248l-3.2206,1.8617-2.5294-2.5294zm-30.792-56.695c-4.6587-2.4592-9.8769-9.447-13.207-17.686-3.064-7.5802-3.1576-10.173-0.4897-13.564,1.7798-2.2627,2.3872-2.4629,4.7482-1.5653,4.2044,1.5985,5.9876,3.7016,7.8224,9.2257,1.1743,3.5357,3.3345,6.7408,7.0413,10.448,6.0768,6.0768,6.8604,9.4466,3.0327,13.042-2.8145,2.6441-4.1008,2.6585-8.9476,0.1zm-894.99-8.0408c-1.5125-1.1284-2.75-2.9996-2.75-4.1582,0-2.8793,12.347-23.92,15.949-27.181,1.8383-1.6637,2.112-1.6393,5.9777,0.5334,2.2281,1.2523,4.2873,3.021,4.576,3.9306,0.5302,1.6704-7.1635,15.878-13.232,24.436-3.6538,5.1525-6.1178,5.7236-10.521,2.4388zm869.42-57.93c-3.6894-2.2436-3.8803-3.9174-1.6484-14.454,0.8154-3.8498,1.4826-10.211,1.4826-14.135,0-6.4804,0.2262-7.2836,2.4648-8.7504,3.2646-2.139,4.7268-2.0387,8.0177,0.5499l2.7522,2.1649-0.5012,11.585c-0.6157,14.233-2.6489,21.473-6.6045,23.518-2.5243,1.3054-3.1064,1.2586-5.9632-0.4787zm-828.92-4.5382c-1.7875-1.4087-3.25-3.3993-3.25-4.4233,0-2.3068,10.406-17.972,15.82-23.814l4.0039-4.3212,3.0786,1.592c1.6931,0.8755,3.8249,2.7311,4.7372,4.1235,1.5816,2.4139,1.5486,2.6802-0.7117,5.7292-1.3037,1.7587-4.8179,6.7976-7.8093,11.198-9.3671,13.778-10.261,14.336-15.869,9.9164zm860.88-45.736c-1.7517-1.8977-2.2053-3.2353-1.7341-5.1128,1.1311-4.5066,3.9392-5.3513,20.106-6.048,14.014-0.604,15.214-0.5118,18.25,1.4021,2.6515,1.6712,3.25,2.6893,3.25,5.528,0,2.3982-0.592,3.7964-1.9049,4.499-1.0477,0.5607-9.4852,1.308-18.75,1.6606l-16.845,0.6412-2.3723-2.5701zm-816.9-14.5c-1.7875-1.4087-3.25-3.3288-3.25-4.2669,0-3.038,19.827-26.15,22.434-26.15,1.7045,0,6.314,3.6598,7.5735,6.013,0.8268,1.545-0.7078,3.974-9.112,14.422-11.084,13.78-12.097,14.353-17.645,9.9809zm862.98-25.086c-0.6991-0.2813-1.912-1.7508-2.6953-3.2656-1.3195-2.5515-1.1973-3.1889,1.6606-8.6597,6.5465-12.532,14.784-22.405,18.692-22.405,3.6389,0,5.7892,1.8336,6.5667,5.5998,0.5351,2.5917,0.053,3.8028-2.9435,7.3889-1.9709,2.3591-5.4145,7.4244-7.6525,11.256-5.9716,10.225-8.5463,12.13-13.628,10.086zm-814.73-31.763c-3.3787-3.1865-3.5447-3.6096-2.3212-5.9179,1.7478-3.2976,21.445-23.65,22.889-23.65,1.6861,0,7.9287,6.5665,7.9287,8.3401,0,1.9042-21.724,24.66-23.542,24.66-0.7237,0-2.9533-1.5443-4.9546-3.4319zm-384.75-17.7c-2.0625-1.2208-3.75-2.9762-3.75-3.9009,0-2.8452,2.9002-8.8038,4.7484-9.7557,2.088-1.0755,27.683,0.4439,31.002,1.8403,1.9038,0.8013,2.25,1.7104,2.25,5.9093,0,2.8718-0.52661,5.3033-1.25,5.7715-0.6875,0.4449-5.75,0.8667-11.25,0.9372-5.5,0.07-11.8,0.4183-14,0.773-3.1321,0.5049-4.8136,0.1633-7.75-1.5747zm-501.23-3.7989c-0.3695-0.5979-5.1443-3.3314-10.611-6.0746-10.396-5.2169-17.93-11.042-17.873-13.819,0.0342-1.6803,2.228-4.6351,5.1551-6.9435,1.4289-1.1269,3.1128-0.4631,12.049,4.75,5.7136,3.3329,11.098,6.0599,11.965,6.0599,0.86694,0,2.5505,0.7889,3.7412,1.753,1.887,1.528,2.1259,2.5872,1.8608,8.25-0.29014,6.1981-0.4263,6.5111-2.9597,6.8043-1.4606,0.169-2.9579-0.1818-3.3274-0.7797zm1105.5-5.9c-4.675-0.3376-9.0625-0.9678-9.75-1.4006-2.5083-1.5789-1.1954-11.188,1.6296-11.927,0.9321-0.2437,8.5745-0.1444,16.983,0.2207,11.655,0.5061,15.504,1.0054,16.198,2.1007,1.3192,2.0849,1.1436,9.3331-0.2602,10.737-1.2706,1.2706-9.6702,1.3618-24.8,0.2694zm65.75-1.1495c-1.2956-0.7546-1.75-2.3112-1.75-5.9943,0-6.2324,0.01-6.2355,18.731-7.9212,10.77-0.9698,14.569-1.0006,15.622-0.1269,1.5606,1.2953,2.8332,7.4749,1.9912,9.6693-0.7642,1.9914-5.9464,3.1687-19.344,4.3943-13.709,1.2541-13.059,1.255-15.25-0.021zm-1128.8-6.2c-3.369-5.5255-2.4835-7.2482,6.8404-13.307,2.3812-1.5475,5.0812-4.3605,6-6.2512,1.2734-2.6205,2.8592-3.889,6.6705-5.3362,7.1943-2.7317,9.4061-2.2039,11.085,2.6448,0.76173,2.2,1.3917,4.7527,1.4,5.6727,0.0315,3.5038-22.919,19.827-27.876,19.827-1.339,0-2.8786-1.2146-4.1196-3.25zm1684.4,1.8001c-7.5611-3.2897-15.72-29.642-11.098-35.846,0.6875-0.9227,2.6506-1.9526,4.3625-2.2886,2.6611-0.5224,3.4224-0.1757,5.25,2.3909,1.1756,1.651,2.1375,4.0882,2.1375,5.416,0,3.4523,2.5563,11.466,5.4854,17.197,3.1322,6.1276,3.1882,9.5991,0.2001,12.406-2.6902,2.5274-2.2973,2.4825-6.338,0.7244zm-680.4-0.7c-2.475-0.4573-8.8633-1.5663-14.196-2.4645-5.3517-0.9014-10.226-2.2719-10.88-3.0588-1.4765-1.7791-0.5473-8.2144,1.4786-10.24,1.2673-1.2673,2.7538-1.2957,10.784-0.2058,13.659,1.8538,22.009,3.7526,23.012,5.2324,1.1422,1.6861,0.3369,8.4554-1.2306,10.344-1.3234,1.5946-2.2453,1.6349-8.9675,0.3929zm-590.79-5.3889c-5.98-6.5-8.21-12.5-8.21-22.1,0-5.5583,0.31412-6.5693,2.7398-8.8185,3.2942-3.0546,3.8429-3.0923,8.0102-0.5515,3.1799,1.9389,3.25,2.1362,3.25,9.1464,0,5.4605,0.56771,8.3779,2.3867,12.265,6.558,14.013,6.5651,14.247,0.46852,15.236-3.2198,0.5225-3.8478,0.1524-8.6418-5.0929zm789.53,0.059c-1.9192-1.9191-3.116-6.8595-2.2912-9.4581,0.6554-2.0651,3.0503-2.8454,18.778-6.1188,10.604-2.207,15.337-2.5305,16.216-1.1085,0.3118,0.5044,0.8433,2.9341,1.1812,5.3994,0.7742,5.6486,0.2647,5.9549-15.417,9.2678-6.4423,1.3611-12.877,2.7279-14.3,3.0374-1.653,0.3597-3.1572-0.01-4.1683-1.0192zm-610.25-3.5054-6-0.5971-0.30563-4.2118c-0.58446-8.0542-0.0975-8.302,16.091-8.1885,7.8182,0.055,15.315,0.4067,16.66,0.782,3.2007,0.8934,4.6752,6.0507,2.8316,9.9035-1.292,2.6998-1.36,2.7153-12.288,2.8119-6.0437,0.053-13.689-0.1716-16.989-0.5zm69.057-2.3196c-1.993-2.8454-2.0047-8.1608-0.022-9.8066,2.268-1.8823,32.015-3.5892,33.99-1.9503,2.166,1.7976,2.0072,10.561-0.2068,11.411-1.669,0.6404-22.886,2.5023-29.011,2.5458-2.1834,0.015-3.6856-0.6802-4.75-2.1998zm-147.75-5.5c-1.5125-1.5828-2.75-3.6007-2.75-4.4842,0-3.6064,9.2761-8.7628,15.792-8.7786,3.0796-0.01,17.144,2.8119,19.958,4.0008,2.5424,1.0743,2.8875,3.8664,1.1086,8.9695l-1.1414,3.2743-7.6086-0.8309c-8.7041-0.9506-15.282-0.935-19.609,0.046-2.487,0.5642-3.4703,0.1884-5.75-2.1973zm412.86,1.0953c-6.0304-2.1758-16.757-2.974-23.868-1.7761-5.5241,0.9305-8.001-1.2497-12.867-11.326-2.3272-4.8192-5.5365-10.617-7.1316-12.885-3.2711-4.6496-4.5358-11.03-2.8213-14.233,0.8317-1.5542,2.0938-2.1442,4.5866-2.1442,2.8099,0,3.723,0.5489,4.9905,3,0.8532,1.65,2.1364,3,2.8514,3,1.9106,0,5.084,3.8123,7.9603,9.5628,1.3927,2.7846,3.1409,5.568,3.8848,6.1853,2.8734,2.3847,20.483,7.2519,26.238,7.2519,2.005,0,5.4275,0.9091,7.6056,2.0203,3.2541,1.6601,3.9602,2.5433,3.9602,4.953,0,1.6129-0.5222,4.0788-1.1605,5.4796-1.0121,2.2214-1.7474,2.5322-5.75,2.4305-2.5242-0.064-6.3396-0.748-8.4787-1.5197zm-189.36-0.4042c-1.953-0.7769-2.25-1.6227-2.25-6.4082,0-6.3086-1.2797-5.5739,14-8.0374,10.577-1.7053,19.57-2.2776,20.54-1.3071,0.3506,0.3506,1.0677,2.5523,1.5936,4.8927,1.4772,6.5747-0.043,7.4867-15.634,9.3781-7.15,0.8674-13.675,1.7571-14.5,1.977-0.825,0.22-2.5125,0-3.75-0.4951zm537.7-7.5141c-0.7096-0.855-1.3272-3.3746-1.3724-5.5991-0.08-3.9174,0.067-4.1037,4.6683-5.9289,2.6128-1.0365,8.6633-4.3669,13.446-7.4009,4.7822-3.0341,9.0104-5.5165,9.3958-5.5165,1.2315,0,6.9081,7.0133,6.9081,8.5348,0,2.141-2.7008,4.5134-11.093,9.7438-11.604,7.2323-19.279,9.3884-21.953,6.1668zm-464.7-4.6436c-1.9743-2.3788-2.6387-9.2347-1.0249-10.574,1.7361-1.4408,24.832-6.2277,30.048-6.2277,3.1805,0,3.938,0.4251,4.8006,2.6937,0.5632,1.4816,0.8896,4.0691,0.7252,5.75-0.3357,3.4325-1.9046,4.1251-15.799,6.975-12.711,2.6072-17.444,2.9563-18.75,1.3831zm-911.4-12.7c-4.5069-5.2286-15.823-24.228-15.774-26.485,0.0329-1.5403,6.6107-8.7651,7.9801-8.7651,1.316,0,6.5842,7.3254,9.709,13.5,1.3917,2.75,4.1061,7.1619,6.0321,9.8043,1.926,2.6423,3.5018,5.9901,3.5018,7.4395,0,5.2015-8.1008,8.39-11.448,4.5062zm157.22-6.6867c-1.3956-3.6706-1.2882-8.1051,0.22592-9.3282,2.6795-2.1645,26.907-14.234,28.53-14.213,0.94579,0.012,2.7644,0.8261,4.0414,1.8085,1.8578,1.4292,2.2575,2.562,2,5.668-0.32167,3.8804-0.32614,3.884-13.322,10.818-7.15,3.8149-14.677,7.1621-16.726,7.4382-3.3336,0.4492-3.8338,0.2184-4.75-2.1915zm322.91-6.9414c-2.0444-1.3995-4.8991-4.9267-6.7011-8.28-1.7267-3.213-4.9948-8.0687-7.2624-10.79-3.6644-4.3981-4.0489-5.3432-3.4571-8.4977,0.80717-4.3026,1.9438-5.1545,6.4237-4.8148,4.6567,0.3532,11.209,8.0636,21.54,25.348l1.9817,3.3154-2.0806,2.7989c-2.7103,3.646-6.0352,3.9391-10.445,0.9208zm960.23-3.9215c-1.4356-1.7298-2.4403-8.8999-1.451-10.355,0.971-1.4283,22.968-5.6996,29.785-5.7836l5-0.062,0.9249,4.7893c0.7263,3.7605,0.6189,5.0782-0.5,6.1338-1.2433,1.1732-26.786,6.5769-31.088,6.5769-0.8756,0-2.0774-0.5848-2.6706-1.2996zm324.89-11.36c-1.1508-1.463-3.0193-5.8505-4.1523-9.75-1.1329-3.8994-2.7363-9.3753-3.5631-12.168-0.8268-2.7932-1.3534-6.3932-1.1703-8,0.3183-2.7925,0.6159-2.9563,6.7432-3.7112,3.5919-0.4425,6.7995-0.4005,7.2956,0.096,0.487,0.487,1.2887,4.7948,1.7817,9.573,0.5702,5.5266,1.8012,10.664,3.3833,14.12,2.0832,4.5503,2.3286,6.0062,1.5111,8.9668-0.9276,3.3594-1.1927,3.5344-5.3563,3.5344-3.5517,0-4.7763-0.5033-6.4729-2.6601zm-252.96-6.9604c-2.2732-8.1872-2.4864-8.0194,17.185-13.525,9.7289-2.723,14.329-3.5994,15.181-2.8924,0.6722,0.5579,1.7812,2.88,2.4643,5.1602,1.0483,3.4987,1.0104,4.3777-0.2425,5.6306-1.7944,1.7944-22.321,8.1599-28.843,8.9447l-4.6673,0.5616-1.0772-3.8795zm-1287.9-1.5c-0.90102-1.1031-1.7276-8.0913-1.3582-11.483,0.0739-0.6782,2.3001-2.3306,4.9471-3.6719,5.8074-2.9429,6.9922-4.2843,9.6677-10.946,2.2679-5.6466,1.1415-5.2504,12.38-4.3541,2.468,0.1968,4.7137,0.9793,5.1747,1.8031,0.96789,1.7295-1.3875,13.749-3.4917,17.818-0.86522,1.6732-2.623,3.1257-4.2584,3.5187-1.5317,0.3682-4.5849,1.9261-6.7849,3.462-2.2,1.536-6.1118,3.3125-8.6928,3.9478-5.8709,1.4452-6.3301,1.4394-7.5833-0.095zm1359.4-20.3c-1.9213-2.9323-2.1182-7.9112-0.365-9.2322,1.8935-1.4268,27.358-11.303,29.144-11.303,3.3433,0,7.0344,9.6595,4.4423,11.626-2.1863,1.6582-27.504,11.374-29.638,11.374-1.0824,0-2.6948-1.1092-3.5831-2.4648zm-1623.8-10.3c-3.1115-2.0198-8.399-5.3404-11.75-7.3791-5.7907-3.523-6.0927-3.9011-6.0927-7.6275,0-4.0856,0.98138-5.4555,4.7314-6.6048,2.8686-0.8792,26.308,12.282,29.262,16.43,3.1257,4.3896,2.6241,6.5076-1.8594,7.8509-5.8609,1.756-8.1254,1.333-14.291-2.6694zm481.56-4.0689c-2.6424-1.6113-3.1892-2.659-3.718-7.1234-0.34095-2.8789-1.5309-6.8646-2.6444-8.8571-7.4212-13.281-7.5784-13.77-5.6934-17.723,1.6239-3.4053,1.9752-3.6095,5.2858-3.0723,1.9505,0.3165,4.2598,1.1598,5.1318,1.8739,1.9546,1.6008,9.6138,17.774,11.191,23.63,1.4722,5.4672,0.0228,10.402-3.5307,12.021-3.0736,1.4004-2.3488,1.4906-6.022-0.7493zm1212.1-11.406c-2.5705-3.923-2.9331-8.0374-0.8672-9.8405,2.6144-2.2818,26.723-10.059,29.998-9.6773,2.3102,0.2695,2.9783,1.0763,4.2229,5.0996,1.9179,6.2,1.5272,6.5494-11.891,10.636-5.775,1.7589-12.315,3.8474-14.533,4.6412-5.1796,1.8532-5.1493,1.8569-6.929-0.8592zm106.8-19.2c-2.6201-2.475-5.2304-4.4964-5.8006-4.4921-0.5703,0-6.4269,1.1294-13.015,2.5-6.5878,1.3707-12.798,2.4921-13.801,2.4921-1.9206,0-4.7212-5.2989-4.7212-8.9327,0-2.7073,2.6488-3.9358,13.38-6.2058,19.366-4.0967,20.117-4.1731,23.553-2.3962,3.9947,2.0657,6.5128,1.2872,8.0809-2.4986,1.3447-3.2463,2.091-3.5162,5.1689-1.8689,1.1282,0.6038,8.6361,1.5215,16.684,2.0393,10.904,0.7017,14.92,1.3189,15.758,2.4223,1.138,1.498,0.7352,10.272-0.5362,11.68-0.3672,0.4067-4.5017,0.2705-9.1876-0.3027-4.686-0.5732-11.418-0.9059-14.96-0.7395-6.2627,0.2943-6.4871,0.3994-8.126,3.8027-1.9747,4.1005-4.6417,7-6.4389,7-0.701,0-3.4181-2.025-6.0382-4.5zm166.38,2.5927c-7.3279-0.6399-8.6712-1.6296-8.6972-6.4084-0.031-5.6265,1.3737-6.6843,8.8739-6.6843,5.8873,0,7.1872-0.3415,9.5163-2.5,1.913-1.7729,3.8251-2.5,6.5746-2.5,5.9699,0,7.1858,1.8682,6.4043,9.8401-0.3591,3.6629-1.0976,7.2224-1.6411,7.9099-1.0398,1.3153-8.4997,1.4368-21.031,0.3427zm-1672.4-3.3c-3.3396-3.7097-3.4652-4.4422-1.7949-10.466,3.4492-12.439,3.5748-12.533,18.215-13.626,6.6954-0.4999,7.4705-0.3494,10.25,1.9894,1.6538,1.3915,3.0069,3.4105,3.0069,4.4866,0,3.0405-4.4497,6.8657-7.9867,6.8657-4.6351,0-9.7222,2.4924-10.529,5.1587-0.94662,3.1273-5.4536,7.8413-7.4968,7.8413-0.90122,0-2.5501-1.0125-3.6641-2.25zm1602.9-0.8267c-5.7431-0.4409-11-1.358-11.856-2.0684-1.8763-1.5572-1.282-9.5956,0.8159-11.034,0.7931-0.5438,7.3959-0.6686,15.859-0.2997,17.821,0.7767,19.483,1.5047,18.728,8.2033-0.2804,2.4876-1.1213,4.9103-1.8687,5.3839-1.557,0.9865-7.0222,0.9398-21.677-0.1851zm-1943.7-14.6c-5.0164-4.5108-10.135-7.1698-15.43-8.0167-4.4404-0.71-4.9531-1.1835-6.7121-6.1987-1.0236-2.9184-0.91505-3.5307,0.93047-5.25,3.2311-3.0103,10.809-2.6087,18.382,0.9741,6.9576,3.2915,16.341,11.719,16.308,14.646-0.0344,2.9964-3.1648,6.3397-6.4778,6.9184-2.4367,0.4257-3.751-0.1512-7-3.0728zm484.55-21.985c-5.035-3.6154-10.689-7.2147-12.565-7.9984-5.7342-2.3959-7.1695-7.4946-3.168-11.254,4.1514-3.9,8.0163-2.659,22.242,7.1413,10.736,7.3965,11.846,8.7261,11.009,13.19-0.65161,3.4734-3.2375,5.4948-7.0292,5.4948-0.73369,0-5.4535-2.958-10.489-6.5734zm-86.424,0.4308c-2.6362-2.2697-2.6894-2.5053-1.4307-6.3349,1.2215-3.7163,1.6687-4.0627,6.8074-5.273,3.025-0.7124,10.485-1.5731,16.577-1.9125l11.077-0.6172,3.3535,2.9963c3.2101,2.8682,3.2974,3.1316,2.0424,6.1616-0.7211,1.7409-1.815,3.4822-2.4309,3.8696-0.61588,0.3874-6.5198,1.0218-13.12,1.4097-6.6,0.3879-13.831,1.0096-16.069,1.3815-3.4137,0.5674-4.5105,0.2966-6.8074-1.6811zm-486.71-3.5727c-0.57795-1.5202-0.77625-4.2274-0.44067-6.0162,0.81066-4.3212,2.7816-4.7872,19.83-4.6887,13.555,0.078,13.855,0.1281,16.458,2.7305l2.6506,2.6506-2.1531,3.7696-2.1531,3.7695-16.57,0.2742-16.57,0.2743-1.0508-2.7638zm2116.1-13.7c-1.9908-2.3988,0.3396-31.554,2.6577-33.249,2.0878-1.5266,5.2864-1.6072,8.9225-0.2247l2.7156,1.0324-0.6636,13.223c-0.365,7.2727-1.1289,14.908-1.6975,16.968-1.0124,3.6664-1.1345,3.7444-5.8645,3.7444-3.0647,0-5.2837-0.546-6.0702-1.4937zm7-72.8c-1.9572-1.0103-2.431-1.9299-2.1821-4.2352,0.4502-4.1703,1.3343-4.6945,6.5893-3.9064,4.9715,0.7455,7.0917,2.9472,5.9122,6.1392-1.3104,3.5458-5.685,4.3947-10.319,2.0024z"/>
</svg>
