<?xml version="1.0" encoding="UTF-8" standalone="no"?>
<!-- Created with Inkscape (http://www.inkscape.org/) -->

<svg
   xmlns:dc="http://purl.org/dc/elements/1.1/"
   xmlns:cc="http://creativecommons.org/ns#"
   xmlns:rdf="http://www.w3.org/1999/02/22-rdf-syntax-ns#"
   xmlns:svg="http://www.w3.org/2000/svg"
   xmlns="http://www.w3.org/2000/svg"
   xmlns:sodipodi="http://sodipodi.sourceforge.net/DTD/sodipodi-0.dtd"
   xmlns:inkscape="http://www.inkscape.org/namespaces/inkscape"
   id="svg3295"
   version="1.1"
   inkscape:version="0.48.4 r9939"
   width="698.5"
   height="832"
   sodipodi:docname="Afrika_lxn5.svg">
  <metadata
     id="metadata3301">
    <rdf:RDF>
      <cc:Work
         rdf:about="">
        <dc:format>image/svg+xml</dc:format>
        <dc:type
           rdf:resource="http://purl.org/dc/dcmitype/StillImage" />
        <dc:title></dc:title>
      </cc:Work>
    </rdf:RDF>
  </metadata>
  <defs
     id="defs3299" />
  <sodipodi:namedview
     pagecolor="#ffffff"
     bordercolor="#666666"
     borderopacity="1"
     objecttolerance="10"
     gridtolerance="10"
     guidetolerance="10"
     inkscape:pageopacity="0"
     inkscape:pageshadow="2"
     inkscape:window-width="1362"
     inkscape:window-height="1048"
     id="namedview3297"
     showgrid="false"
     inkscape:zoom="1.8629544"
     inkscape:cx="337.93775"
     inkscape:cy="42.330923"
     inkscape:window-x="0"
     inkscape:window-y="0"
     inkscape:window-maximized="0"
     inkscape:current-layer="svg3295" />
  <path
     id="path3305"
     style="fill:#ff0000"
     d="m 537.5426,668.6875 c -0.5352,-0.7219 -1.72,-2.0062 -2.6328,-2.854 -1.4313,-1.3293 -1.6598,-1.6609 -1.6598,-2.409 0,-0.7486 0.1221,-0.9255 0.8905,-1.2901 0.8619,-0.409 0.928,-0.4039 2.0604,0.159 0.7707,0.3831 1.8318,1.3359 3.1095,2.792 2.3209,2.6449 2.4715,3.2852 1.0066,4.2806 -0.5132,0.3487 -1.1284,0.634 -1.3671,0.634 -0.2388,0 -0.872,-0.5906 -1.4073,-1.3125 z M 389.6488,664.393 c -0.7918,-1.351 -0.7996,-1.5332 -0.086,-1.9981 0.7894,-0.5146 6.9394,-3.1449 7.3531,-3.1449 0.5442,0 1.5004,2.181 1.1793,2.69 -0.1456,0.2308 -1.4086,0.9408 -2.8068,1.5779 -1.3981,0.637 -2.7469,1.3435 -2.9972,1.5701 -0.2504,0.2266 -0.8013,0.412 -1.2243,0.412 -0.6453,0 -0.8735,-0.1782 -1.4178,-1.107 z m -12.0439,-0.5434 C 374.723,662.3254 373.9638,662 373.29,662 c -0.7975,0 -1.3012,-0.4798 -1.7843,-1.7 -0.4152,-1.0484 0.024,-2.05 0.8993,-2.05 2.0348,0 7.2013,2.4242 8.0112,3.7591 0.3529,0.5816 0.3401,0.7016 -0.1666,1.5605 -0.6511,1.1034 -1.0148,1.142 -2.6447,0.28 z m 63.6887,-1.9282 c -0.6051,-0.6441 -0.7072,-1.6225 -0.2311,-2.2143 0.1719,-0.2136 1.2125,-0.8745 2.3125,-1.4686 1.1,-0.5941 2.547,-1.4533 3.2156,-1.9093 0.6685,-0.4561 1.4126,-0.8292 1.6535,-0.8292 0.5689,0 1.8187,1.7954 1.6165,2.3223 -0.3521,0.9176 -6.4719,4.6777 -7.6132,4.6777 -0.2256,0 -0.6548,-0.2604 -0.9538,-0.5786 z m -81.1686,-0.8442 c -0.4125,-0.2216 -1.2456,-0.8373 -1.8514,-1.3683 -0.7131,-0.625 -1.4503,-1.0212 -2.0911,-1.1237 -0.8571,-0.137 -1.052,-0.2956 -1.4556,-1.1842 -0.5242,-1.1544 -0.6065,-2.0414 -0.2118,-2.2853 0.1458,-0.09 0.8274,-0.1941 1.5146,-0.2312 0.9538,-0.051 1.4385,0.063 2.0474,0.4814 3.3478,2.3023 4.37,3.0322 4.8652,3.4741 l 0.5674,0.5062 -1.0569,1.0769 c -1.1771,1.1994 -1.2659,1.2244 -2.3278,0.6541 z m 162.1814,-2.9034 c -0.925,-0.801 -2.1552,-1.5683 -3.1064,-1.9375 -1.5195,-0.5897 -1.5778,-0.645 -1.6536,-1.5662 -0.096,-1.1651 0.1604,-1.5031 1.4278,-1.8828 2.02854,0.42439 3.59088,0.21729 5.9969,2.8066 1.7453,1.8761 1.9859,2.7992 0.9127,3.5024 -1.1062,0.7248 -1.9166,0.5158 -3.5774,-0.9225 z m -183.4708,0.6403 c -2.7691,-0.1 -3.0211,-0.2882 -2.6879,-2.0127 l 0.2273,-1.1764 2.125,-0.069 c 1.1688,-0.038 3.0813,0.018 4.25,0.125 l 2.125,0.1944 0.077,1.3514 c 0.052,0.9118 -0.029,1.4187 -0.25,1.5586 -0.3165,0.2008 -0.9904,0.2041 -5.8663,0.029 z M 321.25,658.2676 c -1.7187,-0.078 -3.2656,-0.2336 -3.4375,-0.3448 -0.18,-0.1166 -0.3125,-0.7221 -0.3125,-1.4288 0,-1.7321 0.2406,-1.8164 4.5775,-1.6035 1.9511,0.096 3.7444,0.276 3.985,0.4006 0.3238,0.1676 0.4375,0.5362 0.4375,1.4177 0,1.3988 -0.319,1.8077 -1.3625,1.7463 -0.4194,-0.025 -2.1687,-0.1091 -3.8875,-0.1875 z m 104.5019,-0.1641 c -1.7734,-0.3168 -1.9709,-0.4687 -2.1652,-1.666 -0.1302,-0.8026 -0.07,-0.9335 0.5902,-1.2747 0.5936,-0.3069 1.3827,-0.3546 4.0918,-0.2471 4.4624,0.177 5.1408,0.3544 5.2919,1.3837 0.095,0.6486 -0.024,0.9239 -0.6477,1.4934 -0.7389,0.6748 -0.8457,0.6962 -3.2028,0.6401 -1.3411,-0.032 -3.1223,-0.1801 -3.9583,-0.3294 z M 286.25,657.5677 c -1.5331,-0.098 -2,-0.479 -2,-1.6319 0,-1.5049 0.2938,-1.6858 2.7384,-1.6858 1.2214,0 2.3987,0.068 2.6162,0.1518 0.5003,0.192 0.5736,2.8082 0.083,2.9616 -0.6471,0.2023 -2.1092,0.2891 -3.4375,0.2043 z m 18.75,-0.125 c -0.3437,-0.1573 -1.4121,-0.6586 -2.3741,-1.1143 -0.962,-0.4556 -1.8876,-0.8284 -2.0568,-0.8284 -0.4114,0 -0.974,-0.9385 -1.1554,-1.9278 -0.3145,-1.714 1.283,-2.0507 3.7113,-0.7824 0.825,0.431 2.175,1.0252 3,1.3205 l 1.5,0.5369 0,1.4889 0,1.4889 -1,0.052 c -0.55,0.029 -1.2812,-0.077 -1.625,-0.234 z m 101.7347,-0.794 c -0.2679,-0.6058 -0.4261,-1.2604 -0.3515,-1.4548 0.074,-0.1943 0.6406,-0.5988 1.2579,-0.8987 0.8953,-0.4349 1.5633,-0.544 3.3031,-0.5392 2.3935,0.01 4.0274,0.2935 4.3143,0.7578 0.2507,0.4056 -0.016,2.3112 -0.3585,2.5643 -0.1512,0.1117 -1.325,0.1423 -2.6083,0.068 -1.7442,-0.1011 -2.5566,-0.042 -3.218,0.2344 -1.4418,0.6025 -1.7981,0.491 -2.339,-0.7317 z m 51.2172,-4.2182 c -0.4403,-0.3593 -1.3057,-1.6253 -1.5222,-2.227 -0.2392,-0.6647 0.6805,-1.5918 2.3384,-2.3572 1.0861,-0.5014 1.7112,-0.9869 2.1917,-1.7023 0.4288,-0.6386 1.0227,-1.1343 1.6408,-1.3695 0.9279,-0.3532 0.9881,-0.3445 1.434,0.2061 0.6341,0.7831 0.5736,1.643 -0.2301,3.2694 -0.7073,1.4313 -1.8828,2.4821 -4.2573,3.8055 -0.9891,0.5513 -1.2919,0.6225 -1.5953,0.375 z m 51.3639,-5.5995 c -2.906,-1.1597 -5.7402,-5.0366 -4.3991,-6.0175 1.1507,-0.8416 1.559,-0.7149 3.2603,1.0117 1.1225,1.1391 1.9708,1.7633 2.7632,2.0333 1.6028,0.5462 2.0598,1.0313 2.0598,2.1864 0,0.8085 -0.1054,1.0076 -0.6413,1.2113 -0.8895,0.3382 -1.2595,0.2865 -3.0429,-0.4252 z m -22.4825,-3.8673 c -0.1604,-0.2001 -0.1891,-0.5432 -0.07,-0.8387 0.1109,-0.275 0.2095,-1.0191 0.2191,-1.6535 l 0.017,-1.1535 1.1599,-0.159 c 0.638,-0.087 2.5991,-0.159 4.3582,-0.159 3.5327,0 3.2686,-0.1322 3.5939,1.799 0.2018,1.1982 -0.052,1.3312 -3.5282,1.8505 -4.2711,0.6379 -5.4398,0.7018 -5.7505,0.3142 z m -13.1638,-2.4547 c -0.938,-0.4001 -2.3183,-0.8041 -3.0675,-0.8977 -1.0482,-0.131 -1.4793,-0.3192 -1.8711,-0.8174 -0.5748,-0.7307 -0.4797,-1.7028 0.2203,-2.2506 0.7748,-0.6063 3.4062,-0.2427 6.1368,0.8479 2.9411,1.1748 3.4462,1.7592 2.6507,3.0673 -0.4051,0.6662 -0.6304,0.7904 -1.4225,0.7847 -0.5177,0 -1.7086,-0.3341 -2.6467,-0.7342 z" />
</svg>
