<?xml version="1.0" encoding="utf-8"?>
<!DOCTYPE svg PUBLIC "-//W3C//DTD SVG 1.1//EN" "http://www.w3.org/Graphics/SVG/1.1/DTD/svg11.dtd">
<svg version="1.1" id="logo-fotoch" xmlns="http://www.w3.org/2000/svg" xmlns:xlink="http://www.w3.org/1999/xlink" viewBox="0 0 150 34" xml:space="preserve">
<path fill="#F5F5F5" d="M11.604,5.322c-0.056,0-0.449,0-0.505,0.056c-0.504,0.279-1.682,1.176-1.738,1.679c0,0.169,0,0.618,0,2.466
	h6.11v5.322h-6.11V33.72H3.756V14.845H0V9.522h3.756V7.395c0-1.176,0.224-2.409,1.009-3.474c0.448-0.616,1.794-2.073,2.691-2.689
	C8.577,0.448,10.147,0,11.548,0h5.27v5.322H11.604z"/>
<path fill="#F5F5F5" d="M40.417,30.079c-0.448,0.673-1.85,2.128-2.691,2.744C36.604,33.606,35.035,34,33.633,34h-5.27
	c-1.401,0-2.915-0.394-4.036-1.177c-0.841-0.616-2.299-2.071-2.748-2.744c-0.785-1.064-0.953-2.297-0.953-3.416V16.579
	c0-1.12,0.168-2.353,0.953-3.417c0.449-0.671,1.906-2.071,2.748-2.688c1.121-0.783,2.634-1.231,4.036-1.231h5.27
	c1.401,0,2.971,0.448,4.092,1.231c0.841,0.617,2.243,2.018,2.691,2.688c0.785,1.064,0.953,2.297,0.953,3.417v10.084
	C41.369,27.782,41.202,29.015,40.417,30.079z M26.233,26.942c0,0.447,1.178,1.289,1.85,1.681c0,0,0.112,0.056,0.336,0.056h5.157
	c0.112,0,0.224-0.056,0.336-0.113c0.505-0.278,1.794-1.176,1.85-1.623V16.747c0-0.055,0-0.168-0.056-0.335
	c-0.336-0.561-1.177-1.4-1.85-1.793c-0.112-0.056-0.168-0.056-0.281-0.056H28.42c-0.112,0-0.168,0-0.28,0.056
	c-0.673,0.393-1.458,1.121-1.85,1.793c-0.056,0.111-0.056,0.335-0.056,0.335V26.942z"/>
<path fill="#F5F5F5" d="M55.157,26.214c0,0,0,0.224,0.056,0.336c0.336,0.617,1.401,1.85,2.187,1.85h4.092v5.32h-4.148
	c-1.401,0-2.915-0.392-4.036-1.177c-0.897-0.615-2.243-2.127-2.691-2.744c-0.729-1.064-1.065-2.297-1.065-3.529V14.845h-3.756V9.522
	h3.756V0.225h5.605v9.298h6.952v5.322h-6.952V26.214z"/>
<path fill="#F5F5F5" d="M87.164,30.079c-0.448,0.673-1.85,2.128-2.69,2.744C83.353,33.606,81.783,34,80.381,34h-5.269
	c-1.402,0-2.915-0.394-4.036-1.177c-0.841-0.616-2.298-2.071-2.747-2.744c-0.785-1.064-0.953-2.297-0.953-3.416V16.579
	c0-1.12,0.168-2.353,0.953-3.417c0.449-0.671,1.906-2.071,2.747-2.688c1.121-0.783,2.634-1.231,4.036-1.231h5.269
	c1.402,0,2.972,0.448,4.093,1.231c0.841,0.617,2.242,2.018,2.69,2.688c0.785,1.064,0.953,2.297,0.953,3.417v10.084
	C88.117,27.782,87.949,29.015,87.164,30.079z M72.981,26.942c0,0.447,1.178,1.289,1.85,1.681c0,0,0.112,0.056,0.336,0.056h5.158
	c0.112,0,0.224-0.056,0.336-0.113c0.504-0.278,1.794-1.176,1.85-1.623V16.747c0-0.055,0-0.168-0.056-0.335
	c-0.336-0.561-1.178-1.4-1.85-1.793c-0.112-0.056-0.168-0.056-0.28-0.056h-5.158c-0.112,0-0.168,0-0.28,0.056
	c-0.673,0.393-1.458,1.121-1.851,1.793c-0.056,0.111-0.056,0.335-0.056,0.335V26.942z"/>
<path fill="#F5F5F5" d="M117.602,29.352c-1.458,1.961-3.981,4.648-7.12,4.648h-7.007c-1.233,0-2.579-0.448-3.476-1.008
	c-1.177-0.673-3.419-2.97-4.092-3.978c-0.673-1.008-0.897-2.128-0.897-3.192V8.178c0-1.064,0.224-2.128,0.897-3.137
	c0.672-0.951,2.915-3.36,4.092-4.033C100.896,0.505,102.242,0,103.475,0h7.007c3.139,0,5.662,2.745,7.12,4.649
	c0.448,0.616,0.672,1.063,1.177,1.961l-5.718,1.623c0,0-1.682-2.072-2.523-2.576c-0.056-0.057-0.168-0.057-0.224-0.057h-6.615
	c-0.112,0-0.224,0.057-0.224,0.057c-0.729,0.393-1.962,1.568-2.522,2.464c-0.056,0.112-0.056,0.505-0.056,0.618
	c0,0.055,0,17.027,0,17.027c0,0.671,1.737,2.128,2.579,2.576c0.056,0.057,0.336,0.057,0.392,0.057h6.391c0.056,0,0.168,0,0.28-0.057
	c1.178-0.561,2.523-2.632,2.523-2.632l5.718,1.512C118.331,28.231,118.05,28.734,117.602,29.352z"/>
<path fill="#F5F5F5" d="M144.114,33.72V19.886h-12.221V33.72h-5.886V0.225h5.886v14.059h12.221V0.225H150V33.72H144.114z"/>
</svg>
