<?xml version="1.0" encoding="UTF-8" standalone="no"?>
<!-- Created with Inkscape (http://www.inkscape.org/) -->

<svg
   xmlns:dc="http://purl.org/dc/elements/1.1/"
   xmlns:cc="http://creativecommons.org/ns#"
   xmlns:rdf="http://www.w3.org/1999/02/22-rdf-syntax-ns#"
   xmlns:svg="http://www.w3.org/2000/svg"
   xmlns="http://www.w3.org/2000/svg"
   xmlns:xlink="http://www.w3.org/1999/xlink"
   xmlns:sodipodi="http://sodipodi.sourceforge.net/DTD/sodipodi-0.dtd"
   xmlns:inkscape="http://www.inkscape.org/namespaces/inkscape"
   id="svg3039"
   version="1.1"
   inkscape:version="0.48.4 r9939"
   width="3149"
   height="2823"
   sodipodi:docname="Asien_lines.png">
  <metadata
     id="metadata3045">
    <rdf:RDF>
      <cc:Work
         rdf:about="">
        <dc:format>image/svg+xml</dc:format>
        <dc:type
           rdf:resource="http://purl.org/dc/dcmitype/StillImage" />
        <dc:title></dc:title>
      </cc:Work>
    </rdf:RDF>
  </metadata>
  <defs
     id="defs3043" />
  <sodipodi:namedview
     pagecolor="#ffffff"
     bordercolor="#666666"
     borderopacity="1"
     objecttolerance="10"
     gridtolerance="10"
     guidetolerance="10"
     inkscape:pageopacity="0"
     inkscape:pageshadow="2"
     inkscape:window-width="1920"
     inkscape:window-height="1025"
     id="namedview3041"
     showgrid="false"
     inkscape:zoom="0.66879206"
     inkscape:cx="526.93885"
     inkscape:cy="1390.2917"
     inkscape:window-x="-3"
     inkscape:window-y="-3"
     inkscape:window-maximized="1"
     inkscape:current-layer="svg3039" />
  <image
     width="3149"
     height="2823"
     xlink:href="file:///home/beni/Dokumente/FotoCH/new/newscans/Asien_lines.png"
     id="image3047"
     x="0"
     y="0" />
  <path
     style="fill:#000000"
     d="m 1711,2821.9406 c -0.825,-0.518 -2.7375,-1.3804 -4.25,-1.9164 -2.0286,-0.719 -2.75,-1.6453 -2.75,-3.5308 0,-1.4059 0.6914,-2.8215 1.5365,-3.1458 0.8451,-0.3243 6.8076,-0.1977 13.25,0.2814 l 11.7135,0.871 0.3075,4.25 0.3075,4.25 -9.3075,-0.059 c -5.1191,-0.032 -9.9825,-0.4826 -10.8075,-1.0006 z m 60,-3.2945 0,-4.3539 12.5158,-0.6953 c 6.8837,-0.3825 12.9587,-0.4217 13.5,-0.087 1.384,0.8553 1.228,6.8464 -0.2158,8.2902 -0.8033,0.8033 -5.2667,1.2 -13.5,1.2 l -12.3,0 0,-4.3539 z m 66.607,-2.2279 c -0.8124,-2.1171 -0.8282,-2.0541 0.9644,-3.8468 1.2433,-1.2432 3.9326,-1.5714 12.8776,-1.5714 12.1245,0 14.3681,0.8503 13.0662,4.952 -0.6105,1.9238 -1.4281,2.048 -13.4756,2.048 -10.7728,0 -12.9228,-0.2532 -13.4326,-1.5818 z M 1650.5,2812.87 c -12.8965,-1.9098 -12.5,-1.7687 -12.5,-4.4467 0,-3.4393 1.6405,-3.7869 11.7247,-2.4842 15.527,2.0058 15.2753,1.9205 15.2753,5.1722 0,2.7507 -0.203,2.8829 -4.25,2.768 -2.3375,-0.066 -6.95,-0.5206 -10.25,-1.0093 z m -67.8057,-9.3869 c -4.2931,-0.7215 -8.4556,-1.5613 -9.25,-1.8661 -1.7758,-0.6814 -1.8546,-2.6794 -0.1943,-4.9267 1.1698,-1.5834 2.0356,-1.5537 13.5,0.4622 l 12.25,2.1541 0,2.8467 c 0,2.6985 -0.2213,2.8414 -4.25,2.7442 -2.3375,-0.056 -7.7626,-0.6929 -12.0557,-1.4144 z m -63.6292,-16.7509 c -5.7392,-2.3277 -10.5827,-4.7004 -10.7635,-5.2726 -0.1807,-0.5723 0.2876,-1.8831 1.0406,-2.9129 1.3164,-1.8003 1.8198,-1.7055 13.059,2.4595 6.4294,2.3826 11.8726,4.6278 12.096,4.9893 0.2235,0.3616 0.1505,1.6355 -0.1621,2.831 -0.812,3.1052 -3.2868,2.7658 -15.27,-2.0943 z m -59.0851,-29.9849 c -7.6606,-5.1164 -9.48,-6.8006 -9.48,-8.7757 0,-4.1501 3.0291,-3.432 13.5139,3.2032 8.675,5.49 9.9612,6.6553 9.7404,8.8252 -0.4336,4.2623 -3.6645,3.4994 -13.7743,-3.2527 z m -53.3599,-41.0902 c -7.2965,-6.7896 -8.7608,-8.6384 -8.212,-10.3677 1.3776,-4.3401 3.6374,-3.5781 11.49,3.8743 4.181,3.9681 8.4346,7.9747 9.4523,8.9036 1.5119,1.3801 1.6427,2.0772 0.7148,3.8109 -0.6246,1.167 -1.9072,2.1038 -2.8504,2.0819 -0.9431,-0.022 -5.7108,-3.7583 -10.5947,-8.303 z m -36.5101,-42.0246 c -3.7291,-4.4932 -13.11,-19.3724 -13.11,-20.7939 0,-1.6845 3.273,-3.4079 4.7411,-2.4965 1.9444,1.2071 14.3772,20.6574 13.8007,21.5903 -1.3358,2.1614 -4.2834,3.0839 -5.4318,1.7001 z m -33.7195,-58.8342 c -0.514,-0.7141 -3.1552,-5.9077 -5.8693,-11.5415 -4.9956,-10.3696 -5.1084,-11.7415 -1.0212,-12.4232 1.6422,-0.2739 2.9473,1.5344 7.2946,10.1065 2.9121,5.7421 5.1621,11.3671 5,12.5 -0.3416,2.3886 -4.0005,3.3081 -5.4041,1.3582 z m -21.0804,-63.0257 c -1.0956,-1.4341 -5.3245,-20.0936 -5.3158,-23.4552 0.01,-2.3156 3.5428,-4.1814 5.0549,-2.6667 0.9727,0.9743 6.4847,25.1699 5.8618,25.7308 -1.3914,1.2528 -4.7626,1.4883 -5.6009,0.3911 z m -13.8244,-65.7958 c -1.457,-2.3575 -4.263,-24.4978 -3.2605,-25.7268 1.1317,-1.3873 4.3879,-1.685 5.139,-0.4698 0.2652,0.4292 1.2893,6.3048 2.2758,13.0571 1.5688,10.739 1.6098,12.3929 0.3268,13.2044 -1.9358,1.2243 -3.7002,1.1987 -4.4811,-0.065 z m -8.8359,-68.6693 c -0.294,-1.5441 -0.8258,-7.6019 -1.1818,-13.4616 -0.6302,-10.3706 -0.5888,-10.6728 1.5538,-11.3528 3.9551,-1.2553 4.7694,1.0444 5.137,14.5069 l 0.3412,12.5 -2.6579,0.3075 c -2.2213,0.2571 -2.7457,-0.1536 -3.1923,-2.5 z m -0.941,-64.932 c -0.8648,-0.8649 -0.7816,-15.0034 0.1288,-21.8755 0.5948,-4.49 0.9174,-5 3.1624,-5 2.4348,0 2.5074,0.2086 2.7821,8 0.1552,4.4 -0.074,10.475 -0.5103,13.5 -0.6405,4.4452 -1.182,5.556 -2.8233,5.7922 -1.1169,0.1607 -2.3498,-0.027 -2.7397,-0.4167 z m -874.70154,-30.9517 c -3.02101,-1.4062 -6.92776,-3.6513 -8.68167,-4.989 -1.75391,-1.3378 -4.34467,-2.8718 -5.75726,-3.4088 -3.5921,-1.3657 -3.34084,-4.5752 0.51424,-6.5687 3.04531,-1.5748 3.1234,-1.552 6.45909,1.8826 1.85708,1.9122 6.31992,4.8674 9.91743,6.5671 6.32022,2.9862 7.22893,4.1365 5.93392,7.5112 -0.81826,2.1324 -1.95878,1.9971 -8.38575,-0.9944 z m 47.65941,0.9095 c -0.36667,-0.3666 -0.6656,-1.6041 -0.66429,-2.75 0.002,-1.4982 1.48259,-2.8567 5.27262,-4.8368 2.89863,-1.5145 7.46481,-4.5671 10.14707,-6.7836 5.30889,-4.387 6.44889,-4.544 7.73564,-1.0656 1.06417,2.8767 -2.46438,6.4133 -12.12507,12.1526 -6.47532,3.8469 -9.00211,4.6473 -10.36597,3.2834 z m 59.94032,-27.9151 c -1.38288,-3.6037 -0.39981,-4.3115 11.5324,-8.3031 6.67667,-2.2334 12.47235,-3.8551 12.8793,-3.6036 1.09418,0.6763 1.83185,4.1269 1.10874,5.1864 -0.75921,1.1124 -20.95172,8.3245 -23.27044,8.3114 -0.90366,-0.01 -1.91616,-0.7211 -2.25,-1.5911 z m 771.74961,-9.9313 c -0.7156,-1.8649 2.4758,-24.6617 3.6169,-25.8362 0.4539,-0.4672 1.7705,-0.5493 2.9258,-0.1826 1.5706,0.4984 2.0885,1.4697 2.0523,3.8493 -0.036,2.3383 -2.3758,21.3062 -2.891,23.4326 -0.2511,1.0362 -5.2462,-0.07 -5.704,-1.2631 z m -923.93149,-18.6762 c -8.13786,-11.2477 -8.8363,-12.6103 -7.36963,-14.3776 2.3962,-2.8872 4.57423,-1.3497 11.07325,7.8169 8.39196,11.8365 8.25901,11.5779 6.83492,13.2938 -2.38205,2.8702 -4.6291,1.4345 -10.53854,-6.7331 z m 215.24156,7.5226 C 587.3,2272.9667 587,2271.705 587,2270.5297 c 0,-1.793 1.74429,-2.8122 10.83945,-6.3333 5.96171,-2.308 11.34587,-4.1964 11.96482,-4.1964 0.61895,0 1.63512,0.9525 2.25817,2.1167 1.60341,2.996 0.20715,4.0028 -11.46398,8.2663 -10.20533,3.728 -11.79213,4.09 -12.93179,2.9503 z M 630.2,2255.8 c -2.73001,-2.73 -2.10414,-3.5107 11.62443,-14.4995 5.25623,-4.2072 6.84694,-5.0116 8.3357,-4.2148 3.49354,1.8697 1.89075,4.4366 -7.61545,12.1962 -5.20042,4.245 -9.83542,7.7181 -10.3,7.7181 -0.46457,0 -1.38468,-0.54 -2.04468,-1.2 z m 1448.0744,-36.0017 c -0.7463,-0.9223 -0.4095,-4.8439 1.1629,-13.5403 1.2173,-6.7331 2.496,-12.5247 2.8415,-12.8701 0.3454,-0.3455 1.8044,-0.3329 3.2421,0.028 2.5306,0.6351 2.5924,0.8294 1.9353,6.088 -0.3732,2.9876 -1.4161,8.9339 -2.3174,13.214 -1.3664,6.4886 -1.9858,7.8317 -3.7263,8.0804 -1.1481,0.164 -2.5603,-0.286 -3.1381,-1 z m -770.5026,-1.0483 c -1.4743,-1.1443 -1.4228,-2.3073 0.6088,-13.75 2.1665,-12.2023 2.2838,-12.5075 4.9251,-12.817 1.6415,-0.1923 2.918,0.2364 3.2455,1.0898 0.6533,1.7026 -2.017,20.1918 -3.467,24.0057 -1.1251,2.9592 -2.7985,3.4227 -5.3124,1.4715 z m -970.08653,-6.5 c -6.73273,-11.1903 -8.90704,-16.2779 -7.6197,-17.829 2.54463,-3.0661 4.46059,-1.3598 10.78917,9.6082 5.21509,9.0383 6.13466,11.2786 5.12756,12.4921 -2.36798,2.8533 -4.74749,1.6283 -8.29703,-4.2713 z M 679.2,2210.8 c -0.66,-0.66 -1.2,-1.5721 -1.2,-2.0268 0,-1.6094 15.34407,-19.2777 16.9969,-19.5715 2.36038,-0.4195 4.39237,2.2803 3.25112,4.3196 -2.31963,4.1449 -14.91761,18.3939 -16.29802,18.4338 -0.8525,0.025 -2.09,-0.4951 -2.75,-1.1551 z m 926.119,-1.711 c -9.975,-2.8541 -13.4731,-6.0564 -9.8765,-9.0413 1.1386,-0.945 2.6942,-0.7407 7.3862,0.9701 3.269,1.192 8.5824,2.6881 11.8075,3.3247 5.3161,1.0494 5.8934,1.4144 6.1802,3.9075 0.3074,2.6713 0.1786,2.748 -4.5,2.6788 -2.649,-0.039 -7.5979,-0.8671 -10.9974,-1.8398 z m 53.288,-10.6708 c -1.0955,-2.8549 -0.7007,-3.2464 9.0792,-9.0022 11.0119,-6.4808 13.158,-7.2721 14.4008,-5.3094 2.085,3.2926 0.7829,4.5116 -13.4331,12.5768 -6.4529,3.6609 -9.1304,4.1232 -10.0469,1.7348 z m -94.505,-29.1682 c -1.6544,-6.3626 -3.102,-15.4314 -3.102,-19.4337 0,-3.5528 0.2021,-3.8163 2.928,-3.8163 2.8204,0 2.9527,0.2114 3.5966,5.75 0.3677,3.1625 1.3488,8.8433 2.1803,12.624 1.2685,5.7675 1.2932,7.0126 0.1535,7.7347 -2.9218,1.8513 -4.7704,0.9333 -5.7564,-2.8587 z m 150.3428,-7.4238 c -0.4856,-1.5302 -0.1355,-2.5872 1.1826,-3.5699 3.9341,-2.9331 19.3964,-12.2563 20.3267,-12.2563 0.9048,0 3.0459,3.1281 3.0459,4.45 0,1.1507 -20.0924,13.55 -21.957,13.55 -1.0808,0 -2.2074,-0.9425 -2.5982,-2.1738 z M 309.14917,2156.25 c -0.50665,-0.9625 -2.81841,-6.2225 -5.13724,-11.6888 -3.9929,-9.4128 -4.12016,-10.0089 -2.40442,-11.2635 2.67472,-1.9558 3.61126,-1.2832 6.60426,4.7426 6.43145,12.9486 8.23831,18.0623 6.72132,19.0222 -2.27469,1.4394 -4.78406,1.0869 -5.78392,-0.8125 z m 408.11327,-0.4517 c -0.78646,-0.961 0.32914,-4.1321 4.29336,-12.2042 2.94576,-5.9982 5.71328,-11.2387 6.15006,-11.6455 1.13505,-1.0572 5.30097,0.7405 5.25863,2.2692 -0.0195,0.7052 -2.39354,6.0072 -5.27559,11.7822 -5.29901,10.6181 -7.81804,12.9853 -10.42646,9.7983 z m 1373.90756,-1.895 c -2.0126,-0.7757 -2.2347,-1.3412 -1.6302,-4.1507 1.6332,-7.5897 5.6643,-20.3401 6.7669,-21.4033 1.7887,-1.7249 6.0656,0.1815 5.4083,2.4107 -0.2822,0.957 -1.7239,6.24 -3.2038,11.74 -3.0418,11.3043 -3.9476,12.7113 -7.3412,11.4033 z m -776.5246,-1.668 c -0.6532,-1.057 1.0683,-24.963 1.8938,-26.2987 0.3184,-0.5151 2.1273,-0.9366 4.0198,-0.9366 2.8777,0 3.4543,0.3683 3.5222,2.25 0.045,1.2375 0.2271,3.6 0.4054,5.25 0.1783,1.65 -0.2646,4.575 -0.9841,6.5 -0.7196,1.925 -1.6895,5.75 -2.1554,8.5 -0.7473,4.4107 -1.1601,5.0362 -3.5027,5.3073 -1.4605,0.169 -2.9001,-0.088 -3.199,-0.572 z m 458.9868,-20.4853 c -0.3875,-1.4507 -0.038,-2.6704 0.9836,-3.4335 1.9078,-1.4249 18.3479,-5.3165 22.4597,-5.3165 2.567,0 2.9245,0.358 2.9245,2.9291 0,2.7657 -0.3208,2.9933 -5.75,4.0806 -3.1625,0.6333 -8.29,1.7902 -11.3943,2.5709 -7.5376,1.8955 -8.5189,1.8071 -9.2235,-0.8306 z m 65.7294,-12.25 c -1.1851,-3.0884 0.5251,-4.3002 7.8178,-5.5393 4.0263,-0.6841 9.7956,-1.2926 12.8206,-1.3523 5.2203,-0.1029 5.5154,0.025 5.8035,2.5078 0.3001,2.5871 0.1867,2.6344 -10.1865,4.25 -12.9577,2.0181 -15.5242,2.0393 -16.2554,0.1338 z m 66.3884,-7.057 c -1.5307,-1.5844 -0.6773,-4.5201 1.5612,-5.3712 1.2712,-0.4833 7.3462,-1.2051 13.5,-1.6039 l 11.1888,-0.7252 0,2.9998 c 0,2.8269 -0.2739,3.0349 -4.75,3.6071 -10.1089,1.2923 -20.7834,1.8351 -21.5,1.0934 z m 66.9919,-6.0345 c -0.4081,-0.408 -0.7419,-1.7833 -0.7419,-3.0561 0,-2.9086 1.3629,-3.2231 15.5,-3.577 l 11,-0.2754 0.3109,2.6933 c 0.2728,2.3624 -0.096,2.7569 -3,3.2119 -6.6536,1.0422 -22.3475,1.7248 -23.069,1.0033 z m -413.0293,-1.0293 c -0.3919,-0.3919 -0.7175,-2.1 -0.7234,-3.7959 -0.013,-3.7909 -2.4858,-12.1661 -4.4984,-15.2377 -2.0579,-3.1408 -1.8682,-4.9679 0.7028,-6.7687 1.979,-1.3861 2.3662,-1.3803 3.9572,0.059 2.5726,2.3282 6.1268,13.8851 6.2461,20.31 0.097,5.2331 -0.043,5.5707 -2.4343,5.8495 -1.3956,0.1628 -2.8581,-0.025 -3.25,-0.4167 z m 478.649,-3.8792 c -1.629,-4.2451 2.2301,-5.4709 17.2814,-5.489 7.2118,-0.01 9.2646,0.3058 9.7186,1.489 1.2627,3.2904 -0.3696,4.2041 -8.6632,4.8498 -13.3425,1.0387 -17.6894,0.8372 -18.3368,-0.8498 z m 67.3259,-2.1458 c -1.7906,-1.7907 -0.5253,-5.2523 2.592,-7.0916 2.2663,-1.3371 4.9521,-4.8991 8.6926,-11.5284 7.2946,-12.9279 8.255,-14.1143 10.7783,-13.3134 1.1357,0.3604 2.2762,1.2061 2.5345,1.8792 0.2583,0.6731 -2.1557,5.6601 -5.3644,11.0821 -3.2087,5.4221 -5.978,10.2905 -6.1541,10.8188 -0.1761,0.5282 -1.8533,1.274 -3.7271,1.6572 -2.3113,0.4727 -3.9246,1.6306 -5.0163,3.6004 -1.6903,3.0497 -3.1839,4.0473 -4.3355,2.8957 z m -1825.70174,-4.3821 c -1.41698,-2.7775 -1.87899,-5.0502 -1.47546,-7.2579 0.37104,-2.03 -0.16658,-5.388 -1.45921,-9.1144 -2.17687,-6.2754 -1.64223,-8.5998 1.97804,-8.5998 1.7038,0 5.39348,7.4434 9.60092,19.3686 1.87875,5.325 1.87618,5.3325 -2.6057,7.619 l -3.97564,2.0282 -2.06295,-4.0437 z m 465.20912,-0.2373 c -0.86794,-1.0458 -0.0683,-4.0149 3.44687,-12.7982 2.51735,-6.2902 4.73182,-11.6031 4.92105,-11.8067 0.98112,-1.0554 5.43457,1.1151 5.41519,2.6392 -0.0121,0.952 -1.95022,6.4559 -4.30691,12.2309 -3.27412,8.0231 -4.7639,10.5704 -6.31549,10.7983 -1.11683,0.164 -2.53915,-0.3146 -3.16071,-1.0635 z m 576.28612,-9.7656 c -0.8815,-1.4262 0.4309,-21.6072 1.6061,-24.6983 0.9678,-2.5455 5.6128,-3.2166 6.4874,-0.9373 0.2815,0.7335 -0.07,6.921 -0.7814,13.75 -1.2829,12.3186 -1.314,12.4188 -3.9487,12.7237 -1.4605,0.169 -2.9741,-0.2081 -3.3634,-0.8381 z m 172.769,-10.0004 c -2.499,-1.0044 -2.764,-2.1399 -1.1871,-5.0864 0.9077,-1.696 1.7058,-1.8897 5.4647,-1.326 2.8071,0.421 7.179,0.042 12.0679,-1.0455 8.1027,-1.8026 9.3518,-1.4461 9.3892,2.6801 0.02,2.2483 -1.1807,2.8824 -8.3933,4.4309 -7.023,1.5079 -14.1009,1.6494 -17.3414,0.3469 z m -26.6453,-33.7994 c -0.2823,-0.4568 -0.8248,-6.7317 -1.2056,-13.9441 l -0.6923,-13.1136 2.7198,-0.6826 c 1.4959,-0.3755 3.1107,-0.2881 3.5884,0.1941 0.4778,0.4822 1.1828,6.5647 1.5668,13.5167 0.6701,12.1312 0.6147,12.6845 -1.3761,13.75 -2.4713,1.3226 -3.9026,1.4096 -4.601,0.2795 z M 2153.2,2036.8 c -2.1268,-2.1268 -1.3412,-3.518 6.9089,-12.2336 8.1353,-8.5944 10.9917,-10.1154 12.767,-6.7983 0.7706,1.4398 -0.6621,3.4893 -7.7148,11.0361 -4.7636,5.0974 -9.1336,9.2517 -9.7111,9.2319 -0.5775,-0.02 -1.59,-0.5761 -2.25,-1.2361 z M 253.98066,2023.3607 c -5.36815,-11.4671 -5.60124,-12.3401 -3.78066,-14.1607 2.96047,-2.9605 4.5443,-1.256 9.68446,10.4224 2.81355,6.3924 5.11554,11.9692 5.11554,12.3931 0,0.8962 -2.52323,1.9845 -4.60113,1.9845 -0.8479,0 -3.4805,-4.364 -6.41821,-10.6393 z m 514.13399,8.7313 c -0.95161,-0.6026 -1.16849,-1.7719 -0.69273,-3.7347 0.83813,-3.4576 11.32556,-21.3573 12.51324,-21.3573 0.4638,0 1.85412,0.8185 3.08959,1.819 l 2.24632,1.8189 -6.13553,10.3775 c -3.37455,5.7077 -6.13554,10.7391 -6.13554,11.1811 0,1.0667 -3.14207,0.9996 -4.88535,-0.1045 z M 1331.75,2019.3107 c -2.1705,-0.5672 -2.1874,-2.4122 -0.1313,-14.3816 1.9325,-11.2502 2.8528,-13.9291 4.7851,-13.9291 1.9974,0 4.816,2.9848 4.2389,4.4887 -0.2598,0.677 -1.2427,5.9065 -2.1843,11.6211 -1.5851,9.6205 -2.7532,13.0658 -4.3308,12.7742 -0.3452,-0.064 -1.4151,-0.3218 -2.3776,-0.5733 z m 867.2756,-30.7799 c -1.4087,-1.6973 -1.1175,-2.1322 8.9282,-13.3342 3.5496,-3.9581 7.1721,-7.1966 8.05,-7.1966 1.69,0 3.9962,1.8517 3.9962,3.2085 0,0.4447 -3.6278,4.8547 -8.0618,9.8 -8.0063,8.9296 -10.5263,10.3976 -12.9126,7.5223 z M 224.23498,1971.75 c -1.16574,-2.3375 -2.61938,-6.4855 -3.2303,-9.2178 -0.61092,-2.7323 -2.00712,-6.4181 -3.10267,-8.1908 -1.98401,-3.2101 -1.98406,-3.2271 -0.0127,-4.2822 3.29212,-1.7618 4.73163,-1.2318 7.30695,2.6908 4.29323,6.5392 9.80374,16.8876 9.80374,18.4109 0,1.2946 -5.75475,4.8391 -7.85667,4.8391 -0.43385,0 -1.74261,-1.9125 -2.90835,-4.25 z m 577.38967,2.7318 C 800.73109,1973.5882 800,1972.7361 800,1972.5882 c 0,-0.8705 10.25073,-17.5833 12.29028,-20.038 2.42434,-2.9179 2.48001,-2.9307 5.14173,-1.1867 l 2.69084,1.7631 -2.22212,3.6867 c -1.22217,2.0277 -4.10579,7.0617 -6.40805,11.1867 -4.41334,7.9075 -6.84507,9.5048 -9.86803,6.4818 z m 650.88905,-7.1772 c -2.0526,-4.8425 -4.3268,-10.1783 -5.0538,-11.8573 -1.5021,-3.469 -0.9504,-4.8686 2.3221,-5.8901 2.0955,-0.6541 2.6589,0.091 6.8929,9.1152 2.536,5.4052 4.6591,11.4026 4.718,13.3276 0.094,3.0674 -0.2176,3.5376 -2.52,3.8046 -2.4305,0.2817 -2.9066,-0.3547 -6.3592,-8.5 z m -108.4331,-14.7075 c -0.8968,-1.0806 -0.6848,-3.4353 0.9229,-10.25 1.1479,-4.8659 2.2722,-9.7471 2.4984,-10.8471 0.7923,-3.853 2.8877,-5.6913 5.6866,-4.9888 3.4215,0.8587 4.2722,4.9217 1.882,8.9888 -0.9697,1.65 -2.3338,5.7 -3.0314,9 -0.6976,3.3 -1.6826,6.7875 -2.1889,7.75 -1.1067,2.1038 -4.1592,2.2875 -5.7696,0.3471 z m -172.3086,-0.781 c -0.2274,-0.6823 -0.2143,-2.2828 0.029,-3.5565 0.4394,-2.2985 0.5417,-2.3139 13.5708,-2.0378 l 13.128,0.2782 0,3 0,3 -13.1572,0.2784 c -9.7882,0.2071 -13.2631,-0.039 -13.5708,-0.9623 z m 66.8947,-2.4828 c -1.359,-1.3589 -0.6285,-5.2097 1.0833,-5.7102 4.042,-1.1819 24.3301,-3.6916 25.2494,-3.1235 1.1539,0.7132 1.376,6.4914 0.2506,6.5183 -0.4125,0.01 -5.025,0.6768 -10.25,1.4821 -10.4218,1.6062 -15.311,1.8556 -16.3333,0.8333 z M 1124,1945.8985 c -10.1072,-2.7829 -17.2886,-5.487 -17.7474,-6.6827 -0.2835,-0.7388 -0.038,-2.3908 0.545,-3.671 l 1.0605,-2.3276 12.321,3.7185 c 12.1029,3.6527 12.3209,3.7702 12.3209,6.6414 0,2.4028 -0.4449,2.9551 -2.5,3.104 -1.375,0.1 -4.075,-0.2525 -6,-0.7826 z m 181.5766,-9.4491 c -0.378,-1.5063 -0.3249,-3.0754 0.118,-3.487 0.443,-0.4116 3.9554,-1.4515 7.8054,-2.311 3.85,-0.8594 8.8607,-2.2194 11.135,-3.0221 4.7698,-1.6835 6.365,-0.819 6.365,3.4494 0,3.172 -2.2727,4.3092 -12,6.0046 -13.4759,2.3487 -12.6651,2.387 -13.4234,-0.6339 z m -468.69159,-19.3414 -2.21272,-1.7918 3.3589,-5.9081 c 9.1577,-16.1079 11.78288,-18.7469 14.90557,-14.9843 0.92837,1.1186 0.71575,2.3511 -0.99198,5.75 -3.50393,6.9739 -10.34405,17.6767 -11.64591,18.2224 -0.66063,0.2769 -2.19686,-0.3028 -3.41386,-1.2882 z m 226.41689,-2.9922 c -12.8383,-10.8078 -15.3871,-15.0018 -10.1306,-16.6702 1.5298,-0.4855 3.7505,1.0439 9.6577,6.6511 4.219,4.0049 8.5037,8.0417 9.5214,8.9706 1.5119,1.3801 1.6427,2.0772 0.7148,3.8109 -1.6717,3.1236 -3.3279,2.655 -9.7633,-2.7624 z m -868.77378,1.6342 c -1.69319,-2.4031 -5.91109,-14.944 -7.0273,-20.8939 -0.60135,-3.2055 -0.35421,-3.8243 2.27515,-5.6966 3.25415,-2.3171 4.22403,-1.9797 4.22403,1.4697 0,3.1614 3.75246,12.9205 5.53776,14.4021 0.83061,0.6894 1.46224,2.9169 1.46224,5.1569 0,7.2263 -3.30061,10.0628 -6.47188,5.5618 z m 1230.18258,-4.5144 c -1.5342,-2.6046 -4.6263,-7.6347 -6.8714,-11.1781 l -4.0821,-6.4425 2.2322,-1.8075 c 1.2277,-0.9941 2.5589,-1.8075 2.9582,-1.8075 0.3993,0 2.7646,3.0375 5.2561,6.75 8.8677,13.213 10.4835,17.3886 7.2145,18.643 -2.9891,1.147 -3.9247,0.5671 -6.7075,-4.1574 z m -65.1569,-11.1485 c -0.944,-1.5275 1.5743,-21.3992 3.0842,-24.3371 1.0525,-2.0479 2.1576,-2.75 4.3287,-2.75 3.9847,0 4.4137,1.1729 2.657,7.2631 -0.8309,2.8803 -1.7883,7.7119 -2.1276,10.7369 -1.0823,9.6481 -1.2391,10 -4.4561,10 -1.6071,0 -3.1759,-0.4108 -3.4862,-0.9129 z m -341.7233,-39.8614 c -8.054,-12.3958 -8.7321,-14.0932 -6.3314,-15.8487 1.056,-0.7722 2.3882,-1.2515 2.9605,-1.0652 1.8619,0.6062 14.5404,20.0231 14.5404,22.2684 0,1.2913 -2.9732,3.4465 -4.6843,3.3955 -0.4486,-0.013 -3.367,-3.9509 -6.4852,-8.75 z m 372.4594,1.1253 c -1.3953,-0.5662 -15.5285,-17.8602 -17.0401,-20.851 -0.5559,-1.1 -1.5253,-4.4346 -2.1541,-7.4102 -1.0322,-4.8842 -0.9557,-5.6134 0.7867,-7.5 1.0616,-1.1494 3.3847,-5.5773 5.1625,-9.8398 1.7778,-4.2625 3.7449,-7.75 4.3712,-7.75 0.6264,0 2.0954,0.67 3.2645,1.4889 l 2.1257,1.4888 -2.984,7.7612 c -3.8048,9.8963 -5.0456,14.9823 -4.2593,17.4595 0.3436,1.0826 3.395,5.1359 6.7808,9.0075 10.3266,11.8077 10.1166,11.4425 8.2332,14.3169 -1.6442,2.5094 -2.1144,2.7099 -4.2871,1.8282 z M 870.75,1859.9199 c -2.36993,-1.3804 -2.22168,-2.3652 1.08974,-7.2397 1.56186,-2.2991 4.35014,-7.0407 6.19618,-10.5369 1.84604,-3.4961 3.90799,-6.5683 4.58212,-6.827 1.68085,-0.645 5.38196,1.4588 5.38196,3.0593 0,0.7178 -2.23163,5.0895 -4.95918,9.7148 -8.13964,13.8029 -8.4273,14.0798 -12.29082,11.8295 z m -689.41725,-10.4952 c -0.33247,-0.8664 -0.65585,-7.0539 -0.71862,-13.75 -0.11166,-11.9109 -0.0653,-12.1816 2.14034,-12.4948 1.23996,-0.1761 2.46024,0.2739 2.71173,1 1.17416,3.3898 2.2382,24.3984 1.29507,25.5701 -1.41243,1.7547 -4.70609,1.5574 -5.42852,-0.3253 z m 803.7404,-48.6747 c -6.84157,-14.4238 -6.82382,-14.3229 -2.93652,-16.6869 3.66033,-2.226 5.8545,-1.3636 5.87558,2.3093 0.007,1.1702 1.62748,5.7276 3.6017,10.1276 4.95826,11.0506 5.07564,11.8648 1.91805,13.3035 -1.44434,0.6581 -2.84452,1.1965 -3.11152,1.1965 -0.26699,0 -2.67328,-4.6125 -5.34729,-10.25 z m -79.32315,2.1699 c -0.9625,-0.5606 -1.75,-1.5803 -1.75,-2.266 0,-1.3453 4.72963,-10.2428 9.51711,-17.9039 3.11266,-4.981 6.08469,-6.1397 8.44703,-3.2932 1.28717,1.5509 0.40393,3.4242 -8.46414,17.952 -4.1304,6.7665 -4.78968,7.2353 -7.75,5.5111 z m -756.14398,-13.8961 c -10.35836,-6.827 -10.55957,-7.0316 -9.40451,-9.5667 0.71763,-1.575 1.79147,-2.4299 2.7394,-2.1809 3.34209,0.8781 21.05909,13.3066 21.05909,14.773 0,1.5941 -1.85191,3.9508 -3.10458,3.9508 -0.38752,0 -5.46775,-3.1393 -11.2894,-6.9762 z M 1402.2,1774.8 c -0.66,-0.66 -1.2,-1.6211 -1.2,-2.1357 0,-1.3497 14.91,-19.6925 16.5044,-20.3044 1.9896,-0.7634 5.4956,1.4518 5.4956,3.4723 0,0.9691 -1.8223,3.5407 -4.0495,5.7149 -2.2272,2.1741 -5.677,6.3154 -7.6662,9.2029 -3.6824,5.3453 -6.5227,6.6116 -9.0843,4.05 z M 97.441268,1747.4197 C 94.448571,1741.0505 92,1735.4978 92,1735.0802 c 0,-0.4175 1.090828,-1.2562 2.424063,-1.8636 3.055882,-1.3924 3.170447,-1.2548 8.980397,10.7834 4.86364,10.0775 5.30881,11.8867 3.39554,13.8 -2.54759,2.5476 -4.08605,0.8412 -9.358732,-10.3803 z M 961.46376,1744.75 c -1.34432,-2.8875 -2.44862,-5.787 -2.45399,-6.4433 -0.005,-0.6563 -0.97934,-1.8724 -2.16438,-2.7024 -2.86112,-2.004 -4.7133,-0.9189 -9.27887,5.436 -3.78004,5.2615 -5.90617,5.9781 -7.95934,2.6825 -0.87169,-1.3991 -0.63244,-2.5689 1.12484,-5.5 1.22761,-2.0475 3.90176,-6.7454 5.94256,-10.4397 2.04079,-3.6943 4.18639,-6.8822 4.76798,-7.0842 0.58159,-0.2019 2.94937,-0.1715 5.26173,0.068 4.01352,0.4151 4.27036,0.6458 5.6602,5.0842 0.80075,2.5571 2.80773,8.1552 4.45996,12.4402 l 3.00405,7.791 -2.10281,1.959 c -1.15655,1.0775 -2.48866,1.9591 -2.96026,1.9591 -0.47159,0 -1.95734,-2.3625 -3.30167,-5.25 z m 485.02574,-20.7616 c -1.7736,-1.9598 -1.739,-2.1078 1.3448,-5.75 1.7408,-2.0561 5.2631,-6.4384 7.8273,-9.7384 2.5641,-3.3 4.9909,-6.3792 5.3929,-6.8426 1.1933,-1.3759 4.9455,1.2445 4.9455,3.4537 0,3.2831 -13.9414,20.8889 -16.5412,20.8889 -0.6318,0 -1.968,-0.9052 -2.9693,-2.0116 z M 597.69243,1721.957 C 591.90897,1720.9854 590,1719.5756 590,1716.2761 c 0,-2.4726 0.0186,-2.4772 7.08851,-1.7672 6.93617,0.6966 7.15645,0.6472 10.25,-2.2961 2.54001,-2.4166 3.60379,-2.8378 5.41149,-2.1426 2.75845,1.0609 2.8065,2.4657 0.28554,8.3469 -1.91308,4.463 -2.07656,4.5798 -6.25,4.4653 -2.35705,-0.065 -6.44895,-0.4811 -9.09311,-0.9254 z M 926.5,1720.3237 c -3.3,-0.164 -8.38836,-0.5645 -11.30746,-0.89 -5.25396,-0.586 -5.30435,-0.6239 -5,-3.7628 L 910.5,1712.5 l 11.5,0.3769 c 6.325,0.2073 12.5125,0.7587 13.75,1.2252 3.6995,1.3949 2.23143,7.1884 -1.7,6.7088 -0.8525,-0.104 -4.25,-0.3232 -7.55,-0.4872 z m -375.84157,-4.4534 c -1.80093,-2.7623 -3.64004,-13.1157 -3.65088,-20.5529 -0.006,-4.3003 0.33141,-5.2902 1.9835,-5.8146 3.07856,-0.9771 3.82286,0.071 4.44694,6.263 0.31788,3.1538 1.0817,8.5894 1.69737,12.079 1.03466,5.8645 0.96606,6.4982 -0.90608,8.3704 l -2.02549,2.0255 -1.54536,-2.3704 z M 855.5,1715.3222 c -10.8854,-0.5145 -11.67521,-0.8362 -11.3108,-4.6065 l 0.3108,-3.2157 7.5,0.3262 c 4.125,0.1794 9.975,0.6294 13,1 5.29471,0.6486 5.5,0.7858 5.5,3.6738 0,2.8206 -0.23923,3.0046 -4,3.0765 -2.2,0.042 -7.15,-0.072 -11,-0.2543 z m -69.5,-5.2585 -8.5,-0.5637 0,-3 0,-3 13,0.3417 c 7.15,0.1879 13.39455,0.7174 13.87678,1.1767 0.48224,0.4594 0.58616,1.9931 0.23095,3.4084 -0.71736,2.8582 -0.49147,2.8383 -18.60773,1.6369 z m -65.5,-2.9803 -9,-0.5834 -0.31556,-3.2795 -0.31555,-3.2795 13.31555,0.2795 13.31556,0.2795 0,3.5 c 0,3.4028 -0.11113,3.5023 -4,3.5834 -2.2,0.046 -8.05,-0.1791 -13,-0.5 z m -75.33008,-3.941 c -0.75329,-0.4867 -1.18694,-2.1133 -1,-3.7509 L 644.5,1696.5 l 12.5,0.3485 c 6.875,0.1916 13.08422,0.8272 13.79826,1.4124 0.71404,0.5853 1.16404,2.0035 1,3.1516 -0.282,1.9737 -0.97956,2.1012 -12.79826,2.3384 -6.875,0.1381 -13.09853,-0.1358 -13.83008,-0.6085 z m -570.464134,-6.4667 c -0.516746,-1.3466 3.098982,-10.2543 8.055741,-19.8461 2.527316,-4.8906 3.080592,-5.3567 7.175378,-6.0442 5.338233,-0.8963 5.987635,-0.464 3.473631,2.312 -1.276261,1.4093 -2.07653,4.1502 -2.410536,8.2561 -0.4424,5.4384 -0.75994,6.1834 -2.756411,6.4669 -1.241026,0.1762 -3.041026,1.4684 -4,2.8716 -4.509216,6.5979 -8.372139,9.0213 -9.537803,5.9837 z m -74.62683863,-3.259 c 0.04798392,-1.165 0.2849403,-1.4019 0.60416667,-0.6042 0.28887061,0.7219 0.25334429,1.5844 -0.0789474,1.9167 -0.33229167,0.3323 -0.56864035,-0.2584 -0.5252193,-1.3125 z M 1498.5293,1684.0568 c -1.1948,-2.3106 -1.254,-3.1157 -0.2756,-3.7454 2.6835,-1.7269 23.3131,-8.9869 24.4061,-8.589 1.4674,0.5344 2.7185,5.3235 1.6456,6.2993 -0.443,0.4029 -3.2804,1.5208 -6.3054,2.4844 -3.025,0.9635 -8.0739,2.8189 -11.2199,4.1229 -3.1459,1.3041 -5.9468,2.371 -6.2243,2.371 -0.2774,0 -1.1893,-1.3245 -2.0265,-2.9432 z m 63.4395,-20.5944 c -0.6173,-0.7438 -0.9753,-2.3481 -0.7956,-3.5652 0.2677,-1.8127 2.2076,-2.9076 10.7281,-6.055 5.7207,-2.1132 11.4058,-3.8422 12.6334,-3.8422 2.6188,0 4.0836,3.8173 2.1855,5.6957 -0.6711,0.6641 -6.2622,2.9876 -12.4246,5.1632 -9.2469,3.2647 -11.4006,3.7195 -12.3268,2.6035 z M 47,1651.1889 c 0,-0.5192 0.617963,-1.4569 1.373252,-2.0837 1.606471,-1.3333 4.881131,-0.3769 4.341893,1.268 C 52.262339,1651.7545 47,1652.5055 47,1651.1889 z m 492.03642,-2.4389 c -0.50638,-1.2375 -1.88667,-6.9518 -3.06731,-12.6985 -2.05152,-9.9857 -2.06776,-10.5062 -0.36673,-11.75 3.74538,-2.7387 4.55851,-1.2841 7.59938,13.5944 2.00421,9.8063 2.10182,11.3011 0.79208,12.1291 -2.41558,1.5271 -3.9749,1.1261 -4.95742,-1.275 z m -432.2168,-11.1272 c -1.66902,-2.2988 -1.61,-2.3734 8.72926,-11.0459 10.44634,-8.7623 13.65312,-10.1253 14.23977,-6.0525 0.2065,1.4337 -2.40434,4.4901 -9.17398,10.7398 -5.20445,4.8047 -10.05935,8.7217 -10.78866,8.7044 -0.7293,-0.017 -2.08218,-1.0729 -3.00639,-2.3458 z m 1514.94868,-1.2319 c -1.0817,-2.3742 -0.9222,-2.802 1.7709,-4.75 1.6279,-1.1775 5.2767,-4.2326 8.1084,-6.7891 6.0113,-5.4269 10.9935,-7.0631 13.0293,-4.279 1.891,2.5861 1.6442,3.9571 -0.9269,5.1504 -1.2375,0.5743 -5.6124,3.7965 -9.722,7.1605 -4.1096,3.364 -8.2818,6.1163 -9.2714,6.1163 -0.9897,0 -2.3344,-1.1741 -2.9883,-2.6091 z m 57.8867,-33.2196 c -0.9103,-1.0058 -1.655,-2.2464 -1.655,-2.7569 0,-0.5104 4.9987,-4.289 11.1082,-8.3967 l 11.1082,-7.4687 1.8918,2.3363 c 1.0405,1.2849 1.8918,2.6496 1.8918,3.0326 0,1.3684 -20.1703,15.0821 -22.1829,15.0821 -0.2789,0 -1.2519,-0.8229 -2.1621,-1.8287 z M 160.2,1596.8 c -2.70151,-2.7015 -1.09407,-4.7622 8.90934,-11.4218 7.99178,-5.3203 10.45299,-6.5147 11.75,-5.702 3.95031,2.4753 2.41383,4.6583 -8.14616,11.5738 -5.66898,3.7125 -10.53357,6.75 -10.81021,6.75 -0.27663,0 -1.04297,-0.54 -1.70297,-1.2 z m 355.06403,-9.7488 C 513.77094,1584.6604 506,1566.0952 506,1564.9189 c 0,-0.4667 0.9525,-1.3583 2.11666,-1.9813 3.0036,-1.6075 4.00533,-0.277 9.2625,12.3021 l 4.48841,10.7396 -2.15629,1.5104 c -2.75239,1.9278 -2.98368,1.905 -4.44725,-0.4385 z M 2377.25,1576.3377 c -0.6875,-0.2774 -1.25,-1.2234 -1.25,-2.1022 0,-2.3406 12.0038,-22.2355 13.4161,-22.2355 0.6609,0 2.0337,0.6085 3.0508,1.3521 1.7669,1.292 1.701,1.6142 -1.483,7.25 -8.6941,15.3886 -10.2307,17.1492 -13.7339,15.7356 z m -645.2649,-14.3656 c -0.953,-1.7806 -0.012,-3.1808 7.7148,-11.4791 4.84,-5.1981 9.2929,-9.4605 9.8951,-9.472 0.6023,-0.012 1.9165,0.8868 2.9206,1.9962 2.0723,2.2899 2.3394,1.8951 -9.9667,14.7328 -6.3051,6.5776 -8.7749,7.5647 -10.5638,4.2221 z m -1516.0503,-1.0939 c -1.5368,-2.8716 0.14833,-4.3611 12.21271,-10.7952 8.97111,-4.7844 9.76337,-5.0293 11.29995,-3.4927 0.90884,0.9089 1.51746,2.3236 1.35249,3.144 -0.27734,1.3791 -20.70666,13.2657 -22.79956,13.2657 -0.51151,0 -1.44103,-0.9548 -2.06559,-2.1218 z m 60.28706,-29.0563 c -2.6912,-2.6912 -1.34654,-4.8791 4.52814,-7.3678 3.1625,-1.3397 7.41415,-3.3399 9.44812,-4.445 5.66209,-3.0761 12.80188,-2.5485 12.80188,0.946 0,1.817 -1.39446,2.5452 -15.5,8.0949 -4.4,1.7311 -8.46267,3.3379 -9.02814,3.5706 -0.56548,0.2327 -1.57798,-0.1267 -2.25,-0.7987 z m 220.23426,-7.8929 c -2.08716,-3.3771 5.30066,-25.929 8.49412,-25.929 3.91175,0 4.38059,2.5141 1.7168,9.2062 -1.37788,3.4616 -2.82587,8.0938 -3.21776,10.2938 -0.39189,2.2 -1.11913,4.7875 -1.61609,5.75 -0.99867,1.9342 -4.3405,2.3562 -5.37707,0.679 z m 1914.25268,-5.5535 c -0.3898,-0.3899 -0.7088,-1.3854 -0.7088,-2.2124 0,-1.4934 12.7311,-22.1631 13.6509,-22.1631 1.4071,0 4.3447,2.2355 4.3169,3.2852 -0.018,0.6681 -2.8503,5.7148 -6.2948,11.2148 -5.8948,9.4127 -8.8054,12.0343 -10.9642,9.8755 z m -635.8157,-7.2609 -2.3284,-1.8855 3.6136,-5.4424 c 1.9875,-2.9934 4.8444,-7.8824 6.3488,-10.8646 1.5043,-2.9821 3.2144,-5.7282 3.8002,-6.1023 1.2935,-0.8263 4.5944,0.8126 5.2905,2.6266 0.4548,1.1853 -7.1044,15.6822 -11.1085,21.3036 -1.9495,2.7369 -2.6318,2.7812 -5.6162,0.3646 z M 336.71846,1509.75 c -1.0768,-3.0031 1.66504,-4.7586 12.91948,-8.2719 12.14498,-3.7913 16.36206,-3.9412 16.36206,-0.5815 0,2.7283 -1.42919,3.4998 -12.89937,6.9633 -11.14168,3.3642 -15.66641,3.8863 -16.38217,1.8901 z m 64.33009,-18.72 c -1.15141,-0.7116 -1.2077,-1.3853 -0.28496,-3.4105 0.95403,-2.0939 3.08554,-3.1279 12.51513,-6.0716 12.67449,-3.9566 13.98566,-4.1392 15.61609,-2.1746 2.32783,2.8048 -0.0609,4.575 -10.74384,7.9621 -13.99681,4.4378 -15.40705,4.7424 -17.10242,3.6946 z m 2030.34575,-12.8498 c -0.5489,-0.3741 -3.6462,-3.9841 -6.883,-8.0221 -4.7301,-5.901 -5.6802,-7.6673 -4.841,-9 2.1335,-3.3882 4.171,-2.3275 10.2687,5.3458 3.3336,4.1949 6.061,8.2568 6.061,9.0264 0,1.7189 -3.2382,3.582 -4.6057,2.6499 z M 465.08663,1470.6866 C 464.48899,1470.089 464,1468.767 464,1467.749 c 0,-2.1622 2.64276,-3.3839 15.84691,-7.326 10.12588,-3.0231 12.65309,-2.7055 12.65309,1.5901 0,2.0271 -0.99246,2.5725 -8.5,4.6709 -4.675,1.3068 -10.59851,2.9864 -13.16337,3.7326 -3.35677,0.9765 -4.96782,1.0522 -5.75,0.27 z m 60.00515,-7.5151 c -0.72328,-1.3515 -0.45029,-2.6972 1.04641,-5.1583 1.43546,-2.3605 1.84981,-4.2636 1.42327,-6.5373 -0.96361,-5.1365 0.10687,-6.3201 7.79714,-8.6212 3.92777,-1.1752 8.4914,-2.8243 10.1414,-3.6645 1.65,-0.8402 5.59289,-1.6739 8.76198,-1.8527 3.16909,-0.1788 9.22301,-1.0399 13.45315,-1.9137 7.25929,-1.4994 7.76399,-1.4891 8.98802,0.1849 1.90113,2.6 1.59033,4.3232 -0.95315,5.2848 -5.88808,2.2262 -9.8371,3.1026 -16.75,3.7172 -4.125,0.3668 -8.625,1.247 -10,1.956 -1.375,0.709 -6.31507,5.1465 -10.97792,9.8612 -8.59939,8.6949 -11.16881,10.035 -12.9303,6.7436 z m 1922.91882,-0.6588 c -1.6337,-1.9684 -1.2121,-2.8562 5.7591,-12.1261 7.5596,-10.0524 8.5014,-10.847 11.1664,-9.4208 1.1351,0.6075 2.0639,1.5487 2.0639,2.0914 0,1.6477 -15.2404,20.9428 -16.5418,20.9428 -0.6673,0 -1.7688,-0.6693 -2.4476,-1.4873 z m -644.8746,-11.5896 c -1.8405,-0.7342 -2.2226,-1.4391 -1.7252,-3.1831 3.0756,-10.7847 3.9168,-13.8842 4.95,-18.24 1.0945,-4.6145 1.4155,-5 4.1626,-5 2.7702,0 2.9915,0.2774 3.1917,4 0.2325,4.3245 -5.5078,22.7267 -7.2151,23.1299 -0.55,0.1299 -2.0638,-0.1882 -3.364,-0.7068 z m -1187.42128,-18.906 c -0.7978,-3.0508 0.033,-4.737 2.65879,-5.396 5.22327,-1.311 22.85489,-3.598 23.70202,-3.0744 1.32304,0.8177 1.14285,5.2003 -0.24918,6.0606 -1.11335,0.6881 -12.53833,2.8537 -21.43002,4.0621 -3.62646,0.4929 -4.17088,0.3007 -4.68161,-1.6523 z m 1771.10198,-12.1759 c -3.4742,-5.1043 -6.657,-9.8217 -7.0729,-10.4832 -0.8476,-1.348 1.6952,-4.358 3.6816,-4.358 1.8251,0 14.8007,19.5838 14.3929,21.7229 -0.1863,0.9774 -1.3166,1.917 -2.5118,2.0879 -1.7546,0.251 -3.3898,-1.4767 -8.4898,-8.9696 z m -1704.61373,1.9618 c -1.58131,-1.5813 -1.54344,-5.4584 0.0593,-6.0734 3.07007,-1.1781 23.65123,-3.9768 25.11476,-3.4152 0.89464,0.3434 1.62295,1.7377 1.62295,3.1072 0,2.8995 -2.84853,3.9719 -15,5.6472 -4.125,0.5688 -8.19616,1.2373 -9.04703,1.4856 -0.85087,0.2483 -2.08837,-0.09 -2.75,-0.7514 z M 2490.2,1410.8 c -1.9791,-1.9791 -1.4379,-3.334 3.9791,-9.9626 9.3542,-11.4464 10.9126,-12.8587 12.9725,-11.7563 1.0166,0.5441 1.8484,1.6781 1.8484,2.52 0,1.8996 -14.9484,20.3989 -16.4833,20.3989 -0.6142,0 -1.6567,-0.54 -2.3167,-1.2 z m -1742.53333,-0.4667 c -0.94911,-0.9491 -0.82652,-5.1165 0.16859,-5.7315 1.59807,-0.9876 24.28495,-4.6455 25.22172,-4.0666 0.51866,0.3206 0.94302,1.8977 0.94302,3.5048 0,2.2309 -0.53209,3.0277 -2.25,3.3692 -17.3998,3.4594 -22.88241,4.1251 -24.08333,2.9241 z m -205.44731,-3.1139 c -1.4125,-1.4125 -2.0814,-4.0132 -2.58482,-10.0495 -0.37354,-4.4792 -0.47236,-9.1623 -0.2196,-10.4069 1.59437,-7.851 1.54439,-7.763 4.41073,-7.763 l 2.78756,0 -0.0566,14.6662 c -0.0598,15.494 -0.62629,17.2641 -4.33725,13.5532 z m 270.58833,-9.7421 c -0.93011,-2.0414 -0.87717,-2.8237 0.26496,-3.9149 1.44354,-1.3793 15.06898,-3.7888 22.42735,-3.966 3.78572,-0.091 4,0.062 4,2.8577 0,2.9096 -0.12812,2.9793 -8.5,4.6227 -16.63559,3.2656 -16.88438,3.2711 -18.19231,0.4005 z M 1986,1387.0801 c -1.925,-1.0292 -6.425,-4.5799 -10,-7.8903 -5.5794,-5.1666 -6.3432,-6.2789 -5.3928,-7.8544 1.9292,-3.1982 4.1503,-2.6136 11.1118,2.9244 3.7295,2.9669 8.0419,6.2143 9.583,7.2164 2.0862,1.3565 2.7249,2.4865 2.5,4.4229 -0.3824,3.2929 -3.0866,3.7023 -7.802,1.181 z m -1107.25,0.3487 c -0.97238,-0.9881 -0.97202,-5.1736 5e-4,-5.7746 1.54157,-0.9527 24.41351,-4.6709 25.313,-4.115 0.51507,0.3184 0.9365,1.872 0.9365,3.4524 0,3.2924 -0.47956,3.5205 -10.5,4.9931 -3.85,0.5658 -8.8,1.2937 -11,1.6175 -2.2,0.3238 -4.3375,0.2458 -4.75,-0.1734 z m 937,-2.1181 c -1.551,-0.4054 -1.75,-1.9043 -1.75,-13.184 0,-13.0871 0.5584,-15.1267 4.141,-15.1267 0.9575,0 2.075,0.5404 2.4832,1.2009 1.1258,1.8216 0.4246,25.0354 -0.8008,26.5119 -1.1096,1.337 -1.1963,1.3497 -4.0734,0.5979 z m 214.4546,-3.5641 c -2.0727,-2.4976 -1.6111,-3.657 3.941,-9.8992 3.1051,-3.4911 6.9566,-7.8674 8.5589,-9.7253 2.671,-3.097 3.0953,-3.2641 5.1043,-2.0094 1.2052,0.7526 2.1912,2.0915 2.1912,2.9752 0,2.9731 -15.6037,19.9121 -18.3424,19.9121 -0.227,0 -0.8808,-0.564 -1.453,-1.2534 z m -1086.55522,-7.9794 c -0.32113,-1.228 -0.12965,-2.6869 0.42552,-3.2421 1.03423,-1.0342 10.02646,-2.8703 20.06958,-4.098 5.18632,-0.634 5.74213,-0.5075 6.84762,1.5581 1.7794,3.3249 -0.0546,4.4376 -10.4921,6.3656 -12.65753,2.3381 -16.11793,2.2183 -16.85062,-0.5836 z M 2348.8171,1367.25 c -7.4074,-10.3751 -9.0378,-13.6293 -7.5659,-15.1012 2.4128,-2.4128 4.4727,-0.7751 11.4508,9.1039 6.7114,9.5016 7.0925,10.3169 5.595,11.9716 -0.8839,0.9767 -2.1334,1.7757 -2.7769,1.7757 -0.6434,0 -3.6598,-3.4875 -6.703,-7.75 z m -1339.1586,-4.448 c -1.0667,-4.0789 -0.2875,-4.3973 19.1022,-7.8062 3.4433,-0.6053 6.7058,-0.8255 7.25,-0.4892 0.8283,0.5119 1.5075,6.4934 0.7373,6.4934 -0.1386,0 -4.9752,0.9 -10.748,2 -13.6631,2.6035 -15.6151,2.5798 -16.3415,-0.198 z M 1076.2,1352.8 c -0.66,-0.66 -1.2,-2.1983 -1.2,-3.4185 0,-3.3866 10.381,-6.5702 20.1431,-6.1775 l 7.3569,0.296 0.3134,3.25 c 0.2586,2.6828 -0.034,3.25 -1.6765,3.25 -1.0945,0 -6.556,0.9 -12.1369,2 -11.9654,2.3584 -11.2842,2.3158 -12.8,0.8 z M 533.03518,1342.0657 C 532.46583,1341.0019 532,1334.757 532,1328.1882 c 0,-9.3509 0.32283,-12.2112 1.48727,-13.1776 3.32108,-2.7563 4.18482,-0.577 5.21227,13.1507 0.54908,7.3363 0.79317,13.9012 0.54241,14.5887 -0.71141,1.9504 -5.05287,1.4718 -6.20677,-0.6843 z M 1933.3674,1335.75 c -9.093,-9.308 -10.5649,-11.5124 -9.2847,-13.9046 2.0051,-3.7464 5.1656,-1.9697 13.8006,7.7581 8.1683,9.202 8.3375,9.4951 6.595,11.4204 -0.9835,1.0869 -2.2923,1.9761 -2.9083,1.9761 -0.616,0 -4.3072,-3.2625 -8.2026,-7.25 z m -791.5617,3.7229 c -0.8111,-1.7801 -0.8381,-2.8405 -0.091,-3.5871 0.9567,-0.9567 20.2697,-4.7777 24.5358,-4.8544 1.3326,-0.024 1.75,0.7866 1.75,3.3977 0,3.3368 -0.1413,3.4573 -5.25,4.4781 -5.4536,1.0897 -17.6755,3.0721 -19.0214,3.0852 -0.4243,0 -1.2896,-1.1296 -1.9229,-2.5195 z m -462.05777,-11.8283 c -5.70977,-1.5337 -7.91554,-2.5973 -8.37255,-4.0373 -0.84224,-2.6536 2.15806,-4.767 5.53631,-3.8998 5.02609,1.2904 8.98235,0.7407 11.46662,-1.5932 4.80783,-4.5167 8.28532,1.076 5.9914,9.6357 -0.7568,2.824 -3.79755,2.8021 -14.62178,-0.1054 z m 526.89847,0.1113 c -0.3227,-1.2342 -0.038,-2.7526 0.6334,-3.3741 1.2351,-1.1439 16.286,-4.2243 22.7202,-4.6502 3.2669,-0.2162 3.5207,-0.018 3.8108,2.9841 0.3499,3.6198 1.1755,3.2442 -12.6713,5.7633 -11.6562,2.1206 -13.7771,2.0148 -14.4931,-0.7231 z m 860.9496,-1.062 c -1.8049,-1.3198 -1.7815,-1.5732 0.7215,-7.8298 1.4227,-3.5562 3.9728,-9.2595 5.6669,-12.674 l 3.0802,-6.2081 2.9472,1.5241 2.9471,1.524 -2.0474,5.235 c -1.7247,4.4097 -4.6421,10.9556 -7.9041,17.7349 -0.9864,2.0499 -3.1734,2.3303 -5.4114,0.6939 z m -1453.28448,-2.3245 c -0.83371,-2.1726 2.04884,-7.3389 6.54364,-11.728 2.99661,-2.9261 4.63827,-3.6773 9.14839,-4.186 6.17665,-0.6968 9.82218,0.9504 8.68161,3.9227 -0.71432,1.8615 -1.44796,2.1804 -7.18516,3.1238 -3.05246,0.5019 -5.09992,1.8233 -8.64329,5.5779 -4.79932,5.0855 -7.4626,6.1108 -8.54519,3.2896 z m 658.63538,-8.0092 c -0.6329,-1.6645 -0.666,-3.0411 -0.087,-3.6201 0.5138,-0.5138 6.2681,-2.0022 12.7872,-3.3074 10.9861,-2.1996 11.9443,-2.2517 13.1029,-0.7118 1.7825,2.3691 1.5445,5.0591 -0.5,5.6506 -0.9625,0.2784 -5.8,1.2167 -10.75,2.0849 -4.95,0.8683 -10.0197,1.8062 -11.266,2.0842 -1.7703,0.3949 -2.4893,-0.082 -3.2871,-2.1804 z m 538.6366,-1.1102 c -0.3165,-1.5125 -1.0128,-5.9 -1.5474,-9.75 -0.5345,-3.85 -1.2593,-8.421 -1.6106,-10.1578 -0.5244,-2.5932 -0.248,-3.3668 1.5461,-4.327 2.9505,-1.5791 4.7168,-0.7152 5.4535,2.6672 1.494,6.8599 3.3605,21.7129 2.8843,22.9536 -0.2878,0.7502 -1.7895,1.364 -3.3369,1.364 -2.2632,0 -2.9262,-0.538 -3.389,-2.75 z m 504.1203,-3.5 c -1.9075,-3.4375 -4.6956,-8.6949 -6.1957,-11.6832 -2.5931,-5.1655 -2.6387,-5.4981 -0.9267,-6.75 0.9905,-0.7242 2.1715,-1.3168 2.6244,-1.3168 1.0597,0 3.7719,4.4318 9.0603,14.8048 4.1168,8.075 4.1802,8.3447 2.2928,9.75 -1.0677,0.7948 -2.2664,1.4452 -2.664,1.4452 -0.3975,0 -2.2835,-2.8125 -4.1911,-6.25 z m -1734.89264,-6.363 c -1.33705,-1.3405 -3.36325,-1.6614 -9.72719,-1.5405 -7.6192,0.1448 -8.12666,0.018 -9.73208,-2.4322 -2.33983,-3.571 -1.22591,-4.0477 11.48439,-4.914 l 10.57611,-0.7209 2.31497,2.8603 c 3.05157,3.7704 2.69614,7.7531 -0.72736,8.1504 -1.375,0.1595 -3.25998,-0.4719 -4.18884,-1.4031 z m 757.31764,-0.557 c -0.4763,-1.2815 -0.6609,-2.8694 -0.4101,-3.5286 0.6713,-1.7653 8.7878,-4.0421 16.7813,-4.7075 3.85,-0.3205 7.9,-0.6977 9,-0.8383 1.4902,-0.1904 2.0766,0.4035 2.3006,2.33 0.4371,3.7606 -1.4929,4.804 -11.9401,6.4555 -5.1483,0.8139 -10.5992,1.7361 -12.1131,2.0494 -2.241,0.4637 -2.9136,0.1365 -3.6186,-1.7605 z m 132.4544,-5.1455 c -1.3748,-1.0053 -1.704,-2.0671 -1.2283,-3.9623 0.7817,-3.1146 3.4196,-4.1386 7.0781,-2.7477 1.4835,0.564 5.7054,1.0316 9.3821,1.0392 9.5323,0.019 11.3604,0.6628 10.9887,3.867 l -0.3038,2.6193 -12.0193,0.2789 c -8.972,0.2082 -12.4955,-0.069 -13.8975,-1.0944 z m 65.5924,-1.7858 0.3244,-3.3987 12.2405,-0.8606 c 13.3519,-0.9388 15.2595,-0.6629 15.2595,2.2068 0,3.5383 -2.5603,4.3461 -15.5531,4.9072 l -12.5958,0.544 0.3245,-3.3987 z m -121.6565,-2.0794 c -10.1457,-0.964 -11.7358,-1.7142 -11.2748,-5.3193 0.2374,-1.857 0.9351,-1.9865 9.7557,-1.8117 5.225,0.1036 11.3,0.5737 13.5,1.0448 3.5711,0.7646 4,1.1733 4,3.8117 0,3.5547 -1.0035,3.6975 -15.9809,2.2745 z m 188.1476,-4.486 c -0.3667,-0.3666 -0.6667,-1.8727 -0.6667,-3.3467 0,-2.576 0.4177,-2.7832 10.75,-5.3345 13.2459,-3.2707 14.844,-3.3125 15.6036,-0.408 0.88,3.3653 -0.8718,4.3941 -12.2526,7.1958 -11.1559,2.7465 -12.4052,2.9225 -13.4343,1.8934 z M 657.63577,1279.25 c -8.64813,-9.7963 -9.79969,-12.0391 -7.26252,-14.1448 2.07672,-1.7235 3.8437,-0.5896 10.0782,6.4678 3.13654,3.5505 7.01809,7.1356 8.62567,7.9669 3.08136,1.5934 3.71362,4.1141 1.8877,7.5258 -1.94488,3.6341 -4.59096,2.0825 -13.32905,-7.8157 z M 1908,1282.5341 c 0,-0.8759 -1.5566,-6.393 -3.4591,-12.2601 -2.5501,-7.864 -3.1749,-11.0101 -2.3776,-11.9708 1.7901,-2.1569 4.6986,-1.4751 6.1727,1.4468 2.3108,4.5806 6.8676,19.9525 6.4958,21.9133 -0.465,2.4528 -6.8318,3.2643 -6.8318,0.8708 z m -241.5455,-9.9026 c -2.9567,-4.2213 -2.8612,-4.291 13.264,-9.6796 10.7753,-3.6009 11.9886,-3.4977 12.5028,1.063 0.262,2.3246 -0.456,2.7179 -12.0168,6.5827 -12.2881,4.108 -12.2965,4.1092 -13.75,2.0339 z M 2098.2,1266.8 c -0.66,-0.66 -1.2,-1.5745 -1.2,-2.0323 0,-1.2748 8.4358,-13.7905 12.1767,-18.0657 3.2326,-3.6944 3.387,-3.7526 5.6593,-2.133 1.3882,0.9894 2.1542,2.3605 1.8878,3.3792 -0.8044,3.0759 -14.1415,20.0518 -15.7538,20.0518 -0.8635,0 -2.11,-0.54 -2.77,-1.2 z m 520.2925,-6.05 c -1.5863,-2.2021 -1.4225,-2.436 7.6933,-10.9883 5.1228,-4.8061 9.8609,-8.7436 10.529,-8.75 0.6682,-0.01 1.7495,0.9873 2.403,2.2084 1.0967,2.0492 0.4755,2.8956 -8.0722,11 -5.0932,4.8289 -9.6366,8.7799 -10.0963,8.7799 -0.4597,0 -1.5653,-1.0125 -2.4568,-2.25 z m -331.2649,-4 c -1.7068,-2.0971 -11.2276,-20.3422 -11.2276,-21.5158 0,-1.6253 3.891,-2.5696 5.4062,-1.312 0.7206,0.598 3.7365,5.8157 6.702,11.5949 4.5584,8.8835 5.16,10.6578 3.8918,11.4799 -2.0402,1.3226 -3.559,1.244 -4.7724,-0.247 z m -488.9158,-5 c -0.5133,-0.6875 -2.2069,-5.3 -3.7638,-10.25 -1.5568,-4.95 -3.667,-10.6696 -4.6893,-12.7102 -2.4626,-4.9156 -2.3989,-5.1137 1.4148,-4.3983 5.1166,0.9599 7.961,-1.5589 7.5518,-6.6874 -0.3238,-4.0584 -0.2956,-4.0945 6.1747,-7.8851 7.4524,-4.3661 16.0411,-7.4009 18.3918,-6.4989 2.203,0.8454 2.0957,5.5949 -0.1418,6.273 -8.3764,2.5383 -23.8764,13.0703 -24.8306,16.872 -0.2974,1.1849 0.1873,4.1524 1.077,6.5946 0.8898,2.4422 2.4946,7.3653 3.5664,10.9403 1.8261,6.0915 1.8419,6.5786 0.2518,7.75 -0.9333,0.6875 -2.2308,1.25 -2.8833,1.25 -0.6525,0 -1.6063,-0.5625 -2.1195,-1.25 z m -69.7587,-2.3946 c -0.3651,-1.4546 -0.3014,-2.9957 0.1415,-3.4247 0.443,-0.4289 5.8902,-2.8427 12.105,-5.3639 8.9663,-3.6375 11.7024,-4.3685 13.25,-3.5402 1.0727,0.5741 1.9504,1.9279 1.9504,3.0086 0,2.4631 -3.41,5.9648 -5.8086,5.9648 -0.9947,0 -5.5077,1.35 -10.0288,3 -10.0357,3.6626 -10.7738,3.6852 -11.6095,0.3554 z M 648.14514,1230.2949 c -0.66855,-1.1947 -0.36021,-3.2156 1.02988,-6.75 7.61775,-19.369 8.79034,-21.2629 12.32498,-19.9065 2.28822,0.878 1.85847,3.2539 -2.62424,14.5077 -4.94265,12.4085 -8.39677,16.3191 -10.73062,12.1488 z M 1878,1220.9336 c -2.475,-2.1896 -6.8625,-5.1086 -9.75,-6.4866 -4.5279,-2.161 -5.25,-2.8995 -5.25,-5.3693 0,-1.5751 0.6285,-3.1049 1.3966,-3.3996 3.3267,-1.2766 23.6034,11.3431 23.6034,14.6902 0,1.4844 -3.163,4.6546 -4.5787,4.5891 -0.5067,-0.024 -2.9463,-1.8342 -5.4213,-4.0238 z m 790.2,-5.1336 c -0.66,-0.66 -1.2,-1.7219 -1.2,-2.3598 0,-0.6379 4.0575,-4.8682 9.0166,-9.4007 9.0129,-8.2375 11.2275,-9.1729 12.6905,-5.3605 0.4954,1.2911 -1.5689,3.8094 -8.2159,10.0227 -4.8826,4.5641 -9.3756,8.2983 -9.9844,8.2983 -0.6087,0 -1.6468,-0.54 -2.3068,-1.2 z m -530.9708,-2.9708 c -0.6761,-0.6761 -1.2292,-1.8495 -1.2292,-2.6076 0,-2.027 12.0612,-21.3079 13.7298,-21.9482 0.7839,-0.3008 2.1388,0.1666 3.0109,1.0387 1.4474,1.4474 1.0154,2.5702 -4.9582,12.8867 -6.5172,11.2554 -8.2166,12.9671 -10.5533,10.6304 z m 115.0675,-14.3823 c -0.9882,-1.4042 -4.632,-5.9561 -8.0974,-10.1152 -6.0202,-7.2254 -6.2248,-7.646 -4.5951,-9.4469 0.9382,-1.0366 2.0678,-1.8848 2.5103,-1.8848 1.1999,0 5.3995,4.6172 11.6156,12.7704 5.3886,7.0679 5.493,7.3255 3.7514,9.25 -2.3307,2.5754 -3.0227,2.4989 -5.1848,-0.5735 z M 665.0442,1162.25 c -7.24592,-7.8066 -8.062,-9.0734 -7.56939,-11.75 0.55982,-3.0417 2.87027,-5.5 5.16932,-5.5 0.69402,0 1.70517,1.6055 2.24698,3.5678 0.56516,2.0468 3.78249,6.6934 7.547,10.8996 3.60904,4.0324 6.56189,7.8111 6.56189,8.397 0,1.1072 -3.13824,3.1356 -4.85139,3.1356 -0.54059,0 -4.63757,-3.9375 -9.10441,-8.75 z M 2181.2,1162.8 c -4.0561,-4.0561 4.3303,-8.1738 16.8,-8.2489 8.4136,-0.051 8.5,-0.026 8.5,2.4489 0,2.3325 -0.4284,2.5472 -6.3944,3.2052 -3.517,0.3879 -8.4346,1.4004 -10.9282,2.25 -5.4572,1.8595 -6.4211,1.9011 -7.9774,0.3448 z M 683.0076,1117.5092 c -0.68051,-0.82 -1.01472,-2.7325 -0.74269,-4.25 1.22289,-6.8221 4.78011,-22.523 5.28961,-23.3474 0.73659,-1.1918 5.16225,-1.1791 5.90147,0.017 0.80715,1.306 -4.13335,25.9775 -5.54191,27.6747 -1.50212,1.81 -3.35562,1.7743 -4.90648,-0.094 z m 6.26295,-66.7109 c -0.57995,-0.7141 -1.21557,-7.3232 -1.4125,-14.687 -0.31683,-11.8472 -0.15872,-13.5147 1.37319,-14.4831 1.33643,-0.8447 2.11412,-0.7114 3.41024,0.5847 1.40005,1.4001 1.69392,3.9725 1.76876,15.4831 0.0863,13.2684 0.009,13.8156 -1.99775,14.1023 -1.14812,0.164 -2.562,-0.286 -3.14194,-1 z M 2891.2,1021.8 c -0.66,-0.66 -1.2,-1.9267 -1.2,-2.815 0,-1.7717 17.1372,-15.985 19.2734,-15.985 1.6389,0 3.7266,1.9983 3.7266,3.5671 0,1.0591 -18.7549,16.4297 -20.05,16.4319 -0.3025,6e-4 -1.09,-0.539 -1.75,-1.199 z M 683.98518,984.48214 c -0.88307,-1.06403 -1.06812,-3.38125 -0.61891,-7.75 0.35244,-3.42768 0.93128,-9.2911 1.2863,-13.02982 0.50134,-5.27954 1.10749,-7.12128 2.71414,-8.24662 1.79155,-1.25485 2.25973,-1.25783 3.49534,-0.0222 1.22162,1.22163 1.24286,3.26947 0.1478,14.24662 -0.7034,7.05095 -1.6842,13.60741 -2.17956,14.56991 -1.10809,2.15304 -3.16896,2.25178 -4.84511,0.23214 z m 2260.02702,-3.45925 c -0.9094,-1.69934 -0.4858,-2.39169 3.0154,-4.92791 2.2404,-1.62294 7.4504,-4.67074 11.5779,-6.77289 7.3089,-3.72248 7.5421,-3.7715 8.9495,-1.88096 0.7947,1.06762 1.445,2.25602 1.445,2.64089 0,1.01722 -20.6706,12.91798 -22.4374,12.91798 -0.8207,0 -1.9684,-0.8897 -2.5504,-1.97711 z m 59.7488,-30.64814 c -1.1478,-2.5192 -0.9818,-2.87564 2.6926,-5.77976 2.1537,-1.70224 6.3125,-5.23249 9.2417,-7.84499 5.8213,-5.19187 7.6942,-5.75933 9.2728,-2.80959 0.8228,1.53733 0.5704,2.46018 -1.2148,4.44261 -3.3428,3.71202 -12.854,11.56997 -16.0112,13.22809 -2.6317,1.38216 -2.8138,1.32562 -3.9811,-1.23636 z M 691.47718,917.33433 c -1.17321,-1.17322 -1.48007,-2.569 -1.04383,-4.74802 0.33983,-1.69747 1.33688,-7.13631 2.21565,-12.08631 1.76723,-9.95451 4.04697,-13.82714 6.79647,-11.54525 2.03264,1.68694 1.97291,3.38984 -0.5907,16.83981 -2.32365,12.19104 -4.04065,14.87671 -7.37759,11.53977 z M 3047.5616,901.46814 c -1.8817,-1.42134 -1.7866,-1.77858 3.2523,-12.21615 2.8549,-5.91359 5.8035,-11.16111 6.5525,-11.66114 1.9071,-1.27322 4.643,-0.004 4.5855,2.12777 -0.064,2.37956 -10.1796,22.67451 -11.4519,22.9764 -0.55,0.1305 -1.8723,-0.4216 -2.9384,-1.22688 z M 695.90679,848.75 c -4.39969,-6.02065 -4.7809,-7.47118 -3.98482,-15.16248 0.49889,-4.82 1.2354,-7.22943 2.49041,-8.14711 3.47732,-2.54267 4.58679,-0.75374 4.59967,7.41658 0.01,6.29587 0.45056,8.41009 2.5,11.99508 2.89435,5.06297 3.09135,6.7024 0.90616,7.54094 -2.73152,1.04818 -3.32652,0.71529 -6.51142,-3.64301 z m 2376.49631,-9.74688 c -0.7647,-0.7647 -0.4103,-4.28565 1.2318,-12.23934 2.8833,-13.96462 2.8858,-13.97084 5.6106,-13.58392 2.0649,0.29321 2.2327,0.78274 1.9959,5.82014 -0.1422,3.025 -1.0515,8.875 -2.0205,13 -1.4094,5.99981 -2.1601,7.55767 -3.7531,7.78832 -1.0951,0.15858 -2.4742,-0.19476 -3.0647,-0.7852 z M 696.66667,787.33333 c -0.92669,-0.92669 -0.75534,-13.92412 0.25228,-19.13625 C 697.84139,763.4256 701.34774,759 704.2057,759 c 2.90783,0 3.20652,2.61427 0.90891,7.95523 C 703.81401,769.97854 703,773.98779 703,777.37028 703,784.20976 701.64197,788 699.19142,788 c -1.02195,0 -2.15809,-0.3 -2.52475,-0.66667 z M 3082.0853,772.60281 c -0.884,-1.06521 -0.7854,-3.85706 0.415,-11.75 2.1831,-14.35405 3.32,-16.52085 7.3332,-13.97685 1.1054,0.70067 1.0548,2.70883 -0.2957,11.73468 -0.896,5.98915 -2.049,11.90186 -2.5621,13.13936 -1.0576,2.55106 -3.1746,2.92022 -4.8904,0.85281 z M 726.70311,728.97269 C 725.85152,725.71622 740.68359,706.5 744.04868,706.5 c 4.42118,0 3.33826,3.47454 -4.36346,14 -5.53434,7.56345 -7.93934,10.07402 -9.87052,10.30381 -1.90753,0.22697 -2.6945,-0.23615 -3.11159,-1.83112 z M 3091.7773,706.44392 c -0.6137,-0.61365 0.058,-20.57776 0.8159,-24.25698 0.3789,-1.83889 1.0331,-2.24888 3.1917,-2 l 2.7151,0.31306 -0.228,11 c -0.288,13.89111 -0.6642,15.5 -3.6244,15.5 -1.2728,0 -2.5645,-0.25024 -2.8703,-0.55608 z M 767.7161,680.25 c -0.22106,-0.4125 -0.34007,-6.7886 -0.26446,-14.16911 0.11938,-11.65448 0.36943,-13.56126 1.90148,-14.5 1.38546,-0.84893 2.06091,-0.68134 3.14747,0.78094 2.81648,3.79041 3.07054,19.37558 0.4291,26.3231 -0.83435,2.19451 -4.31614,3.23971 -5.21359,1.56507 z m 2320.8095,-42.5 c -2.9164,-12.80303 -4.5755,-22.17755 -4.1304,-23.33747 0.2981,-0.77689 1.6451,-1.41253 2.9933,-1.41253 2.2117,0 2.5973,0.65939 3.9473,6.75 4.3399,19.57982 4.344,20.25 0.1242,20.25 -1.6931,0 -2.5761,-0.67708 -2.9344,-2.25 z M 760.17417,614.12881 c -0.7292,-0.46231 -1.57506,-2.69879 -1.87969,-4.96994 -0.49774,-3.71099 -0.18611,-4.53642 3.07583,-8.147 1.99633,-2.2097 3.62969,-4.86648 3.62969,-5.90397 0,-1.03748 0.85708,-2.94478 1.90461,-4.23843 1.85942,-2.29628 1.953,-2.30831 3.94332,-0.50709 1.12129,1.01475 2.33557,3.19658 2.69839,4.84851 0.56966,2.59367 0.0998,3.57397 -3.44332,7.18416 -2.37964,2.42467 -4.103,5.13742 -4.103,6.45854 0,4.81392 -2.69885,7.2577 -5.82583,5.27522 z M 3068.7315,573.81127 C 3064.1442,566.21002 3058,554.90066 3058,554.05816 c 0,-1.33524 3.8066,-3.29571 4.9851,-2.56738 1.8825,1.16343 12.1689,20.47138 11.8362,22.21682 -0.5257,2.75715 -4.4481,2.82392 -6.0898,0.10367 z M 731.09542,565.94896 c -12.46292,-2.00109 -15.41122,-3.78213 -11.55658,-6.98119 1.25355,-1.04036 3.80267,-0.95914 13.75,0.43812 12.92505,1.81553 16.05625,3.22933 14.09208,6.36287 -1.44638,2.30749 -2.93405,2.32395 -16.2855,0.1802 z M 603,561.59523 c -10.45875,-2.3614 -16,-4.63094 -16,-6.55315 0,-3.914 2.31885,-4.23071 11.4986,-1.57052 4.79882,1.39064 9.74469,2.52844 10.99082,2.52844 4.80628,0 6.23619,6.34831 1.50203,6.66851 -1.3703,0.0927 -4.96645,-0.39029 -7.99145,-1.07328 z m 55.75,-0.31546 c -5.62833,-0.37155 -5.75,-0.44262 -5.75,-3.3587 l 0,-2.97912 13.25,0.27902 13.25,0.27903 0,3 0,3 -7.5,0.0797 c -4.125,0.0438 -10.0875,-0.0911 -13.25,-0.2999 z M 546.41323,528.79716 c -11.28435,-12.3435 -13.59956,-16.9147 -8.90301,-17.57832 1.40963,-0.19918 4.44559,2.38529 10.41266,8.86415 6.82153,7.40659 8.22801,9.45631 7.39788,10.78115 -1.93524,3.08852 -4.80271,2.42313 -8.90753,-2.06698 z M 3022.4765,514.86218 c -8.4675,-8.12915 -9.7795,-10.53586 -7.001,-12.84185 1.2258,-1.01734 3.0872,0.25769 11,7.53496 5.2385,4.81774 9.5245,9.27369 9.5245,9.90211 0,1.54654 -2.098,3.5426 -3.7235,3.5426 -0.7279,0 -5.1379,-3.66202 -9.8,-8.13782 z M 518.21246,475.12743 c -1.25835,-0.78254 -4.49623,-19.75543 -4.04497,-23.7022 0.33486,-2.92869 3.1456,-4.52442 4.87736,-2.76901 0.929,0.94169 3.95515,18.70492 3.95515,23.21638 0,2.91222 -2.55035,4.64608 -4.78754,3.25483 z m -2.14018,-67.06159 C 513.33727,406.33496 521.6728,382 525.0007,382 c 3.96201,0 3.92626,2.19978 -0.23975,14.75 -4.11531,12.39751 -5.05195,13.61736 -8.68867,11.31584 z M 546.75,348.9199 C 545.7875,348.3593 545,347.48804 545,346.98377 545,345.75819 560.92765,326 561.91563,326 c 0.42592,0 1.58124,0.89156 2.56739,1.98124 2.05165,2.26704 2.79443,0.95209 -7.7775,13.76876 -3.74279,4.5375 -7.12017,8.23632 -7.5053,8.21959 -0.38512,-0.0167 -1.48772,-0.48908 -2.45022,-1.04969 z M 590.2,297.8 c -0.66,-0.66 -1.2,-1.72084 -1.2,-2.35743 0,-0.63659 4.02835,-5.04077 8.95189,-9.78708 9.07692,-8.75018 11.26449,-9.69982 12.60621,-5.47244 0.50394,1.58778 -1.183,3.71574 -8.21194,10.35878 -4.86539,4.59827 -9.31866,8.38248 -9.89616,8.40934 -0.5775,0.0269 -1.59,-0.49117 -2.25,-1.15117 z m 53.93299,-38.06701 c -1.95179,-1.95179 -1.24276,-4.62514 1.61701,-6.09688 1.5125,-0.77839 6.74478,-2.82251 11.62729,-4.54249 9.43773,-3.32466 12.05826,-3.04212 11.42097,1.2314 -0.22011,1.47601 -2.00134,2.58167 -6.79826,4.21991 -3.575,1.22093 -8.80266,3.14264 -11.61701,4.27046 -3.81176,1.52752 -5.40602,1.76158 -6.25,0.9176 z m 63.53368,-17.39966 c -1.18984,-1.18983 -0.70438,-5.10488 0.69982,-5.64372 2.91478,-1.11851 22.79355,-3.84217 24.17452,-3.31225 0.80245,0.30793 1.45899,1.69042 1.45899,3.0722 0,2.85885 0.15336,2.80458 -14.23923,5.03867 -11.17013,1.73388 -11.20303,1.73618 -12.0941,0.8451 z m 66,-11 C 773.3,230.96667 773,229.62524 773,228.35239 c 0,-1.70601 0.7228,-2.47908 2.75,-2.94127 1.5125,-0.34485 6.86892,-1.64441 11.90316,-2.88792 5.03424,-1.24352 9.6356,-1.96277 10.22524,-1.59835 0.58964,0.36442 1.19572,1.76791 1.34684,3.11886 0.26035,2.32751 -0.27573,2.59607 -10.22524,5.1224 -11.06634,2.80991 -14.24182,3.25873 -15.33333,2.16722 z M 837.2,210.8 c -2.54447,-2.54447 -1.25062,-4.74508 4.55,-7.73877 3.1625,-1.63216 8.08625,-4.33275 10.94166,-6.0013 4.77017,-2.78745 5.32223,-2.90318 6.79995,-1.42546 0.88456,0.88456 1.47331,2.30038 1.30834,3.14627 -0.24502,1.25634 -19.97541,13.18657 -21.84995,13.21184 -0.3025,0.004 -1.09,-0.53258 -1.75,-1.19258 z"
     id="path3049"
     inkscape:connector-curvature="0" />
</svg>
